solid OpenSCAD_Model
  facet normal -1 0 0
    outer loop
      vertex 0 0 0
      vertex 0 45 7
      vertex 0 45 0
    endloop
  endfacet
  facet normal -1 -0 0
    outer loop
      vertex 0 45 7
      vertex 0 0 0
      vertex 0 0 7
    endloop
  endfacet
  facet normal 0 0 1
    outer loop
      vertex 6.7 2.55 7
      vertex 5.9 2.55 7
      vertex 6.7 0.799999 7
    endloop
  endfacet
  facet normal -0 0 1
    outer loop
      vertex 42.45 39.1 7
      vertex 44.2 38.3 7
      vertex 44.2 39.1 7
    endloop
  endfacet
  facet normal 0 0 1
    outer loop
      vertex 44.2 38.3 7
      vertex 42.45 39.1 7
      vertex 42.45 38.3 7
    endloop
  endfacet
  facet normal 0 0 1
    outer loop
      vertex 44.2 42.45 7
      vertex 45 45 7
      vertex 44.2 44.2 7
    endloop
  endfacet
  facet normal 0 0 1
    outer loop
      vertex 45 45 7
      vertex 42.45 44.2 7
      vertex 44.2 44.2 7
    endloop
  endfacet
  facet normal 0 0 1
    outer loop
      vertex 45 45 7
      vertex 40.85 44.2 7
      vertex 42.45 44.2 7
    endloop
  endfacet
  facet normal 0 0 1
    outer loop
      vertex 45 45 7
      vertex 39.1 44.2 7
      vertex 40.85 44.2 7
    endloop
  endfacet
  facet normal 0 0 1
    outer loop
      vertex 39.1 44.2 7
      vertex 38.3 44.2 7
      vertex 39.1 42.45 7
    endloop
  endfacet
  facet normal 0 0 1
    outer loop
      vertex 45 45 7
      vertex 38.3 44.2 7
      vertex 39.1 44.2 7
    endloop
  endfacet
  facet normal -0 0 1
    outer loop
      vertex 0 45 7
      vertex 38.3 44.2 7
      vertex 45 45 7
    endloop
  endfacet
  facet normal 0 0 1
    outer loop
      vertex 0 45 7
      vertex 0.799999 6.7 7
      vertex 0.799999 44.2 7
    endloop
  endfacet
  facet normal 0 0 1
    outer loop
      vertex 0 0 7
      vertex 0.799999 6.7 7
      vertex 0 45 7
    endloop
  endfacet
  facet normal 0 0 1
    outer loop
      vertex 0.799999 6.7 7
      vertex 0 0 7
      vertex 0.799999 5.9 7
    endloop
  endfacet
  facet normal 0 0 1
    outer loop
      vertex 38.3 44.2 7
      vertex 0 45 7
      vertex 0.799999 44.2 7
    endloop
  endfacet
  facet normal 0 0 1
    outer loop
      vertex 44.2 40.85 7
      vertex 45 45 7
      vertex 44.2 42.45 7
    endloop
  endfacet
  facet normal 0 0 1
    outer loop
      vertex 44.2 39.1 7
      vertex 45 45 7
      vertex 44.2 40.85 7
    endloop
  endfacet
  facet normal 0 0 1
    outer loop
      vertex 44.2 38.3 7
      vertex 45 45 7
      vertex 44.2 39.1 7
    endloop
  endfacet
  facet normal 0 0 1
    outer loop
      vertex 45 45 7
      vertex 44.2 38.3 7
      vertex 45 0 7
    endloop
  endfacet
  facet normal -0 0 1
    outer loop
      vertex 44.2 0.799999 7
      vertex 45 0 7
      vertex 44.2 38.3 7
    endloop
  endfacet
  facet normal -0 0 1
    outer loop
      vertex 6.7 0.799999 7
      vertex 45 0 7
      vertex 44.2 0.799999 7
    endloop
  endfacet
  facet normal 0 0 1
    outer loop
      vertex 5.9 0.799999 7
      vertex 6.7 0.799999 7
      vertex 5.9 2.55 7
    endloop
  endfacet
  facet normal 0 0 1
    outer loop
      vertex 0 0 7
      vertex 6.7 0.799999 7
      vertex 5.9 0.799999 7
    endloop
  endfacet
  facet normal 0 0 1
    outer loop
      vertex 0 0 7
      vertex 5.9 0.799999 7
      vertex 0.799999 0.799999 7
    endloop
  endfacet
  facet normal 0 0 1
    outer loop
      vertex 6.7 0.799999 7
      vertex 0 0 7
      vertex 45 0 7
    endloop
  endfacet
  facet normal 0 0 1
    outer loop
      vertex 0.799999 5.9 7
      vertex 0 0 7
      vertex 0.799999 0.799999 7
    endloop
  endfacet
  facet normal 0 0 1
    outer loop
      vertex 39.1 42.45 7
      vertex 38.3 44.2 7
      vertex 38.3 42.45 7
    endloop
  endfacet
  facet normal -0 0 1
    outer loop
      vertex 0.799999 6.7 7
      vertex 2.55 5.9 7
      vertex 2.55 6.7 7
    endloop
  endfacet
  facet normal 0 0 1
    outer loop
      vertex 2.55 5.9 7
      vertex 0.799999 6.7 7
      vertex 0.799999 5.9 7
    endloop
  endfacet
  facet normal 0 0 1
    outer loop
      vertex 6.7 6.7 7
      vertex 5.9 5.9 7
      vertex 6.7 4.15 7
    endloop
  endfacet
  facet normal -0 0 1
    outer loop
      vertex 4.15 6.7 7
      vertex 5.9 5.9 7
      vertex 6.7 6.7 7
    endloop
  endfacet
  facet normal 0 0 1
    outer loop
      vertex 5.9 5.9 7
      vertex 4.15 6.7 7
      vertex 4.15 5.9 7
    endloop
  endfacet
  facet normal 0 0 1
    outer loop
      vertex 6.7 4.15 7
      vertex 5.9 5.9 7
      vertex 5.9 4.15 7
    endloop
  endfacet
  facet normal 1 -0 0
    outer loop
      vertex 6.7 4.15 7
      vertex 6.7 6.7 1.6
      vertex 6.7 6.7 7
    endloop
  endfacet
  facet normal 1 0 0
    outer loop
      vertex 6.7 6.7 1.6
      vertex 6.7 4.15 7
      vertex 6.7 4.15 1.6
    endloop
  endfacet
  facet normal 1 -0 0
    outer loop
      vertex 6.7 0.799999 7
      vertex 6.7 2.55 1.6
      vertex 6.7 2.55 7
    endloop
  endfacet
  facet normal 1 0 0
    outer loop
      vertex 6.7 2.55 1.6
      vertex 6.7 0.799999 7
      vertex 6.7 0.799999 1.6
    endloop
  endfacet
  facet normal 0 0 -1
    outer loop
      vertex 45 0 0
      vertex 37.5 7.5 0
      vertex 45 45 0
    endloop
  endfacet
  facet normal 0 0 -1
    outer loop
      vertex 45 0 0
      vertex 7.5 7.5 0
      vertex 37.5 7.5 0
    endloop
  endfacet
  facet normal -0 0 -1
    outer loop
      vertex 7.5 7.5 0
      vertex 0 0 0
      vertex 7.5 37.5 0
    endloop
  endfacet
  facet normal 0 0 -1
    outer loop
      vertex 0 0 0
      vertex 7.5 7.5 0
      vertex 45 0 0
    endloop
  endfacet
  facet normal 0 0 -1
    outer loop
      vertex 37.5 37.5 0
      vertex 45 45 0
      vertex 37.5 7.5 0
    endloop
  endfacet
  facet normal 0 0 -1
    outer loop
      vertex 7.5 37.5 0
      vertex 45 45 0
      vertex 37.5 37.5 0
    endloop
  endfacet
  facet normal 0 0 -1
    outer loop
      vertex 7.5 37.5 0
      vertex 0 45 0
      vertex 45 45 0
    endloop
  endfacet
  facet normal 0 0 -1
    outer loop
      vertex 0 45 0
      vertex 7.5 37.5 0
      vertex 0 0 0
    endloop
  endfacet
  facet normal 0 -1 0
    outer loop
      vertex 0 0 0
      vertex 45 0 7
      vertex 0 0 7
    endloop
  endfacet
  facet normal 0 -1 -0
    outer loop
      vertex 45 0 7
      vertex 0 0 0
      vertex 45 0 0
    endloop
  endfacet
  facet normal 0 1 -0
    outer loop
      vertex 6.7 6.7 1.6
      vertex 4.15 6.7 7
      vertex 6.7 6.7 7
    endloop
  endfacet
  facet normal 0 1 0
    outer loop
      vertex 4.15 6.7 7
      vertex 6.7 6.7 1.6
      vertex 4.15 6.7 1.6
    endloop
  endfacet
  facet normal 0 1 -0
    outer loop
      vertex 2.55 6.7 1.6
      vertex 0.799999 6.7 7
      vertex 2.55 6.7 7
    endloop
  endfacet
  facet normal 0 1 0
    outer loop
      vertex 0.799999 6.7 7
      vertex 2.55 6.7 1.6
      vertex 0.799999 6.7 1.6
    endloop
  endfacet
  facet normal 1 -0 0
    outer loop
      vertex 0.799999 0.799999 7
      vertex 0.799999 5.9 1.6
      vertex 0.799999 5.9 7
    endloop
  endfacet
  facet normal 1 0 0
    outer loop
      vertex 0.799999 5.9 1.6
      vertex 0.799999 0.799999 7
      vertex 0.799999 0.799999 1.6
    endloop
  endfacet
  facet normal 1 -0 0
    outer loop
      vertex 0.799999 6.7 7
      vertex 0.799999 44.2 1.6
      vertex 0.799999 44.2 7
    endloop
  endfacet
  facet normal 1 0 0
    outer loop
      vertex 0.799999 44.2 1.6
      vertex 0.799999 6.7 7
      vertex 0.799999 6.7 1.6
    endloop
  endfacet
  facet normal -1 0 0
    outer loop
      vertex 5.9 0.799999 1.6
      vertex 5.9 2.55 7
      vertex 5.9 2.55 1.6
    endloop
  endfacet
  facet normal -1 -0 0
    outer loop
      vertex 5.9 2.55 7
      vertex 5.9 0.799999 1.6
      vertex 5.9 0.799999 7
    endloop
  endfacet
  facet normal -1 0 0
    outer loop
      vertex 5.9 4.15 1.6
      vertex 5.9 5.9 7
      vertex 5.9 5.9 1.6
    endloop
  endfacet
  facet normal -1 -0 0
    outer loop
      vertex 5.9 5.9 7
      vertex 5.9 4.15 1.6
      vertex 5.9 4.15 7
    endloop
  endfacet
  facet normal 0 -1 0
    outer loop
      vertex 0.799999 5.9 1.6
      vertex 2.55 5.9 7
      vertex 0.799999 5.9 7
    endloop
  endfacet
  facet normal 0 -1 -0
    outer loop
      vertex 2.55 5.9 7
      vertex 0.799999 5.9 1.6
      vertex 2.55 5.9 1.6
    endloop
  endfacet
  facet normal 0 -1 0
    outer loop
      vertex 4.15 5.9 1.6
      vertex 5.9 5.9 7
      vertex 4.15 5.9 7
    endloop
  endfacet
  facet normal 0 -1 -0
    outer loop
      vertex 5.9 5.9 7
      vertex 4.15 5.9 1.6
      vertex 5.9 5.9 1.6
    endloop
  endfacet
  facet normal -0 0 1
    outer loop
      vertex 42.45 44.2 1.6
      vertex 44.2 42.45 1.6
      vertex 44.2 44.2 1.6
    endloop
  endfacet
  facet normal 0 0 1
    outer loop
      vertex 44.2 42.45 1.6
      vertex 42.45 44.2 1.6
      vertex 44.2 40.85 1.6
    endloop
  endfacet
  facet normal 0 0 1
    outer loop
      vertex 42.45 39.1 1.6
      vertex 44.2 40.85 1.6
      vertex 42.45 44.2 1.6
    endloop
  endfacet
  facet normal 0 0 1
    outer loop
      vertex 44.2 40.85 1.6
      vertex 42.45 39.1 1.6
      vertex 44.2 39.1 1.6
    endloop
  endfacet
  facet normal 0 0 1
    outer loop
      vertex 40.85 39.1 1.6
      vertex 42.45 39.1 1.6
      vertex 42.45 44.2 1.6
    endloop
  endfacet
  facet normal 0 0 1
    outer loop
      vertex 40.85 39.1 1.6
      vertex 42.45 44.2 1.6
      vertex 40.85 44.2 1.6
    endloop
  endfacet
  facet normal 0 0 1
    outer loop
      vertex 37.5 7.5 1.6
      vertex 44.2 38.3 1.6
      vertex 42.45 38.3 1.6
    endloop
  endfacet
  facet normal 0 0 1
    outer loop
      vertex 42.45 39.1 1.6
      vertex 40.85 39.1 1.6
      vertex 42.45 38.3 1.6
    endloop
  endfacet
  facet normal 0 0 1
    outer loop
      vertex 40.85 38.3 1.6
      vertex 42.45 38.3 1.6
      vertex 40.85 39.1 1.6
    endloop
  endfacet
  facet normal 0 0 1
    outer loop
      vertex 37.5 37.5 1.6
      vertex 42.45 38.3 1.6
      vertex 40.85 38.3 1.6
    endloop
  endfacet
  facet normal 0 0 1
    outer loop
      vertex 37.5 37.5 1.6
      vertex 40.85 38.3 1.6
      vertex 38.3 38.3 1.6
    endloop
  endfacet
  facet normal 0 0 1
    outer loop
      vertex 42.45 38.3 1.6
      vertex 37.5 37.5 1.6
      vertex 37.5 7.5 1.6
    endloop
  endfacet
  facet normal 0 0 1
    outer loop
      vertex 44.2 38.3 1.6
      vertex 37.5 7.5 1.6
      vertex 44.2 0.799999 1.6
    endloop
  endfacet
  facet normal 0 0 1
    outer loop
      vertex 6.7 2.55 1.6
      vertex 37.5 7.5 1.6
      vertex 7.5 7.5 1.6
    endloop
  endfacet
  facet normal 0 0 1
    outer loop
      vertex 6.7 4.15 1.6
      vertex 7.5 7.5 1.6
      vertex 6.7 6.7 1.6
    endloop
  endfacet
  facet normal 0 0 1
    outer loop
      vertex 6.7 2.55 1.6
      vertex 7.5 7.5 1.6
      vertex 6.7 4.15 1.6
    endloop
  endfacet
  facet normal 0 0 1
    outer loop
      vertex 6.7 0.799999 1.6
      vertex 37.5 7.5 1.6
      vertex 6.7 2.55 1.6
    endloop
  endfacet
  facet normal 0 0 1
    outer loop
      vertex 37.5 7.5 1.6
      vertex 6.7 0.799999 1.6
      vertex 44.2 0.799999 1.6
    endloop
  endfacet
  facet normal -0 0 1
    outer loop
      vertex 4.15 5.9 1.6
      vertex 5.9 4.15 1.6
      vertex 5.9 5.9 1.6
    endloop
  endfacet
  facet normal 0 0 1
    outer loop
      vertex 5.9 4.15 1.6
      vertex 4.15 5.9 1.6
      vertex 5.9 2.55 1.6
    endloop
  endfacet
  facet normal -0 0 1
    outer loop
      vertex 2.55 5.9 1.6
      vertex 5.9 2.55 1.6
      vertex 4.15 5.9 1.6
    endloop
  endfacet
  facet normal 0 0 1
    outer loop
      vertex 2.55 5.9 1.6
      vertex 4.15 5.9 1.6
      vertex 2.55 6.7 1.6
    endloop
  endfacet
  facet normal 0 0 1
    outer loop
      vertex 0.799999 0.799999 1.6
      vertex 5.9 2.55 1.6
      vertex 2.55 5.9 1.6
    endloop
  endfacet
  facet normal 0 0 1
    outer loop
      vertex 0.799999 0.799999 1.6
      vertex 2.55 5.9 1.6
      vertex 0.799999 5.9 1.6
    endloop
  endfacet
  facet normal 0 0 1
    outer loop
      vertex 5.9 2.55 1.6
      vertex 0.799999 0.799999 1.6
      vertex 5.9 0.799999 1.6
    endloop
  endfacet
  facet normal -0 0 1
    outer loop
      vertex 5.9 4.15 1.6
      vertex 6.7 2.55 1.6
      vertex 6.7 4.15 1.6
    endloop
  endfacet
  facet normal 0 0 1
    outer loop
      vertex 6.7 2.55 1.6
      vertex 5.9 4.15 1.6
      vertex 5.9 2.55 1.6
    endloop
  endfacet
  facet normal 0 0 1
    outer loop
      vertex 7.5 37.5 1.6
      vertex 38.3 42.45 1.6
      vertex 38.3 44.2 1.6
    endloop
  endfacet
  facet normal 0 0 1
    outer loop
      vertex 38.3 42.45 1.6
      vertex 37.5 37.5 1.6
      vertex 38.3 40.85 1.6
    endloop
  endfacet
  facet normal 0 0 1
    outer loop
      vertex 38.3 40.85 1.6
      vertex 37.5 37.5 1.6
      vertex 38.3 38.3 1.6
    endloop
  endfacet
  facet normal 0 0 1
    outer loop
      vertex 38.3 42.45 1.6
      vertex 7.5 37.5 1.6
      vertex 37.5 37.5 1.6
    endloop
  endfacet
  facet normal 0 0 1
    outer loop
      vertex 2.55 6.7 1.6
      vertex 7.5 7.5 1.6
      vertex 7.5 37.5 1.6
    endloop
  endfacet
  facet normal 0 0 1
    outer loop
      vertex 7.5 7.5 1.6
      vertex 4.15 6.7 1.6
      vertex 6.7 6.7 1.6
    endloop
  endfacet
  facet normal 0 0 1
    outer loop
      vertex 4.15 6.7 1.6
      vertex 2.55 6.7 1.6
      vertex 4.15 5.9 1.6
    endloop
  endfacet
  facet normal 0 0 1
    outer loop
      vertex 7.5 7.5 1.6
      vertex 2.55 6.7 1.6
      vertex 4.15 6.7 1.6
    endloop
  endfacet
  facet normal -0 0 1
    outer loop
      vertex 0.799999 44.2 1.6
      vertex 7.5 37.5 1.6
      vertex 38.3 44.2 1.6
    endloop
  endfacet
  facet normal 0 0 1
    outer loop
      vertex 0.799999 6.7 1.6
      vertex 7.5 37.5 1.6
      vertex 0.799999 44.2 1.6
    endloop
  endfacet
  facet normal 0 0 1
    outer loop
      vertex 7.5 37.5 1.6
      vertex 0.799999 6.7 1.6
      vertex 2.55 6.7 1.6
    endloop
  endfacet
  facet normal -0 0 1
    outer loop
      vertex 38.3 42.45 1.6
      vertex 39.1 40.85 1.6
      vertex 39.1 42.45 1.6
    endloop
  endfacet
  facet normal 0 0 1
    outer loop
      vertex 39.1 40.85 1.6
      vertex 38.3 42.45 1.6
      vertex 38.3 40.85 1.6
    endloop
  endfacet
  facet normal 0 0 1
    outer loop
      vertex 39.1 42.45 1.6
      vertex 40.85 44.2 1.6
      vertex 39.1 44.2 1.6
    endloop
  endfacet
  facet normal 0 0 1
    outer loop
      vertex 40.85 44.2 1.6
      vertex 39.1 42.45 1.6
      vertex 40.85 39.1 1.6
    endloop
  endfacet
  facet normal -0 0 1
    outer loop
      vertex 39.1 40.85 1.6
      vertex 40.85 39.1 1.6
      vertex 39.1 42.45 1.6
    endloop
  endfacet
  facet normal 0 0 1
    outer loop
      vertex 40.85 39.1 1.6
      vertex 39.1 40.85 1.6
      vertex 39.1 39.1 1.6
    endloop
  endfacet
  facet normal 0 1 -0
    outer loop
      vertex 5.9 0.799999 1.6
      vertex 0.799999 0.799999 7
      vertex 5.9 0.799999 7
    endloop
  endfacet
  facet normal 0 1 0
    outer loop
      vertex 0.799999 0.799999 7
      vertex 5.9 0.799999 1.6
      vertex 0.799999 0.799999 1.6
    endloop
  endfacet
  facet normal 0 1 -0
    outer loop
      vertex 44.2 0.799999 1.6
      vertex 6.7 0.799999 7
      vertex 44.2 0.799999 7
    endloop
  endfacet
  facet normal 0 1 0
    outer loop
      vertex 6.7 0.799999 7
      vertex 44.2 0.799999 1.6
      vertex 6.7 0.799999 1.6
    endloop
  endfacet
  facet normal 1 -0 0
    outer loop
      vertex 2.55 5.9 7
      vertex 2.55 6.7 1.6
      vertex 2.55 6.7 7
    endloop
  endfacet
  facet normal 1 0 0
    outer loop
      vertex 2.55 6.7 1.6
      vertex 2.55 5.9 7
      vertex 2.55 5.9 1.6
    endloop
  endfacet
  facet normal -1 0 0
    outer loop
      vertex 4.15 5.9 1.6
      vertex 4.15 6.7 7
      vertex 4.15 6.7 1.6
    endloop
  endfacet
  facet normal -1 -0 0
    outer loop
      vertex 4.15 6.7 7
      vertex 4.15 5.9 1.6
      vertex 4.15 5.9 7
    endloop
  endfacet
  facet normal 0 -1 0
    outer loop
      vertex 5.9 4.15 1.6
      vertex 6.7 4.15 7
      vertex 5.9 4.15 7
    endloop
  endfacet
  facet normal 0 -1 -0
    outer loop
      vertex 6.7 4.15 7
      vertex 5.9 4.15 1.6
      vertex 6.7 4.15 1.6
    endloop
  endfacet
  facet normal 0 1 -0
    outer loop
      vertex 6.7 2.55 1.6
      vertex 5.9 2.55 7
      vertex 6.7 2.55 7
    endloop
  endfacet
  facet normal 0 1 0
    outer loop
      vertex 5.9 2.55 7
      vertex 6.7 2.55 1.6
      vertex 5.9 2.55 1.6
    endloop
  endfacet
  facet normal -0.995741 0 0.0921982
    outer loop
      vertex 10.7 34.3 8
      vertex 13.2 13.2 35
      vertex 13.2 31.8 35
    endloop
  endfacet
  facet normal -0.995741 0 0.0921982
    outer loop
      vertex 13.2 13.2 35
      vertex 10.7 34.3 8
      vertex 10.7 10.7 8
    endloop
  endfacet
  facet normal 0 0 1
    outer loop
      vertex 31.8 31.8 35
      vertex 31.0719 31.0719 35
      vertex 31.8 13.2 35
    endloop
  endfacet
  facet normal 0 0 1
    outer loop
      vertex 31.8 31.8 35
      vertex 13.9281 31.0719 35
      vertex 31.0719 31.0719 35
    endloop
  endfacet
  facet normal 0 0 1
    outer loop
      vertex 13.9281 31.0719 35
      vertex 13.2 31.8 35
      vertex 13.9281 13.9281 35
    endloop
  endfacet
  facet normal -0 0 1
    outer loop
      vertex 13.2 31.8 35
      vertex 13.9281 31.0719 35
      vertex 31.8 31.8 35
    endloop
  endfacet
  facet normal -0 0 1
    outer loop
      vertex 31.0719 13.9281 35
      vertex 31.8 13.2 35
      vertex 31.0719 31.0719 35
    endloop
  endfacet
  facet normal -0 0 1
    outer loop
      vertex 13.9281 13.9281 35
      vertex 31.8 13.2 35
      vertex 31.0719 13.9281 35
    endloop
  endfacet
  facet normal 0 0 1
    outer loop
      vertex 13.9281 13.9281 35
      vertex 13.2 13.2 35
      vertex 31.8 13.2 35
    endloop
  endfacet
  facet normal 0 0 1
    outer loop
      vertex 13.2 13.2 35
      vertex 13.9281 13.9281 35
      vertex 13.2 31.8 35
    endloop
  endfacet
  facet normal 0 0.995741 0.0921982
    outer loop
      vertex 34.3 34.3 8
      vertex 13.2 31.8 35
      vertex 31.8 31.8 35
    endloop
  endfacet
  facet normal 0 0.995741 0.0921982
    outer loop
      vertex 13.2 31.8 35
      vertex 34.3 34.3 8
      vertex 10.7 34.3 8
    endloop
  endfacet
  facet normal 0 -0.995741 0.0921982
    outer loop
      vertex 10.7 10.7 8
      vertex 31.8 13.2 35
      vertex 13.2 13.2 35
    endloop
  endfacet
  facet normal 0 -0.995741 0.0921982
    outer loop
      vertex 31.8 13.2 35
      vertex 10.7 10.7 8
      vertex 34.3 10.7 8
    endloop
  endfacet
  facet normal 0.995741 -0 0.0921982
    outer loop
      vertex 31.8 13.2 35
      vertex 34.3 34.3 8
      vertex 31.8 31.8 35
    endloop
  endfacet
  facet normal 0.995741 0 0.0921982
    outer loop
      vertex 34.3 34.3 8
      vertex 31.8 13.2 35
      vertex 34.3 10.7 8
    endloop
  endfacet
  facet normal 0 0.894427 0.447214
    outer loop
      vertex 37.5 37.5 1.6
      vertex 10.7 34.3 8
      vertex 34.3 34.3 8
    endloop
  endfacet
  facet normal 0 0.894427 0.447214
    outer loop
      vertex 10.7 34.3 8
      vertex 37.5 37.5 1.6
      vertex 7.5 37.5 1.6
    endloop
  endfacet
  facet normal -0.894427 0 0.447214
    outer loop
      vertex 7.5 37.5 1.6
      vertex 10.7 10.7 8
      vertex 10.7 34.3 8
    endloop
  endfacet
  facet normal -0.894427 0 0.447214
    outer loop
      vertex 10.7 10.7 8
      vertex 7.5 37.5 1.6
      vertex 7.5 7.5 1.6
    endloop
  endfacet
  facet normal 0 -0.894427 0.447214
    outer loop
      vertex 7.5 7.5 1.6
      vertex 34.3 10.7 8
      vertex 10.7 10.7 8
    endloop
  endfacet
  facet normal 0 -0.894427 0.447214
    outer loop
      vertex 34.3 10.7 8
      vertex 7.5 7.5 1.6
      vertex 37.5 7.5 1.6
    endloop
  endfacet
  facet normal 0.894427 -0 0.447214
    outer loop
      vertex 34.3 10.7 8
      vertex 37.5 37.5 1.6
      vertex 34.3 34.3 8
    endloop
  endfacet
  facet normal 0.894427 0 0.447214
    outer loop
      vertex 37.5 37.5 1.6
      vertex 34.3 10.7 8
      vertex 37.5 7.5 1.6
    endloop
  endfacet
  facet normal 0.995981 0 -0.0895666
    outer loop
      vertex 13.9281 13.9281 35
      vertex 11.5 33.5 8
      vertex 13.9281 31.0719 35
    endloop
  endfacet
  facet normal 0.995981 0 -0.0895666
    outer loop
      vertex 11.5 33.5 8
      vertex 13.9281 13.9281 35
      vertex 11.5 11.5 8
    endloop
  endfacet
  facet normal 0 -0.995981 -0.0895666
    outer loop
      vertex 11.5 33.5 8
      vertex 31.0719 31.0719 35
      vertex 13.9281 31.0719 35
    endloop
  endfacet
  facet normal 0 -0.995981 -0.0895666
    outer loop
      vertex 31.0719 31.0719 35
      vertex 11.5 33.5 8
      vertex 33.5 33.5 8
    endloop
  endfacet
  facet normal 0 0.995981 -0.0895666
    outer loop
      vertex 33.5 11.5 8
      vertex 13.9281 13.9281 35
      vertex 31.0719 13.9281 35
    endloop
  endfacet
  facet normal 0 0.995981 -0.0895666
    outer loop
      vertex 13.9281 13.9281 35
      vertex 33.5 11.5 8
      vertex 11.5 11.5 8
    endloop
  endfacet
  facet normal -0.995981 0 -0.0895666
    outer loop
      vertex 33.5 33.5 8
      vertex 31.0719 13.9281 35
      vertex 31.0719 31.0719 35
    endloop
  endfacet
  facet normal -0.995981 0 -0.0895666
    outer loop
      vertex 31.0719 13.9281 35
      vertex 33.5 33.5 8
      vertex 33.5 11.5 8
    endloop
  endfacet
  facet normal 0 -0.894427 -0.447214
    outer loop
      vertex 8.3 36.7 1.6
      vertex 33.5 33.5 8
      vertex 11.5 33.5 8
    endloop
  endfacet
  facet normal 0 -0.894427 -0.447214
    outer loop
      vertex 8.3 36.7 1.6
      vertex 36.7 36.7 1.6
      vertex 33.5 33.5 8
    endloop
  endfacet
  facet normal 0 -0.894427 -0.447213
    outer loop
      vertex 7.5 37.5 0
      vertex 36.7 36.7 1.6
      vertex 8.3 36.7 1.6
    endloop
  endfacet
  facet normal 0 -0.894427 -0.447213
    outer loop
      vertex 36.7 36.7 1.6
      vertex 7.5 37.5 0
      vertex 37.5 37.5 0
    endloop
  endfacet
  facet normal 0.894427 0 -0.447214
    outer loop
      vertex 8.3 8.3 1.6
      vertex 8.3 36.7 1.6
      vertex 11.5 33.5 8
    endloop
  endfacet
  facet normal 0.894427 0 -0.447214
    outer loop
      vertex 8.3 8.3 1.6
      vertex 11.5 33.5 8
      vertex 11.5 11.5 8
    endloop
  endfacet
  facet normal 0.894427 0 -0.447213
    outer loop
      vertex 8.3 36.7 1.6
      vertex 8.3 8.3 1.6
      vertex 7.5 37.5 0
    endloop
  endfacet
  facet normal 0.894427 0 -0.447213
    outer loop
      vertex 7.5 37.5 0
      vertex 8.3 8.3 1.6
      vertex 7.5 7.5 0
    endloop
  endfacet
  facet normal 0 0.894427 -0.447214
    outer loop
      vertex 36.7 8.3 1.6
      vertex 11.5 11.5 8
      vertex 33.5 11.5 8
    endloop
  endfacet
  facet normal 0 0.894427 -0.447214
    outer loop
      vertex 36.7 8.3 1.6
      vertex 8.3 8.3 1.6
      vertex 11.5 11.5 8
    endloop
  endfacet
  facet normal 0 0.894427 -0.447213
    outer loop
      vertex 37.5 7.5 0
      vertex 8.3 8.3 1.6
      vertex 36.7 8.3 1.6
    endloop
  endfacet
  facet normal 0 0.894427 -0.447213
    outer loop
      vertex 8.3 8.3 1.6
      vertex 37.5 7.5 0
      vertex 7.5 7.5 0
    endloop
  endfacet
  facet normal -0.894427 0 -0.447213
    outer loop
      vertex 36.7 8.3 1.6
      vertex 36.7 36.7 1.6
      vertex 37.5 37.5 0
    endloop
  endfacet
  facet normal -0.894427 -0 -0.447214
    outer loop
      vertex 36.7 36.7 1.6
      vertex 36.7 8.3 1.6
      vertex 33.5 33.5 8
    endloop
  endfacet
  facet normal -0.894427 -0 -0.447214
    outer loop
      vertex 33.5 33.5 8
      vertex 36.7 8.3 1.6
      vertex 33.5 11.5 8
    endloop
  endfacet
  facet normal -0.894427 0 -0.447213
    outer loop
      vertex 36.7 8.3 1.6
      vertex 37.5 37.5 0
      vertex 37.5 7.5 0
    endloop
  endfacet
  facet normal 1 -0 0
    outer loop
      vertex 45 0 7
      vertex 45 45 0
      vertex 45 45 7
    endloop
  endfacet
  facet normal 1 0 0
    outer loop
      vertex 45 45 0
      vertex 45 0 7
      vertex 45 0 0
    endloop
  endfacet
  facet normal 0 1 -0
    outer loop
      vertex 45 45 0
      vertex 0 45 7
      vertex 45 45 7
    endloop
  endfacet
  facet normal 0 1 0
    outer loop
      vertex 0 45 7
      vertex 45 45 0
      vertex 0 45 0
    endloop
  endfacet
  facet normal -1 0 0
    outer loop
      vertex 44.2 0.799999 1.6
      vertex 44.2 38.3 7
      vertex 44.2 38.3 1.6
    endloop
  endfacet
  facet normal -1 -0 0
    outer loop
      vertex 44.2 38.3 7
      vertex 44.2 0.799999 1.6
      vertex 44.2 0.799999 7
    endloop
  endfacet
  facet normal -1 0 0
    outer loop
      vertex 44.2 40.85 1.6
      vertex 44.2 42.45 7
      vertex 44.2 42.45 1.6
    endloop
  endfacet
  facet normal -1 -0 0
    outer loop
      vertex 44.2 42.45 7
      vertex 44.2 40.85 1.6
      vertex 44.2 40.85 7
    endloop
  endfacet
  facet normal 0 -1 0
    outer loop
      vertex 0.799999 44.2 1.6
      vertex 38.3 44.2 7
      vertex 0.799999 44.2 7
    endloop
  endfacet
  facet normal 0 -1 -0
    outer loop
      vertex 38.3 44.2 7
      vertex 0.799999 44.2 1.6
      vertex 38.3 44.2 1.6
    endloop
  endfacet
  facet normal 0 -1 0
    outer loop
      vertex 40.85 44.2 1.6
      vertex 42.45 44.2 7
      vertex 40.85 44.2 7
    endloop
  endfacet
  facet normal 0 -1 -0
    outer loop
      vertex 42.45 44.2 7
      vertex 40.85 44.2 1.6
      vertex 42.45 44.2 1.6
    endloop
  endfacet
  facet normal -1 0 0
    outer loop
      vertex 38.3 38.3 1.6
      vertex 38.3 40.85 7
      vertex 38.3 40.85 1.6
    endloop
  endfacet
  facet normal -1 -0 0
    outer loop
      vertex 38.3 40.85 7
      vertex 38.3 38.3 1.6
      vertex 38.3 38.3 7
    endloop
  endfacet
  facet normal -1 0 0
    outer loop
      vertex 38.3 42.45 1.6
      vertex 38.3 44.2 7
      vertex 38.3 44.2 1.6
    endloop
  endfacet
  facet normal -1 -0 0
    outer loop
      vertex 38.3 44.2 7
      vertex 38.3 42.45 1.6
      vertex 38.3 42.45 7
    endloop
  endfacet
  facet normal 0 0 1
    outer loop
      vertex 39.1 40.85 7
      vertex 38.3 40.85 7
      vertex 39.1 39.1 7
    endloop
  endfacet
  facet normal -0 0 1
    outer loop
      vertex 39.1 39.1 7
      vertex 40.85 38.3 7
      vertex 40.85 39.1 7
    endloop
  endfacet
  facet normal 0 0 1
    outer loop
      vertex 39.1 39.1 7
      vertex 38.3 38.3 7
      vertex 40.85 38.3 7
    endloop
  endfacet
  facet normal 0 0 1
    outer loop
      vertex 38.3 38.3 7
      vertex 39.1 39.1 7
      vertex 38.3 40.85 7
    endloop
  endfacet
  facet normal 0 -1 0
    outer loop
      vertex 38.3 38.3 1.6
      vertex 40.85 38.3 7
      vertex 38.3 38.3 7
    endloop
  endfacet
  facet normal 0 -1 -0
    outer loop
      vertex 40.85 38.3 7
      vertex 38.3 38.3 1.6
      vertex 40.85 38.3 1.6
    endloop
  endfacet
  facet normal 0 -1 0
    outer loop
      vertex 42.45 38.3 1.6
      vertex 44.2 38.3 7
      vertex 42.45 38.3 7
    endloop
  endfacet
  facet normal 0 -1 -0
    outer loop
      vertex 44.2 38.3 7
      vertex 42.45 38.3 1.6
      vertex 44.2 38.3 1.6
    endloop
  endfacet
  facet normal 1 -0 0
    outer loop
      vertex 39.1 42.45 7
      vertex 39.1 44.2 1.6
      vertex 39.1 44.2 7
    endloop
  endfacet
  facet normal 1 0 0
    outer loop
      vertex 39.1 44.2 1.6
      vertex 39.1 42.45 7
      vertex 39.1 42.45 1.6
    endloop
  endfacet
  facet normal 1 -0 0
    outer loop
      vertex 39.1 39.1 7
      vertex 39.1 40.85 1.6
      vertex 39.1 40.85 7
    endloop
  endfacet
  facet normal 1 0 0
    outer loop
      vertex 39.1 40.85 1.6
      vertex 39.1 39.1 7
      vertex 39.1 39.1 1.6
    endloop
  endfacet
  facet normal -1 0 0
    outer loop
      vertex 44.2 39.1 1.6
      vertex 44.2 40.85 7
      vertex 44.2 40.85 1.6
    endloop
  endfacet
  facet normal -1 -0 0
    outer loop
      vertex 44.2 40.85 7
      vertex 44.2 39.1 1.6
      vertex 44.2 39.1 7
    endloop
  endfacet
  facet normal -1 0 0
    outer loop
      vertex 44.2 42.45 1.6
      vertex 44.2 44.2 7
      vertex 44.2 44.2 1.6
    endloop
  endfacet
  facet normal -1 -0 0
    outer loop
      vertex 44.2 44.2 7
      vertex 44.2 42.45 1.6
      vertex 44.2 42.45 7
    endloop
  endfacet
  facet normal 0 -1 0
    outer loop
      vertex 39.1 44.2 1.6
      vertex 40.85 44.2 7
      vertex 39.1 44.2 7
    endloop
  endfacet
  facet normal 0 -1 -0
    outer loop
      vertex 40.85 44.2 7
      vertex 39.1 44.2 1.6
      vertex 40.85 44.2 1.6
    endloop
  endfacet
  facet normal 0 -1 0
    outer loop
      vertex 42.45 44.2 1.6
      vertex 44.2 44.2 7
      vertex 42.45 44.2 7
    endloop
  endfacet
  facet normal 0 -1 -0
    outer loop
      vertex 44.2 44.2 7
      vertex 42.45 44.2 1.6
      vertex 44.2 44.2 1.6
    endloop
  endfacet
  facet normal 0 1 -0
    outer loop
      vertex 40.85 39.1 1.6
      vertex 39.1 39.1 7
      vertex 40.85 39.1 7
    endloop
  endfacet
  facet normal 0 1 0
    outer loop
      vertex 39.1 39.1 7
      vertex 40.85 39.1 1.6
      vertex 39.1 39.1 1.6
    endloop
  endfacet
  facet normal 0 1 -0
    outer loop
      vertex 44.2 39.1 1.6
      vertex 42.45 39.1 7
      vertex 44.2 39.1 7
    endloop
  endfacet
  facet normal 0 1 0
    outer loop
      vertex 42.45 39.1 7
      vertex 44.2 39.1 1.6
      vertex 42.45 39.1 1.6
    endloop
  endfacet
  facet normal 1 -0 0
    outer loop
      vertex 40.85 38.3 7
      vertex 40.85 39.1 1.6
      vertex 40.85 39.1 7
    endloop
  endfacet
  facet normal 1 0 0
    outer loop
      vertex 40.85 39.1 1.6
      vertex 40.85 38.3 7
      vertex 40.85 38.3 1.6
    endloop
  endfacet
  facet normal -1 0 0
    outer loop
      vertex 42.45 38.3 1.6
      vertex 42.45 39.1 7
      vertex 42.45 39.1 1.6
    endloop
  endfacet
  facet normal -1 -0 0
    outer loop
      vertex 42.45 39.1 7
      vertex 42.45 38.3 1.6
      vertex 42.45 38.3 7
    endloop
  endfacet
  facet normal 0 -1 0
    outer loop
      vertex 38.3 42.45 1.6
      vertex 39.1 42.45 7
      vertex 38.3 42.45 7
    endloop
  endfacet
  facet normal 0 -1 -0
    outer loop
      vertex 39.1 42.45 7
      vertex 38.3 42.45 1.6
      vertex 39.1 42.45 1.6
    endloop
  endfacet
  facet normal 0 1 -0
    outer loop
      vertex 39.1 40.85 1.6
      vertex 38.3 40.85 7
      vertex 39.1 40.85 7
    endloop
  endfacet
  facet normal 0 1 0
    outer loop
      vertex 38.3 40.85 7
      vertex 39.1 40.85 1.6
      vertex 38.3 40.85 1.6
    endloop
  endfacet
endsolid OpenSCAD_Model
