solid OpenSCAD_Model
  facet normal -0.0320524 0.999486 0
    outer loop
      vertex 0.16492 19.1428 0
      vertex -0.494081 19.1217 10
      vertex 0.16492 19.1428 10
    endloop
  endfacet
  facet normal -0.0320524 0.999486 0
    outer loop
      vertex -0.494081 19.1217 10
      vertex 0.16492 19.1428 0
      vertex -0.494081 19.1217 0
    endloop
  endfacet
  facet normal 0.6723 0.740278 -0
    outer loop
      vertex 3.69623 17.5796 0
      vertex 3.20814 18.0229 10
      vertex 3.69623 17.5796 10
    endloop
  endfacet
  facet normal 0.6723 0.740278 0
    outer loop
      vertex 3.20814 18.0229 10
      vertex 3.69623 17.5796 0
      vertex 3.20814 18.0229 0
    endloop
  endfacet
  facet normal -0.718349 0.695683 0
    outer loop
      vertex -3.91798 17.3354 0
      vertex -3.45929 17.8091 10
      vertex -3.45929 17.8091 0
    endloop
  endfacet
  facet normal -0.718349 0.695683 0
    outer loop
      vertex -3.45929 17.8091 10
      vertex -3.91798 17.3354 0
      vertex -3.91798 17.3354 10
    endloop
  endfacet
  facet normal -0.404782 0.914413 0
    outer loop
      vertex -1.77706 18.8288 0
      vertex -2.37997 18.562 10
      vertex -1.77706 18.8288 10
    endloop
  endfacet
  facet normal -0.404782 0.914413 0
    outer loop
      vertex -2.37997 18.562 10
      vertex -1.77706 18.8288 0
      vertex -2.37997 18.562 0
    endloop
  endfacet
  facet normal 0 0 -1
    outer loop
      vertex -0.954545 0 0
      vertex -3.27146 1.62232 0
      vertex -1.30184 1.96962 0
    endloop
  endfacet
  facet normal -0 0 -1
    outer loop
      vertex -3.27146 1.62232 0
      vertex -5.38618 -0.781417 0
      vertex -4.88639 10.781 0
    endloop
  endfacet
  facet normal 0 0 -1
    outer loop
      vertex -5.38618 -0.781417 0
      vertex -3.27146 1.62232 0
      vertex -0.954545 0 0
    endloop
  endfacet
  facet normal 0 0 -1
    outer loop
      vertex -2.69967 16.2983 0
      vertex -3.99343 17.2343 0
      vertex -3.91798 17.3354 0
    endloop
  endfacet
  facet normal 0 0 -1
    outer loop
      vertex -4.88639 10.781 0
      vertex -3.50649 14.4728 0
      vertex -2.91677 11.1283 0
    endloop
  endfacet
  facet normal 0 0 -1
    outer loop
      vertex -4.88639 10.781 0
      vertex -3.99343 17.2343 0
      vertex -3.50649 14.4728 0
    endloop
  endfacet
  facet normal 0 0 -1
    outer loop
      vertex -14.0686 48.459 0
      vertex -3.99343 17.2343 0
      vertex -4.88639 10.781 0
    endloop
  endfacet
  facet normal 0 0 -1
    outer loop
      vertex -14.0686 48.459 0
      vertex -4.88639 10.781 0
      vertex -5.38618 -0.781417 0
    endloop
  endfacet
  facet normal 0 0 -1
    outer loop
      vertex -3.99343 17.2343 0
      vertex -14.0686 48.459 0
      vertex -9.63695 49.2404 0
    endloop
  endfacet
  facet normal 0 0 -1
    outer loop
      vertex 5.38618 -0.781417 0
      vertex 3.27146 1.62232 0
      vertex 4.88639 10.781 0
    endloop
  endfacet
  facet normal 0 0 -1
    outer loop
      vertex 0.954545 0 0
      vertex 3.27146 1.62232 0
      vertex 5.38618 -0.781417 0
    endloop
  endfacet
  facet normal -0 0 -1
    outer loop
      vertex 3.27146 1.62232 0
      vertex 0.954545 0 0
      vertex 1.30184 1.96962 0
    endloop
  endfacet
  facet normal 0 0 -1
    outer loop
      vertex 4.88639 10.781 0
      vertex 14.0686 48.459 0
      vertex 5.38618 -0.781417 0
    endloop
  endfacet
  facet normal 0 0 -1
    outer loop
      vertex 3.99286 17.2312 0
      vertex 14.0686 48.459 0
      vertex 4.88639 10.781 0
    endloop
  endfacet
  facet normal -0 0 -1
    outer loop
      vertex 14.0686 48.459 0
      vertex 3.99286 17.2312 0
      vertex 9.63695 49.2404 0
    endloop
  endfacet
  facet normal 0 0 -1
    outer loop
      vertex 3.50938 14.4892 0
      vertex 3.99286 17.2312 0
      vertex 4.88639 10.781 0
    endloop
  endfacet
  facet normal 0 0 -1
    outer loop
      vertex 3.4295 14.8993 0
      vertex 3.99286 17.2312 0
      vertex 3.50938 14.4892 0
    endloop
  endfacet
  facet normal 0 -0 -1
    outer loop
      vertex 3.50938 14.4892 0
      vertex 4.88639 10.781 0
      vertex 2.91677 11.1283 0
    endloop
  endfacet
  facet normal 0 0 -1
    outer loop
      vertex 3.28634 15.3305 0
      vertex 3.99286 17.2312 0
      vertex 3.4295 14.8993 0
    endloop
  endfacet
  facet normal 0 0 -1
    outer loop
      vertex 3.08922 15.7398 0
      vertex 3.99286 17.2312 0
      vertex 3.28634 15.3305 0
    endloop
  endfacet
  facet normal 0 0 -1
    outer loop
      vertex 2.84138 16.1206 0
      vertex 3.99286 17.2312 0
      vertex 3.08922 15.7398 0
    endloop
  endfacet
  facet normal 0 0 -1
    outer loop
      vertex 2.54687 16.4665 0
      vertex 3.99286 17.2312 0
      vertex 2.84138 16.1206 0
    endloop
  endfacet
  facet normal -0 0 -1
    outer loop
      vertex 3.99286 17.2312 0
      vertex 2.54687 16.4665 0
      vertex 3.69623 17.5796 0
    endloop
  endfacet
  facet normal -0 0 -1
    outer loop
      vertex 3.69623 17.5796 0
      vertex 2.54687 16.4665 0
      vertex 3.20814 18.0229 0
    endloop
  endfacet
  facet normal 0 0 -1
    outer loop
      vertex 2.21055 16.7719 0
      vertex 3.20814 18.0229 0
      vertex 2.54687 16.4665 0
    endloop
  endfacet
  facet normal -0 0 -1
    outer loop
      vertex 3.20814 18.0229 0
      vertex 2.21055 16.7719 0
      vertex 2.66737 18.4001 0
    endloop
  endfacet
  facet normal 0 0 -1
    outer loop
      vertex 1.83794 17.0319 0
      vertex 2.66737 18.4001 0
      vertex 2.21055 16.7719 0
    endloop
  endfacet
  facet normal -0 0 -1
    outer loop
      vertex 2.66737 18.4001 0
      vertex 1.83794 17.0319 0
      vertex 2.08279 18.7051 0
    endloop
  endfacet
  facet normal 0 0 -1
    outer loop
      vertex 1.43514 17.242 0
      vertex 2.08279 18.7051 0
      vertex 1.83794 17.0319 0
    endloop
  endfacet
  facet normal -0 0 -1
    outer loop
      vertex 2.08279 18.7051 0
      vertex 1.43514 17.242 0
      vertex 1.46402 18.9328 0
    endloop
  endfacet
  facet normal 0 0 -1
    outer loop
      vertex 1.00878 17.3989 0
      vertex 1.46402 18.9328 0
      vertex 1.43514 17.242 0
    endloop
  endfacet
  facet normal 0 0 -1
    outer loop
      vertex 1.00878 17.3989 0
      vertex 0.821214 19.0795 0
      vertex 1.46402 18.9328 0
    endloop
  endfacet
  facet normal 0 0 -1
    outer loop
      vertex 0.565854 17.5 0
      vertex 0.821214 19.0795 0
      vertex 1.00878 17.3989 0
    endloop
  endfacet
  facet normal 0 0 -1
    outer loop
      vertex 0.565854 17.5 0
      vertex 0.16492 19.1428 0
      vertex 0.821214 19.0795 0
    endloop
  endfacet
  facet normal 0 0 -1
    outer loop
      vertex 0.113637 17.5436 0
      vertex 0.16492 19.1428 0
      vertex 0.565854 17.5 0
    endloop
  endfacet
  facet normal 0 0 -1
    outer loop
      vertex -0.340445 17.5291 0
      vertex 0.16492 19.1428 0
      vertex 0.113637 17.5436 0
    endloop
  endfacet
  facet normal 0 0 -1
    outer loop
      vertex -0.340445 17.5291 0
      vertex -0.494081 19.1217 0
      vertex 0.16492 19.1428 0
    endloop
  endfacet
  facet normal 0 0 -1
    outer loop
      vertex -0.788938 17.4566 0
      vertex -0.494081 19.1217 0
      vertex -0.340445 17.5291 0
    endloop
  endfacet
  facet normal 0 0 -1
    outer loop
      vertex -0.788938 17.4566 0
      vertex -1.14497 19.0164 0
      vertex -0.494081 19.1217 0
    endloop
  endfacet
  facet normal 0 0 -1
    outer loop
      vertex -1.22448 17.3273 0
      vertex -1.14497 19.0164 0
      vertex -0.788938 17.4566 0
    endloop
  endfacet
  facet normal 0 0 -1
    outer loop
      vertex -1.77706 18.8288 0
      vertex -1.22448 17.3273 0
      vertex -1.63991 17.1434 0
    endloop
  endfacet
  facet normal 0 0 -1
    outer loop
      vertex -1.22448 17.3273 0
      vertex -1.77706 18.8288 0
      vertex -1.14497 19.0164 0
    endloop
  endfacet
  facet normal 0 0 -1
    outer loop
      vertex -2.37997 18.562 0
      vertex -1.63991 17.1434 0
      vertex -2.02841 16.9079 0
    endloop
  endfacet
  facet normal 0 0 -1
    outer loop
      vertex -1.63991 17.1434 0
      vertex -2.37997 18.562 0
      vertex -1.77706 18.8288 0
    endloop
  endfacet
  facet normal 0 0 -1
    outer loop
      vertex -2.9438 18.2202 0
      vertex -2.02841 16.9079 0
      vertex -2.38361 16.6246 0
    endloop
  endfacet
  facet normal 0 0 -1
    outer loop
      vertex -3.45929 17.8091 0
      vertex -2.38361 16.6246 0
      vertex -2.69967 16.2983 0
    endloop
  endfacet
  facet normal 0 0 -1
    outer loop
      vertex -2.02841 16.9079 0
      vertex -2.9438 18.2202 0
      vertex -2.37997 18.562 0
    endloop
  endfacet
  facet normal 0 0 -1
    outer loop
      vertex -3.99343 17.2343 0
      vertex -2.69967 16.2983 0
      vertex -2.9714 15.9342 0
    endloop
  endfacet
  facet normal 0 0 -1
    outer loop
      vertex -3.99343 17.2343 0
      vertex -2.9714 15.9342 0
      vertex -3.19434 15.5383 0
    endloop
  endfacet
  facet normal 0 0 -1
    outer loop
      vertex -3.99343 17.2343 0
      vertex -3.19434 15.5383 0
      vertex -3.36483 15.1172 0
    endloop
  endfacet
  facet normal 0 0 -1
    outer loop
      vertex -2.38361 16.6246 0
      vertex -3.45929 17.8091 0
      vertex -2.9438 18.2202 0
    endloop
  endfacet
  facet normal 0 0 -1
    outer loop
      vertex -3.99343 17.2343 0
      vertex -3.36483 15.1172 0
      vertex -3.48007 14.6777 0
    endloop
  endfacet
  facet normal 0 0 -1
    outer loop
      vertex -3.99343 17.2343 0
      vertex -3.48007 14.6777 0
      vertex -3.50649 14.4728 0
    endloop
  endfacet
  facet normal 0 0 -1
    outer loop
      vertex -2.69967 16.2983 0
      vertex -3.91798 17.3354 0
      vertex -3.45929 17.8091 0
    endloop
  endfacet
  facet normal 0.345367 0.938468 -0
    outer loop
      vertex 2.08279 18.7051 0
      vertex 1.46402 18.9328 10
      vertex 2.08279 18.7051 10
    endloop
  endfacet
  facet normal 0.345367 0.938468 0
    outer loop
      vertex 1.46402 18.9328 10
      vertex 2.08279 18.7051 0
      vertex 1.46402 18.9328 0
    endloop
  endfacet
  facet normal 0.572117 0.820172 -0
    outer loop
      vertex 3.20814 18.0229 0
      vertex 2.66737 18.4001 10
      vertex 3.20814 18.0229 10
    endloop
  endfacet
  facet normal 0.572117 0.820172 0
    outer loop
      vertex 2.66737 18.4001 10
      vertex 3.20814 18.0229 0
      vertex 2.66737 18.4001 0
    endloop
  endfacet
  facet normal -0.801414 0.59811 0
    outer loop
      vertex -3.99343 17.2343 0
      vertex -3.91798 17.3354 10
      vertex -3.91798 17.3354 0
    endloop
  endfacet
  facet normal -0.801414 0.59811 0
    outer loop
      vertex -3.91798 17.3354 10
      vertex -3.99343 17.2343 0
      vertex -3.99343 17.2343 10
    endloop
  endfacet
  facet normal -0.159599 0.987182 0
    outer loop
      vertex -0.494081 19.1217 0
      vertex -1.14497 19.0164 10
      vertex -0.494081 19.1217 10
    endloop
  endfacet
  facet normal -0.159599 0.987182 0
    outer loop
      vertex -1.14497 19.0164 10
      vertex -0.494081 19.1217 0
      vertex -1.14497 19.0164 0
    endloop
  endfacet
  facet normal 0.761445 0.648229 0
    outer loop
      vertex 3.99286 17.2312 10
      vertex 3.69623 17.5796 0
      vertex 3.69623 17.5796 10
    endloop
  endfacet
  facet normal 0.761445 0.648229 0
    outer loop
      vertex 3.69623 17.5796 0
      vertex 3.99286 17.2312 10
      vertex 3.99286 17.2312 0
    endloop
  endfacet
  facet normal 0.222521 0.974928 -0
    outer loop
      vertex 1.46402 18.9328 0
      vertex 0.821214 19.0795 10
      vertex 1.46402 18.9328 10
    endloop
  endfacet
  facet normal 0.222521 0.974928 0
    outer loop
      vertex 0.821214 19.0795 10
      vertex 1.46402 18.9328 0
      vertex 0.821214 19.0795 0
    endloop
  endfacet
  facet normal 0.096024 0.995379 -0
    outer loop
      vertex 0.821214 19.0795 0
      vertex 0.16492 19.1428 10
      vertex 0.821214 19.0795 10
    endloop
  endfacet
  facet normal 0.096024 0.995379 0
    outer loop
      vertex 0.16492 19.1428 10
      vertex 0.821214 19.0795 0
      vertex 0.16492 19.1428 0
    endloop
  endfacet
  facet normal 0.462538 0.8866 -0
    outer loop
      vertex 2.66737 18.4001 0
      vertex 2.08279 18.7051 10
      vertex 2.66737 18.4001 10
    endloop
  endfacet
  facet normal 0.462538 0.8866 0
    outer loop
      vertex 2.08279 18.7051 10
      vertex 2.66737 18.4001 0
      vertex 2.08279 18.7051 0
    endloop
  endfacet
  facet normal 0 0 1
    outer loop
      vertex 3.99286 17.2312 10
      vertex 3.4295 14.8993 10
      vertex 3.50938 14.4892 10
    endloop
  endfacet
  facet normal 0 0 1
    outer loop
      vertex 3.99286 17.2312 10
      vertex 3.28634 15.3305 10
      vertex 3.4295 14.8993 10
    endloop
  endfacet
  facet normal 0 0 1
    outer loop
      vertex 2.54687 16.4665 10
      vertex 3.69623 17.5796 10
      vertex 3.20814 18.0229 10
    endloop
  endfacet
  facet normal 0 0 1
    outer loop
      vertex 3.99286 17.2312 10
      vertex 3.08922 15.7398 10
      vertex 3.28634 15.3305 10
    endloop
  endfacet
  facet normal 0 0 1
    outer loop
      vertex 3.99286 17.2312 10
      vertex 2.84138 16.1206 10
      vertex 3.08922 15.7398 10
    endloop
  endfacet
  facet normal 0 0 1
    outer loop
      vertex 2.21055 16.7719 10
      vertex 3.20814 18.0229 10
      vertex 2.66737 18.4001 10
    endloop
  endfacet
  facet normal 0 0 1
    outer loop
      vertex 3.99286 17.2312 10
      vertex 2.54687 16.4665 10
      vertex 2.84138 16.1206 10
    endloop
  endfacet
  facet normal 0 0 1
    outer loop
      vertex 3.20814 18.0229 10
      vertex 2.21055 16.7719 10
      vertex 2.54687 16.4665 10
    endloop
  endfacet
  facet normal 0 0 1
    outer loop
      vertex 1.83794 17.0319 10
      vertex 2.66737 18.4001 10
      vertex 2.08279 18.7051 10
    endloop
  endfacet
  facet normal 0 0 1
    outer loop
      vertex 2.66737 18.4001 10
      vertex 1.83794 17.0319 10
      vertex 2.21055 16.7719 10
    endloop
  endfacet
  facet normal 0 0 1
    outer loop
      vertex 1.43514 17.242 10
      vertex 2.08279 18.7051 10
      vertex 1.46402 18.9328 10
    endloop
  endfacet
  facet normal 0 0 1
    outer loop
      vertex 2.08279 18.7051 10
      vertex 1.43514 17.242 10
      vertex 1.83794 17.0319 10
    endloop
  endfacet
  facet normal 0 0 1
    outer loop
      vertex 1.46402 18.9328 10
      vertex 1.00878 17.3989 10
      vertex 1.43514 17.242 10
    endloop
  endfacet
  facet normal 0 0 1
    outer loop
      vertex 0.821214 19.0795 10
      vertex 1.00878 17.3989 10
      vertex 1.46402 18.9328 10
    endloop
  endfacet
  facet normal 0 0 1
    outer loop
      vertex 0.821214 19.0795 10
      vertex 0.565854 17.5 10
      vertex 1.00878 17.3989 10
    endloop
  endfacet
  facet normal 0 0 1
    outer loop
      vertex 0.16492 19.1428 10
      vertex 0.565854 17.5 10
      vertex 0.821214 19.0795 10
    endloop
  endfacet
  facet normal 0 0 1
    outer loop
      vertex 0.16492 19.1428 10
      vertex 0.113637 17.5436 10
      vertex 0.565854 17.5 10
    endloop
  endfacet
  facet normal 0 0 1
    outer loop
      vertex 0.16492 19.1428 10
      vertex -0.340445 17.5291 10
      vertex 0.113637 17.5436 10
    endloop
  endfacet
  facet normal -0 0 1
    outer loop
      vertex -0.494081 19.1217 10
      vertex -0.340445 17.5291 10
      vertex 0.16492 19.1428 10
    endloop
  endfacet
  facet normal 0 0 1
    outer loop
      vertex -0.494081 19.1217 10
      vertex -0.788938 17.4566 10
      vertex -0.340445 17.5291 10
    endloop
  endfacet
  facet normal -0 0 1
    outer loop
      vertex -1.14497 19.0164 10
      vertex -0.788938 17.4566 10
      vertex -0.494081 19.1217 10
    endloop
  endfacet
  facet normal 0 0 1
    outer loop
      vertex -1.14497 19.0164 10
      vertex -1.22448 17.3273 10
      vertex -0.788938 17.4566 10
    endloop
  endfacet
  facet normal -0 0 1
    outer loop
      vertex -1.77706 18.8288 10
      vertex -1.22448 17.3273 10
      vertex -1.14497 19.0164 10
    endloop
  endfacet
  facet normal 0 0 1
    outer loop
      vertex -1.22448 17.3273 10
      vertex -1.77706 18.8288 10
      vertex -1.63991 17.1434 10
    endloop
  endfacet
  facet normal -0 0 1
    outer loop
      vertex -2.37997 18.562 10
      vertex -1.63991 17.1434 10
      vertex -1.77706 18.8288 10
    endloop
  endfacet
  facet normal 0 0 1
    outer loop
      vertex -1.63991 17.1434 10
      vertex -2.37997 18.562 10
      vertex -2.02841 16.9079 10
    endloop
  endfacet
  facet normal -0 0 1
    outer loop
      vertex -2.9438 18.2202 10
      vertex -2.02841 16.9079 10
      vertex -2.37997 18.562 10
    endloop
  endfacet
  facet normal 0 0 1
    outer loop
      vertex -2.02841 16.9079 10
      vertex -2.9438 18.2202 10
      vertex -2.38361 16.6246 10
    endloop
  endfacet
  facet normal -0 0 1
    outer loop
      vertex -3.45929 17.8091 10
      vertex -2.38361 16.6246 10
      vertex -2.9438 18.2202 10
    endloop
  endfacet
  facet normal 0 0 1
    outer loop
      vertex -2.38361 16.6246 10
      vertex -3.45929 17.8091 10
      vertex -2.69967 16.2983 10
    endloop
  endfacet
  facet normal -0 0 1
    outer loop
      vertex -3.91798 17.3354 10
      vertex -2.69967 16.2983 10
      vertex -3.45929 17.8091 10
    endloop
  endfacet
  facet normal -0 0 1
    outer loop
      vertex -3.99343 17.2343 10
      vertex -2.69967 16.2983 10
      vertex -3.91798 17.3354 10
    endloop
  endfacet
  facet normal 0 0 1
    outer loop
      vertex -2.69967 16.2983 10
      vertex -3.99343 17.2343 10
      vertex -2.9714 15.9342 10
    endloop
  endfacet
  facet normal 0 0 1
    outer loop
      vertex -2.9714 15.9342 10
      vertex -3.99343 17.2343 10
      vertex -3.19434 15.5383 10
    endloop
  endfacet
  facet normal 0 0 1
    outer loop
      vertex -3.19434 15.5383 10
      vertex -3.99343 17.2343 10
      vertex -3.36483 15.1172 10
    endloop
  endfacet
  facet normal 0 0 1
    outer loop
      vertex -3.36483 15.1172 10
      vertex -3.99343 17.2343 10
      vertex -3.48007 14.6777 10
    endloop
  endfacet
  facet normal 0 0 1
    outer loop
      vertex 3.99286 17.2312 10
      vertex 14.0686 48.459 10
      vertex 9.63695 49.2404 10
    endloop
  endfacet
  facet normal 0 0 1
    outer loop
      vertex 14.0686 48.459 10
      vertex 4.88639 10.781 10
      vertex 5.38618 -0.781417 10
    endloop
  endfacet
  facet normal 0 0 1
    outer loop
      vertex 14.0686 48.459 10
      vertex 3.99286 17.2312 10
      vertex 4.88639 10.781 10
    endloop
  endfacet
  facet normal 0 0 1
    outer loop
      vertex 2.54687 16.4665 10
      vertex 3.99286 17.2312 10
      vertex 3.69623 17.5796 10
    endloop
  endfacet
  facet normal 0 0 1
    outer loop
      vertex 3.99286 17.2312 10
      vertex 3.50938 14.4892 10
      vertex 4.88639 10.781 10
    endloop
  endfacet
  facet normal 0 0 1
    outer loop
      vertex 4.88639 10.781 10
      vertex 3.50938 14.4892 10
      vertex 2.91677 11.1283 10
    endloop
  endfacet
  facet normal -0 0 1
    outer loop
      vertex 3.27146 1.62232 10
      vertex 5.38618 -0.781417 10
      vertex 4.88639 10.781 10
    endloop
  endfacet
  facet normal 0 0 1
    outer loop
      vertex 0.954545 0 10
      vertex 3.27146 1.62232 10
      vertex 1.30184 1.96962 10
    endloop
  endfacet
  facet normal 0 0 1
    outer loop
      vertex 3.27146 1.62232 10
      vertex 0.954545 0 10
      vertex 5.38618 -0.781417 10
    endloop
  endfacet
  facet normal 0 0 1
    outer loop
      vertex -3.48007 14.6777 10
      vertex -3.99343 17.2343 10
      vertex -3.50649 14.4728 10
    endloop
  endfacet
  facet normal 0 0 1
    outer loop
      vertex -3.50649 14.4728 10
      vertex -4.88639 10.781 10
      vertex -2.91677 11.1283 10
    endloop
  endfacet
  facet normal 0 0 1
    outer loop
      vertex -3.99343 17.2343 10
      vertex -4.88639 10.781 10
      vertex -3.50649 14.4728 10
    endloop
  endfacet
  facet normal -0 0 1
    outer loop
      vertex -14.0686 48.459 10
      vertex -3.99343 17.2343 10
      vertex -9.63695 49.2404 10
    endloop
  endfacet
  facet normal 0 0 1
    outer loop
      vertex -3.99343 17.2343 10
      vertex -14.0686 48.459 10
      vertex -4.88639 10.781 10
    endloop
  endfacet
  facet normal 0 0 1
    outer loop
      vertex -4.88639 10.781 10
      vertex -14.0686 48.459 10
      vertex -5.38618 -0.781417 10
    endloop
  endfacet
  facet normal -0 0 1
    outer loop
      vertex -3.27146 1.62232 10
      vertex -0.954545 0 10
      vertex -1.30184 1.96962 10
    endloop
  endfacet
  facet normal 0 0 1
    outer loop
      vertex -3.27146 1.62232 10
      vertex -5.38618 -0.781417 10
      vertex -0.954545 0 10
    endloop
  endfacet
  facet normal 0 0 1
    outer loop
      vertex -5.38618 -0.781417 10
      vertex -3.27146 1.62232 10
      vertex -4.88639 10.781 10
    endloop
  endfacet
  facet normal -0.518394 0.855142 0
    outer loop
      vertex -2.37997 18.562 0
      vertex -2.9438 18.2202 10
      vertex -2.37997 18.562 10
    endloop
  endfacet
  facet normal -0.518394 0.855142 0
    outer loop
      vertex -2.9438 18.2202 10
      vertex -2.37997 18.562 0
      vertex -2.9438 18.2202 0
    endloop
  endfacet
  facet normal -0.623488 0.781833 0
    outer loop
      vertex -2.9438 18.2202 0
      vertex -3.45929 17.8091 10
      vertex -2.9438 18.2202 10
    endloop
  endfacet
  facet normal -0.623488 0.781833 0
    outer loop
      vertex -3.45929 17.8091 10
      vertex -2.9438 18.2202 0
      vertex -3.45929 17.8091 0
    endloop
  endfacet
  facet normal -0.284528 0.958668 0
    outer loop
      vertex -1.14497 19.0164 0
      vertex -1.77706 18.8288 10
      vertex -1.14497 19.0164 10
    endloop
  endfacet
  facet normal -0.284528 0.958668 0
    outer loop
      vertex -1.77706 18.8288 10
      vertex -1.14497 19.0164 0
      vertex -1.77706 18.8288 0
    endloop
  endfacet
  facet normal -0.572114 -0.820174 0
    outer loop
      vertex 1.83794 17.0319 0
      vertex 2.21055 16.7719 10
      vertex 1.83794 17.0319 10
    endloop
  endfacet
  facet normal -0.572114 -0.820174 -0
    outer loop
      vertex 2.21055 16.7719 10
      vertex 1.83794 17.0319 0
      vertex 2.21055 16.7719 0
    endloop
  endfacet
  facet normal -0.462542 -0.886598 0
    outer loop
      vertex 1.43514 17.242 0
      vertex 1.83794 17.0319 10
      vertex 1.43514 17.242 10
    endloop
  endfacet
  facet normal -0.462542 -0.886598 -0
    outer loop
      vertex 1.83794 17.0319 10
      vertex 1.43514 17.242 0
      vertex 1.83794 17.0319 0
    endloop
  endfacet
  facet normal 0.404782 -0.914413 0
    outer loop
      vertex -1.63991 17.1434 0
      vertex -1.22448 17.3273 10
      vertex -1.63991 17.1434 10
    endloop
  endfacet
  facet normal 0.404782 -0.914413 0
    outer loop
      vertex -1.22448 17.3273 10
      vertex -1.63991 17.1434 0
      vertex -1.22448 17.3273 0
    endloop
  endfacet
  facet normal 0.926916 -0.375268 0
    outer loop
      vertex -3.36483 15.1172 10
      vertex -3.19434 15.5383 0
      vertex -3.19434 15.5383 10
    endloop
  endfacet
  facet normal 0.926916 -0.375268 0
    outer loop
      vertex -3.19434 15.5383 0
      vertex -3.36483 15.1172 10
      vertex -3.36483 15.1172 0
    endloop
  endfacet
  facet normal -0.949056 -0.315108 0
    outer loop
      vertex 3.4295 14.8993 0
      vertex 3.28634 15.3305 10
      vertex 3.28634 15.3305 0
    endloop
  endfacet
  facet normal -0.949056 -0.315108 0
    outer loop
      vertex 3.28634 15.3305 10
      vertex 3.4295 14.8993 0
      vertex 3.4295 14.8993 10
    endloop
  endfacet
  facet normal -0.838088 -0.545535 0
    outer loop
      vertex 3.08922 15.7398 0
      vertex 2.84138 16.1206 10
      vertex 2.84138 16.1206 0
    endloop
  endfacet
  facet normal -0.838088 -0.545535 0
    outer loop
      vertex 2.84138 16.1206 10
      vertex 3.08922 15.7398 0
      vertex 3.08922 15.7398 10
    endloop
  endfacet
  facet normal -0.761446 -0.648229 0
    outer loop
      vertex 2.84138 16.1206 0
      vertex 2.54687 16.4665 10
      vertex 2.54687 16.4665 0
    endloop
  endfacet
  facet normal -0.761446 -0.648229 0
    outer loop
      vertex 2.54687 16.4665 10
      vertex 2.84138 16.1206 0
      vertex 2.84138 16.1206 10
    endloop
  endfacet
  facet normal -0.345364 -0.938469 0
    outer loop
      vertex 1.00878 17.3989 0
      vertex 1.43514 17.242 10
      vertex 1.00878 17.3989 10
    endloop
  endfacet
  facet normal -0.345364 -0.938469 -0
    outer loop
      vertex 1.43514 17.242 10
      vertex 1.00878 17.3989 0
      vertex 1.43514 17.242 0
    endloop
  endfacet
  facet normal -0.222522 -0.974928 0
    outer loop
      vertex 0.565854 17.5 0
      vertex 1.00878 17.3989 10
      vertex 0.565854 17.5 10
    endloop
  endfacet
  facet normal -0.222522 -0.974928 -0
    outer loop
      vertex 1.00878 17.3989 10
      vertex 0.565854 17.5 0
      vertex 1.00878 17.3989 0
    endloop
  endfacet
  facet normal 0.99179 -0.127878 0
    outer loop
      vertex -3.50649 14.4728 10
      vertex -3.48007 14.6777 0
      vertex -3.48007 14.6777 10
    endloop
  endfacet
  facet normal 0.99179 -0.127878 0
    outer loop
      vertex -3.48007 14.6777 0
      vertex -3.50649 14.4728 10
      vertex -3.50649 14.4728 0
    endloop
  endfacet
  facet normal 0.801413 -0.598111 0
    outer loop
      vertex -2.9714 15.9342 10
      vertex -2.69967 16.2983 0
      vertex -2.69967 16.2983 10
    endloop
  endfacet
  facet normal 0.801413 -0.598111 0
    outer loop
      vertex -2.69967 16.2983 0
      vertex -2.9714 15.9342 10
      vertex -2.9714 15.9342 0
    endloop
  endfacet
  facet normal 0.159602 -0.987181 0
    outer loop
      vertex -0.788938 17.4566 0
      vertex -0.340445 17.5291 10
      vertex -0.788938 17.4566 10
    endloop
  endfacet
  facet normal 0.159602 -0.987181 0
    outer loop
      vertex -0.340445 17.5291 10
      vertex -0.788938 17.4566 0
      vertex -0.340445 17.5291 0
    endloop
  endfacet
  facet normal 0.71835 -0.695682 0
    outer loop
      vertex -2.69967 16.2983 10
      vertex -2.38361 16.6246 0
      vertex -2.38361 16.6246 10
    endloop
  endfacet
  facet normal 0.71835 -0.695682 0
    outer loop
      vertex -2.38361 16.6246 0
      vertex -2.69967 16.2983 10
      vertex -2.69967 16.2983 0
    endloop
  endfacet
  facet normal -0.981559 -0.191159 0
    outer loop
      vertex 3.50938 14.4892 0
      vertex 3.4295 14.8993 10
      vertex 3.4295 14.8993 0
    endloop
  endfacet
  facet normal -0.981559 -0.191159 0
    outer loop
      vertex 3.4295 14.8993 10
      vertex 3.50938 14.4892 0
      vertex 3.50938 14.4892 10
    endloop
  endfacet
  facet normal -0.900969 -0.433884 0
    outer loop
      vertex 3.28634 15.3305 0
      vertex 3.08922 15.7398 10
      vertex 3.08922 15.7398 0
    endloop
  endfacet
  facet normal -0.900969 -0.433884 0
    outer loop
      vertex 3.08922 15.7398 10
      vertex 3.28634 15.3305 0
      vertex 3.28634 15.3305 10
    endloop
  endfacet
  facet normal -0.672301 -0.740278 0
    outer loop
      vertex 2.21055 16.7719 0
      vertex 2.54687 16.4665 10
      vertex 2.21055 16.7719 10
    endloop
  endfacet
  facet normal -0.672301 -0.740278 -0
    outer loop
      vertex 2.54687 16.4665 10
      vertex 2.21055 16.7719 0
      vertex 2.54687 16.4665 0
    endloop
  endfacet
  facet normal 0.0320498 -0.999486 0
    outer loop
      vertex -0.340445 17.5291 0
      vertex 0.113637 17.5436 10
      vertex -0.340445 17.5291 10
    endloop
  endfacet
  facet normal 0.0320498 -0.999486 0
    outer loop
      vertex 0.113637 17.5436 10
      vertex -0.340445 17.5291 0
      vertex 0.113637 17.5436 0
    endloop
  endfacet
  facet normal -0.0960231 -0.995379 0
    outer loop
      vertex 0.113637 17.5436 0
      vertex 0.565854 17.5 10
      vertex 0.113637 17.5436 10
    endloop
  endfacet
  facet normal -0.0960231 -0.995379 -0
    outer loop
      vertex 0.565854 17.5 10
      vertex 0.113637 17.5436 0
      vertex 0.565854 17.5 0
    endloop
  endfacet
  facet normal 0.518395 -0.855141 0
    outer loop
      vertex -2.02841 16.9079 0
      vertex -1.63991 17.1434 10
      vertex -2.02841 16.9079 10
    endloop
  endfacet
  facet normal 0.518395 -0.855141 0
    outer loop
      vertex -1.63991 17.1434 10
      vertex -2.02841 16.9079 0
      vertex -1.63991 17.1434 0
    endloop
  endfacet
  facet normal 0.623488 -0.781833 0
    outer loop
      vertex -2.38361 16.6246 0
      vertex -2.02841 16.9079 10
      vertex -2.38361 16.6246 10
    endloop
  endfacet
  facet normal 0.623488 -0.781833 0
    outer loop
      vertex -2.02841 16.9079 10
      vertex -2.38361 16.6246 0
      vertex -2.02841 16.9079 0
    endloop
  endfacet
  facet normal 0.967295 -0.253654 0
    outer loop
      vertex -3.48007 14.6777 10
      vertex -3.36483 15.1172 0
      vertex -3.36483 15.1172 10
    endloop
  endfacet
  facet normal 0.967295 -0.253654 0
    outer loop
      vertex -3.36483 15.1172 0
      vertex -3.48007 14.6777 10
      vertex -3.48007 14.6777 0
    endloop
  endfacet
  facet normal 0.871319 -0.490717 0
    outer loop
      vertex -3.19434 15.5383 10
      vertex -2.9714 15.9342 0
      vertex -2.9714 15.9342 10
    endloop
  endfacet
  facet normal 0.871319 -0.490717 0
    outer loop
      vertex -2.9714 15.9342 0
      vertex -3.19434 15.5383 10
      vertex -3.19434 15.5383 0
    endloop
  endfacet
  facet normal 0.284526 -0.958668 0
    outer loop
      vertex -1.22448 17.3273 0
      vertex -0.788938 17.4566 10
      vertex -1.22448 17.3273 10
    endloop
  endfacet
  facet normal 0.284526 -0.958668 0
    outer loop
      vertex -0.788938 17.4566 10
      vertex -1.22448 17.3273 0
      vertex -0.788938 17.4566 0
    endloop
  endfacet
  facet normal -0.984808 0.173648 0
    outer loop
      vertex 0.954545 0 0
      vertex 1.30184 1.96962 10
      vertex 1.30184 1.96962 0
    endloop
  endfacet
  facet normal -0.984808 0.173648 0
    outer loop
      vertex 1.30184 1.96962 10
      vertex 0.954545 0 0
      vertex 0.954545 0 10
    endloop
  endfacet
  facet normal -0.984808 0.173648 0
    outer loop
      vertex 3.99286 17.2312 0
      vertex 9.63695 49.2404 10
      vertex 9.63695 49.2404 0
    endloop
  endfacet
  facet normal -0.984808 0.173648 0
    outer loop
      vertex 9.63695 49.2404 10
      vertex 3.99286 17.2312 0
      vertex 3.99286 17.2312 10
    endloop
  endfacet
  facet normal -0.984808 0.173648 0
    outer loop
      vertex 2.91677 11.1283 0
      vertex 3.50938 14.4892 10
      vertex 3.50938 14.4892 0
    endloop
  endfacet
  facet normal -0.984808 0.173648 0
    outer loop
      vertex 3.50938 14.4892 10
      vertex 2.91677 11.1283 0
      vertex 2.91677 11.1283 10
    endloop
  endfacet
  facet normal 0.984808 -0.173648 0
    outer loop
      vertex 5.38618 -0.781417 10
      vertex 14.0686 48.459 0
      vertex 14.0686 48.459 10
    endloop
  endfacet
  facet normal 0.984808 -0.173648 0
    outer loop
      vertex 14.0686 48.459 0
      vertex 5.38618 -0.781417 10
      vertex 5.38618 -0.781417 0
    endloop
  endfacet
  facet normal 0.173648 0.984808 -0
    outer loop
      vertex 14.0686 48.459 0
      vertex 9.63695 49.2404 10
      vertex 14.0686 48.459 10
    endloop
  endfacet
  facet normal 0.173648 0.984808 0
    outer loop
      vertex 9.63695 49.2404 10
      vertex 14.0686 48.459 0
      vertex 9.63695 49.2404 0
    endloop
  endfacet
  facet normal -0.173648 -0.984808 0
    outer loop
      vertex 0.954545 0 0
      vertex 5.38618 -0.781417 10
      vertex 0.954545 0 10
    endloop
  endfacet
  facet normal -0.173648 -0.984808 -0
    outer loop
      vertex 5.38618 -0.781417 10
      vertex 0.954545 0 0
      vertex 5.38618 -0.781417 0
    endloop
  endfacet
  facet normal -0.984808 0.173648 0
    outer loop
      vertex 3.27146 1.62232 0
      vertex 4.88639 10.781 10
      vertex 4.88639 10.781 0
    endloop
  endfacet
  facet normal -0.984808 0.173648 0
    outer loop
      vertex 4.88639 10.781 10
      vertex 3.27146 1.62232 0
      vertex 3.27146 1.62232 10
    endloop
  endfacet
  facet normal -0.173648 -0.984808 0
    outer loop
      vertex 2.91677 11.1283 0
      vertex 4.88639 10.781 10
      vertex 2.91677 11.1283 10
    endloop
  endfacet
  facet normal -0.173648 -0.984808 -0
    outer loop
      vertex 4.88639 10.781 10
      vertex 2.91677 11.1283 0
      vertex 4.88639 10.781 0
    endloop
  endfacet
  facet normal 0.173648 0.984808 -0
    outer loop
      vertex 3.27146 1.62232 0
      vertex 1.30184 1.96962 10
      vertex 3.27146 1.62232 10
    endloop
  endfacet
  facet normal 0.173648 0.984808 0
    outer loop
      vertex 1.30184 1.96962 10
      vertex 3.27146 1.62232 0
      vertex 1.30184 1.96962 0
    endloop
  endfacet
  facet normal 0.984808 0.173648 0
    outer loop
      vertex -0.954545 0 10
      vertex -1.30184 1.96962 0
      vertex -1.30184 1.96962 10
    endloop
  endfacet
  facet normal 0.984808 0.173648 0
    outer loop
      vertex -1.30184 1.96962 0
      vertex -0.954545 0 10
      vertex -0.954545 0 0
    endloop
  endfacet
  facet normal 0.984808 0.173648 0
    outer loop
      vertex -3.99343 17.2343 10
      vertex -9.63695 49.2404 0
      vertex -9.63695 49.2404 10
    endloop
  endfacet
  facet normal 0.984808 0.173648 0
    outer loop
      vertex -9.63695 49.2404 0
      vertex -3.99343 17.2343 10
      vertex -3.99343 17.2343 0
    endloop
  endfacet
  facet normal 0.984808 0.173648 0
    outer loop
      vertex -2.91677 11.1283 10
      vertex -3.50649 14.4728 0
      vertex -3.50649 14.4728 10
    endloop
  endfacet
  facet normal 0.984808 0.173648 0
    outer loop
      vertex -3.50649 14.4728 0
      vertex -2.91677 11.1283 10
      vertex -2.91677 11.1283 0
    endloop
  endfacet
  facet normal -0.984808 -0.173648 0
    outer loop
      vertex -5.38618 -0.781417 0
      vertex -14.0686 48.459 10
      vertex -14.0686 48.459 0
    endloop
  endfacet
  facet normal -0.984808 -0.173648 0
    outer loop
      vertex -14.0686 48.459 10
      vertex -5.38618 -0.781417 0
      vertex -5.38618 -0.781417 10
    endloop
  endfacet
  facet normal -0.173648 0.984808 0
    outer loop
      vertex -9.63695 49.2404 0
      vertex -14.0686 48.459 10
      vertex -9.63695 49.2404 10
    endloop
  endfacet
  facet normal -0.173648 0.984808 0
    outer loop
      vertex -14.0686 48.459 10
      vertex -9.63695 49.2404 0
      vertex -14.0686 48.459 0
    endloop
  endfacet
  facet normal 0.173648 -0.984808 0
    outer loop
      vertex -5.38618 -0.781417 0
      vertex -0.954545 0 10
      vertex -5.38618 -0.781417 10
    endloop
  endfacet
  facet normal 0.173648 -0.984808 0
    outer loop
      vertex -0.954545 0 10
      vertex -5.38618 -0.781417 0
      vertex -0.954545 0 0
    endloop
  endfacet
  facet normal 0.984808 0.173648 0
    outer loop
      vertex -3.27146 1.62232 10
      vertex -4.88639 10.781 0
      vertex -4.88639 10.781 10
    endloop
  endfacet
  facet normal 0.984808 0.173648 0
    outer loop
      vertex -4.88639 10.781 0
      vertex -3.27146 1.62232 10
      vertex -3.27146 1.62232 0
    endloop
  endfacet
  facet normal 0.173648 -0.984808 0
    outer loop
      vertex -4.88639 10.781 0
      vertex -2.91677 11.1283 10
      vertex -4.88639 10.781 10
    endloop
  endfacet
  facet normal 0.173648 -0.984808 0
    outer loop
      vertex -2.91677 11.1283 10
      vertex -4.88639 10.781 0
      vertex -2.91677 11.1283 0
    endloop
  endfacet
  facet normal -0.173648 0.984808 0
    outer loop
      vertex -1.30184 1.96962 0
      vertex -3.27146 1.62232 10
      vertex -1.30184 1.96962 10
    endloop
  endfacet
  facet normal -0.173648 0.984808 0
    outer loop
      vertex -3.27146 1.62232 10
      vertex -1.30184 1.96962 0
      vertex -3.27146 1.62232 0
    endloop
  endfacet
endsolid OpenSCAD_Model
