solid OpenSCAD_Model
  facet normal -0.980785 0.195091 0
    outer loop
      vertex -5 0 0
      vertex -4.6194 1.91342 5
      vertex -4.6194 1.91342 0
    endloop
  endfacet
  facet normal -0.980785 0.195091 0
    outer loop
      vertex -4.6194 1.91342 5
      vertex -5 0 0
      vertex -5 0 5
    endloop
  endfacet
  facet normal -0.195091 0.980785 0
    outer loop
      vertex 0 5 0
      vertex -1.91342 4.6194 5
      vertex 0 5 5
    endloop
  endfacet
  facet normal -0.195091 0.980785 0
    outer loop
      vertex -1.91342 4.6194 5
      vertex 0 5 0
      vertex -1.91342 4.6194 0
    endloop
  endfacet
  facet normal 0 0 1
    outer loop
      vertex 12 0 5
      vertex 13 0 5
      vertex 12.9743 0.391578 5
    endloop
  endfacet
  facet normal 0 0 1
    outer loop
      vertex 11.9829 0.261052 5
      vertex 12.9743 0.391578 5
      vertex 12.8978 0.776457 5
    endloop
  endfacet
  facet normal 0 0 1
    outer loop
      vertex 13 0 5
      vertex 12 0 5
      vertex 12.9743 -0.391578 5
    endloop
  endfacet
  facet normal 0 0 1
    outer loop
      vertex 11.9319 0.517637 5
      vertex 12.8978 0.776457 5
      vertex 12.7716 1.14805 5
    endloop
  endfacet
  facet normal -0 0 1
    outer loop
      vertex 11.9829 -0.261052 5
      vertex 12.9743 -0.391578 5
      vertex 12 0 5
    endloop
  endfacet
  facet normal 0 0 1
    outer loop
      vertex 11.8478 0.765367 5
      vertex 12.7716 1.14805 5
      vertex 12.5981 1.5 5
    endloop
  endfacet
  facet normal 0 0 1
    outer loop
      vertex 12.9743 -0.391578 5
      vertex 11.9829 -0.261052 5
      vertex 12.8978 -0.776457 5
    endloop
  endfacet
  facet normal 0 0 1
    outer loop
      vertex 11.732 0.999999 5
      vertex 12.5981 1.5 5
      vertex 12.3801 1.82628 5
    endloop
  endfacet
  facet normal -0 0 1
    outer loop
      vertex 11.9319 -0.517637 5
      vertex 12.8978 -0.776457 5
      vertex 11.9829 -0.261052 5
    endloop
  endfacet
  facet normal 0 0 1
    outer loop
      vertex 11.5867 1.21752 5
      vertex 12.3801 1.82628 5
      vertex 12.1213 2.12132 5
    endloop
  endfacet
  facet normal 0 0 1
    outer loop
      vertex 12.8978 -0.776457 5
      vertex 11.9319 -0.517637 5
      vertex 12.7716 -1.14805 5
    endloop
  endfacet
  facet normal -0 0 1
    outer loop
      vertex 11.8478 -0.765367 5
      vertex 12.7716 -1.14805 5
      vertex 11.9319 -0.517637 5
    endloop
  endfacet
  facet normal 0 0 1
    outer loop
      vertex 12.9743 0.391578 5
      vertex 11.9829 0.261052 5
      vertex 12 0 5
    endloop
  endfacet
  facet normal 0 0 1
    outer loop
      vertex 12.8978 0.776457 5
      vertex 11.9319 0.517637 5
      vertex 11.9829 0.261052 5
    endloop
  endfacet
  facet normal 0 0 1
    outer loop
      vertex 12.7716 1.14805 5
      vertex 11.8478 0.765367 5
      vertex 11.9319 0.517637 5
    endloop
  endfacet
  facet normal 0 0 1
    outer loop
      vertex 11.4142 1.41421 5
      vertex 12.1213 2.12132 5
      vertex 11.8263 2.38006 5
    endloop
  endfacet
  facet normal 0 0 1
    outer loop
      vertex 12.5981 1.5 5
      vertex 11.732 0.999999 5
      vertex 11.8478 0.765367 5
    endloop
  endfacet
  facet normal 0 0 1
    outer loop
      vertex 12.3801 1.82628 5
      vertex 11.5867 1.21752 5
      vertex 11.732 0.999999 5
    endloop
  endfacet
  facet normal 0 0 1
    outer loop
      vertex 11.2175 1.58671 5
      vertex 11.8263 2.38006 5
      vertex 11.5 2.59808 5
    endloop
  endfacet
  facet normal 0 0 1
    outer loop
      vertex 12.1213 2.12132 5
      vertex 11.4142 1.41421 5
      vertex 11.5867 1.21752 5
    endloop
  endfacet
  facet normal 0 0 1
    outer loop
      vertex 11.8263 2.38006 5
      vertex 11.2175 1.58671 5
      vertex 11.4142 1.41421 5
    endloop
  endfacet
  facet normal 0 0 1
    outer loop
      vertex 11 1.73205 5
      vertex 11.5 2.59808 5
      vertex 11.148 2.77164 5
    endloop
  endfacet
  facet normal 0 0 1
    outer loop
      vertex 11.5 2.59808 5
      vertex 11 1.73205 5
      vertex 11.2175 1.58671 5
    endloop
  endfacet
  facet normal 0 0 1
    outer loop
      vertex 10.7654 1.84776 5
      vertex 11.148 2.77164 5
      vertex 10.7765 2.89778 5
    endloop
  endfacet
  facet normal 0 0 1
    outer loop
      vertex 11.148 2.77164 5
      vertex 10.7654 1.84776 5
      vertex 11 1.73205 5
    endloop
  endfacet
  facet normal 0 0 1
    outer loop
      vertex 10.7765 2.89778 5
      vertex 10.5176 1.93185 5
      vertex 10.7654 1.84776 5
    endloop
  endfacet
  facet normal 0 0 1
    outer loop
      vertex 10.3916 2.97433 5
      vertex 10.5176 1.93185 5
      vertex 10.7765 2.89778 5
    endloop
  endfacet
  facet normal 0 0 1
    outer loop
      vertex 10.3916 2.97433 5
      vertex 10.2611 1.98289 5
      vertex 10.5176 1.93185 5
    endloop
  endfacet
  facet normal 0 0 1
    outer loop
      vertex 10.3916 2.97433 5
      vertex 10 2 5
      vertex 10.2611 1.98289 5
    endloop
  endfacet
  facet normal 0 0 1
    outer loop
      vertex 10.3916 2.97433 5
      vertex 9.73895 1.98289 5
      vertex 10 2 5
    endloop
  endfacet
  facet normal 0 0 1
    outer loop
      vertex 10.3916 2.97433 5
      vertex 9.48236 1.93185 5
      vertex 9.73895 1.98289 5
    endloop
  endfacet
  facet normal 0 0 1
    outer loop
      vertex 10.3916 2.97433 5
      vertex 9.23463 1.84776 5
      vertex 9.48236 1.93185 5
    endloop
  endfacet
  facet normal 0 0 1
    outer loop
      vertex 10.3916 2.97433 5
      vertex 9 1.73205 5
      vertex 9.23463 1.84776 5
    endloop
  endfacet
  facet normal 0 0 1
    outer loop
      vertex 2.27226 3.29193 5
      vertex 9 1.73205 5
      vertex 10.3916 2.97433 5
    endloop
  endfacet
  facet normal 0 0 1
    outer loop
      vertex 8.01711 0.261052 5
      vertex 4 0 5
      vertex 8 0 5
    endloop
  endfacet
  facet normal 0 0 1
    outer loop
      vertex 8.06815 0.517637 5
      vertex 4 0 5
      vertex 8.01711 0.261052 5
    endloop
  endfacet
  facet normal 0 0 1
    outer loop
      vertex 8.15224 0.765367 5
      vertex 4 0 5
      vertex 8.06815 0.517637 5
    endloop
  endfacet
  facet normal 0 0 1
    outer loop
      vertex 3.54182 1.85889 5
      vertex 8.15224 0.765367 5
      vertex 8.26795 0.999999 5
    endloop
  endfacet
  facet normal 0 0 1
    outer loop
      vertex 3.54182 1.85889 5
      vertex 8.26795 0.999999 5
      vertex 8.41329 1.21752 5
    endloop
  endfacet
  facet normal 0 0 1
    outer loop
      vertex 3.54182 1.85889 5
      vertex 8.41329 1.21752 5
      vertex 8.58579 1.41421 5
    endloop
  endfacet
  facet normal 0 0 1
    outer loop
      vertex 3.54182 1.85889 5
      vertex 8.58579 1.41421 5
      vertex 8.78248 1.58671 5
    endloop
  endfacet
  facet normal -0 -0 1
    outer loop
      vertex 3.54182 1.85889 5
      vertex 9 1.73205 5
      vertex 2.27226 3.29193 5
    endloop
  endfacet
  facet normal 0 0 1
    outer loop
      vertex 8.15224 0.765367 5
      vertex 3.54182 1.85889 5
      vertex 4 0 5
    endloop
  endfacet
  facet normal 0 0 1
    outer loop
      vertex 9 1.73205 5
      vertex 3.54182 1.85889 5
      vertex 8.78248 1.58671 5
    endloop
  endfacet
  facet normal 0 0 1
    outer loop
      vertex 0 5 5
      vertex 2.27226 3.29193 5
      vertex 10.3916 2.97433 5
    endloop
  endfacet
  facet normal 0 0 1
    outer loop
      vertex 2.27226 3.29193 5
      vertex 0 5 5
      vertex 0.482146 3.97083 5
    endloop
  endfacet
  facet normal 0 0 1
    outer loop
      vertex 0 5 5
      vertex -1.41842 3.74006 5
      vertex 0.482146 3.97083 5
    endloop
  endfacet
  facet normal -0 0 1
    outer loop
      vertex -1.91342 4.6194 5
      vertex -1.41842 3.74006 5
      vertex 0 5 5
    endloop
  endfacet
  facet normal 0 0 1
    outer loop
      vertex -3.53553 3.53553 5
      vertex -1.41842 3.74006 5
      vertex -1.91342 4.6194 5
    endloop
  endfacet
  facet normal 0 0 1
    outer loop
      vertex -1.41842 3.74006 5
      vertex -3.53553 3.53553 5
      vertex -2.99404 2.65249 5
    endloop
  endfacet
  facet normal 0 0 1
    outer loop
      vertex -4.6194 1.91342 5
      vertex -2.99404 2.65249 5
      vertex -3.53553 3.53553 5
    endloop
  endfacet
  facet normal 0 0 1
    outer loop
      vertex -5 0 5
      vertex -3.88377 0.957262 5
      vertex -4.6194 1.91342 5
    endloop
  endfacet
  facet normal 0 0 1
    outer loop
      vertex -2.99404 2.65249 5
      vertex -4.6194 1.91342 5
      vertex -3.88377 0.957262 5
    endloop
  endfacet
  facet normal 0 0 1
    outer loop
      vertex 12.7716 -1.14805 5
      vertex 11.8478 -0.765367 5
      vertex 12.5981 -1.5 5
    endloop
  endfacet
  facet normal -0 0 1
    outer loop
      vertex 11.732 -1 5
      vertex 12.5981 -1.5 5
      vertex 11.8478 -0.765367 5
    endloop
  endfacet
  facet normal 0 0 1
    outer loop
      vertex 12.5981 -1.5 5
      vertex 11.732 -1 5
      vertex 12.3801 -1.82628 5
    endloop
  endfacet
  facet normal -0 0 1
    outer loop
      vertex 11.5867 -1.21752 5
      vertex 12.3801 -1.82628 5
      vertex 11.732 -1 5
    endloop
  endfacet
  facet normal 0 0 1
    outer loop
      vertex 12.3801 -1.82628 5
      vertex 11.5867 -1.21752 5
      vertex 12.1213 -2.12132 5
    endloop
  endfacet
  facet normal -0 0 1
    outer loop
      vertex 11.4142 -1.41421 5
      vertex 12.1213 -2.12132 5
      vertex 11.5867 -1.21752 5
    endloop
  endfacet
  facet normal 0 0 1
    outer loop
      vertex 12.1213 -2.12132 5
      vertex 11.4142 -1.41421 5
      vertex 11.8263 -2.38006 5
    endloop
  endfacet
  facet normal -0 0 1
    outer loop
      vertex 11.2175 -1.58671 5
      vertex 11.8263 -2.38006 5
      vertex 11.4142 -1.41421 5
    endloop
  endfacet
  facet normal 0 0 1
    outer loop
      vertex 11.8263 -2.38006 5
      vertex 11.2175 -1.58671 5
      vertex 11.5 -2.59808 5
    endloop
  endfacet
  facet normal -0 0 1
    outer loop
      vertex 11 -1.73205 5
      vertex 11.5 -2.59808 5
      vertex 11.2175 -1.58671 5
    endloop
  endfacet
  facet normal 0 0 1
    outer loop
      vertex 11.5 -2.59808 5
      vertex 11 -1.73205 5
      vertex 11.148 -2.77164 5
    endloop
  endfacet
  facet normal -0 0 1
    outer loop
      vertex 10.7654 -1.84776 5
      vertex 11.148 -2.77164 5
      vertex 11 -1.73205 5
    endloop
  endfacet
  facet normal 0 0 1
    outer loop
      vertex 11.148 -2.77164 5
      vertex 10.7654 -1.84776 5
      vertex 10.7765 -2.89778 5
    endloop
  endfacet
  facet normal -0 0 1
    outer loop
      vertex 10.5176 -1.93185 5
      vertex 10.7765 -2.89778 5
      vertex 10.7654 -1.84776 5
    endloop
  endfacet
  facet normal 0 0 1
    outer loop
      vertex 10.5176 -1.93185 5
      vertex 10.3916 -2.97433 5
      vertex 10.7765 -2.89778 5
    endloop
  endfacet
  facet normal -0 0 1
    outer loop
      vertex 10.2611 -1.98289 5
      vertex 10.3916 -2.97433 5
      vertex 10.5176 -1.93185 5
    endloop
  endfacet
  facet normal -0 0 1
    outer loop
      vertex 10 -2 5
      vertex 10.3916 -2.97433 5
      vertex 10.2611 -1.98289 5
    endloop
  endfacet
  facet normal 0 0 1
    outer loop
      vertex 9.73895 -1.98289 5
      vertex 10.3916 -2.97433 5
      vertex 10 -2 5
    endloop
  endfacet
  facet normal 0 0 1
    outer loop
      vertex 9.48236 -1.93185 5
      vertex 10.3916 -2.97433 5
      vertex 9.73895 -1.98289 5
    endloop
  endfacet
  facet normal 0 0 1
    outer loop
      vertex 9.23463 -1.84776 5
      vertex 10.3916 -2.97433 5
      vertex 9.48236 -1.93185 5
    endloop
  endfacet
  facet normal 0 0 1
    outer loop
      vertex 9 -1.73205 5
      vertex 10.3916 -2.97433 5
      vertex 9.23463 -1.84776 5
    endloop
  endfacet
  facet normal 0 0 1
    outer loop
      vertex 3.54182 -1.85889 5
      vertex 9 -1.73205 5
      vertex 8.78248 -1.58671 5
    endloop
  endfacet
  facet normal -0 0 1
    outer loop
      vertex 4 0 5
      vertex 8.01711 -0.261052 5
      vertex 8 0 5
    endloop
  endfacet
  facet normal 0 0 1
    outer loop
      vertex 4 0 5
      vertex 8.06815 -0.517637 5
      vertex 8.01711 -0.261052 5
    endloop
  endfacet
  facet normal 0 0 1
    outer loop
      vertex 4 0 5
      vertex 8.15224 -0.765367 5
      vertex 8.06815 -0.517637 5
    endloop
  endfacet
  facet normal 0 0 1
    outer loop
      vertex 3.54182 -1.85889 5
      vertex 8.15224 -0.765367 5
      vertex 4 0 5
    endloop
  endfacet
  facet normal 0 0 1
    outer loop
      vertex 8.15224 -0.765367 5
      vertex 3.54182 -1.85889 5
      vertex 8.26795 -0.999999 5
    endloop
  endfacet
  facet normal 0 0 1
    outer loop
      vertex 8.26795 -0.999999 5
      vertex 3.54182 -1.85889 5
      vertex 8.41329 -1.21752 5
    endloop
  endfacet
  facet normal 0 0 1
    outer loop
      vertex 8.41329 -1.21752 5
      vertex 3.54182 -1.85889 5
      vertex 8.58579 -1.41421 5
    endloop
  endfacet
  facet normal 0 0 1
    outer loop
      vertex 8.58579 -1.41421 5
      vertex 3.54182 -1.85889 5
      vertex 8.78248 -1.58671 5
    endloop
  endfacet
  facet normal 0 0 1
    outer loop
      vertex 9 -1.73205 5
      vertex 3.54182 -1.85889 5
      vertex 2.27226 -3.29193 5
    endloop
  endfacet
  facet normal 0 0 1
    outer loop
      vertex 9 -1.73205 5
      vertex 2.27226 -3.29193 5
      vertex 10.3916 -2.97433 5
    endloop
  endfacet
  facet normal 0 0 1
    outer loop
      vertex 0 -5 5
      vertex 2.27226 -3.29193 5
      vertex 0.482146 -3.97083 5
    endloop
  endfacet
  facet normal -0 0 1
    outer loop
      vertex 2.27226 -3.29193 5
      vertex 0 -5 5
      vertex 10.3916 -2.97433 5
    endloop
  endfacet
  facet normal 0 0 1
    outer loop
      vertex -1.41842 -3.74006 5
      vertex 0 -5 5
      vertex 0.482146 -3.97083 5
    endloop
  endfacet
  facet normal 0 0 1
    outer loop
      vertex -1.41842 -3.74006 5
      vertex -1.91342 -4.6194 5
      vertex 0 -5 5
    endloop
  endfacet
  facet normal -0 0 1
    outer loop
      vertex -3.53553 -3.53553 5
      vertex -1.41842 -3.74006 5
      vertex -2.99404 -2.65249 5
    endloop
  endfacet
  facet normal 0 0 1
    outer loop
      vertex -1.41842 -3.74006 5
      vertex -3.53553 -3.53553 5
      vertex -1.91342 -4.6194 5
    endloop
  endfacet
  facet normal -0 0 1
    outer loop
      vertex -4.6194 -1.91342 5
      vertex -2.99404 -2.65249 5
      vertex -3.88377 -0.957262 5
    endloop
  endfacet
  facet normal 0 0 1
    outer loop
      vertex -3.88377 0.957262 5
      vertex -5 0 5
      vertex -3.88377 -0.957262 5
    endloop
  endfacet
  facet normal 0 0 1
    outer loop
      vertex -2.99404 -2.65249 5
      vertex -4.6194 -1.91342 5
      vertex -3.53553 -3.53553 5
    endloop
  endfacet
  facet normal 0 0 1
    outer loop
      vertex -3.88377 -0.957262 5
      vertex -5 0 5
      vertex -4.6194 -1.91342 5
    endloop
  endfacet
  facet normal 0.191332 -0.981525 0
    outer loop
      vertex 0 -5 0
      vertex 10.3916 -2.97433 5
      vertex 0 -5 5
    endloop
  endfacet
  facet normal 0.191332 -0.981525 0
    outer loop
      vertex 10.3916 -2.97433 5
      vertex 0 -5 0
      vertex 10.3916 -2.97433 0
    endloop
  endfacet
  facet normal -0.55557 -0.83147 0
    outer loop
      vertex -3.53553 -3.53553 0
      vertex -1.91342 -4.6194 5
      vertex -3.53553 -3.53553 5
    endloop
  endfacet
  facet normal -0.55557 -0.83147 -0
    outer loop
      vertex -1.91342 -4.6194 5
      vertex -3.53553 -3.53553 0
      vertex -1.91342 -4.6194 0
    endloop
  endfacet
  facet normal -0.195091 -0.980785 0
    outer loop
      vertex -1.91342 -4.6194 0
      vertex 0 -5 5
      vertex -1.91342 -4.6194 5
    endloop
  endfacet
  facet normal -0.195091 -0.980785 -0
    outer loop
      vertex 0 -5 5
      vertex -1.91342 -4.6194 0
      vertex 0 -5 0
    endloop
  endfacet
  facet normal -0.980785 -0.195091 0
    outer loop
      vertex -4.6194 -1.91342 0
      vertex -5 0 5
      vertex -5 0 0
    endloop
  endfacet
  facet normal -0.980785 -0.195091 0
    outer loop
      vertex -5 0 5
      vertex -4.6194 -1.91342 0
      vertex -4.6194 -1.91342 5
    endloop
  endfacet
  facet normal 0.442287 0.896874 -0
    outer loop
      vertex 11.5 2.59808 0
      vertex 11.148 2.77164 5
      vertex 11.5 2.59808 5
    endloop
  endfacet
  facet normal 0.442287 0.896874 0
    outer loop
      vertex 11.148 2.77164 5
      vertex 11.5 2.59808 0
      vertex 11.148 2.77164 0
    endloop
  endfacet
  facet normal -0.83147 0.55557 0
    outer loop
      vertex -4.6194 1.91342 0
      vertex -3.53553 3.53553 5
      vertex -3.53553 3.53553 0
    endloop
  endfacet
  facet normal -0.83147 0.55557 0
    outer loop
      vertex -3.53553 3.53553 5
      vertex -4.6194 1.91342 0
      vertex -4.6194 1.91342 5
    endloop
  endfacet
  facet normal 0.32144 -0.94693 0
    outer loop
      vertex 10.7765 -2.89778 0
      vertex 11.148 -2.77164 5
      vertex 10.7765 -2.89778 5
    endloop
  endfacet
  facet normal 0.32144 -0.94693 0
    outer loop
      vertex 11.148 -2.77164 5
      vertex 10.7765 -2.89778 0
      vertex 11.148 -2.77164 0
    endloop
  endfacet
  facet normal 0.19509 -0.980785 0
    outer loop
      vertex 10.3916 -2.97433 0
      vertex 10.7765 -2.89778 5
      vertex 10.3916 -2.97433 5
    endloop
  endfacet
  facet normal 0.19509 -0.980785 0
    outer loop
      vertex 10.7765 -2.89778 5
      vertex 10.3916 -2.97433 0
      vertex 10.7765 -2.89778 0
    endloop
  endfacet
  facet normal 0 0 -1
    outer loop
      vertex 12 0 0
      vertex 13 0 0
      vertex 12.9743 -0.391578 0
    endloop
  endfacet
  facet normal 0 0 -1
    outer loop
      vertex 11.9829 -0.261052 0
      vertex 12.9743 -0.391578 0
      vertex 12.8978 -0.776457 0
    endloop
  endfacet
  facet normal 0 0 -1
    outer loop
      vertex 13 0 0
      vertex 12 0 0
      vertex 12.9743 0.391578 0
    endloop
  endfacet
  facet normal 0 0 -1
    outer loop
      vertex 11.9319 -0.517637 0
      vertex 12.8978 -0.776457 0
      vertex 12.7716 -1.14805 0
    endloop
  endfacet
  facet normal 0 0 -1
    outer loop
      vertex 11.9829 0.261052 0
      vertex 12.9743 0.391578 0
      vertex 12 0 0
    endloop
  endfacet
  facet normal 0 0 -1
    outer loop
      vertex 11.8478 -0.765367 0
      vertex 12.7716 -1.14805 0
      vertex 12.5981 -1.5 0
    endloop
  endfacet
  facet normal -0 0 -1
    outer loop
      vertex 12.9743 0.391578 0
      vertex 11.9829 0.261052 0
      vertex 12.8978 0.776457 0
    endloop
  endfacet
  facet normal 0 0 -1
    outer loop
      vertex 11.732 -1 0
      vertex 12.5981 -1.5 0
      vertex 12.3801 -1.82628 0
    endloop
  endfacet
  facet normal 0 0 -1
    outer loop
      vertex 11.9319 0.517637 0
      vertex 12.8978 0.776457 0
      vertex 11.9829 0.261052 0
    endloop
  endfacet
  facet normal 0 0 -1
    outer loop
      vertex 11.5867 -1.21752 0
      vertex 12.3801 -1.82628 0
      vertex 12.1213 -2.12132 0
    endloop
  endfacet
  facet normal -0 0 -1
    outer loop
      vertex 12.8978 0.776457 0
      vertex 11.9319 0.517637 0
      vertex 12.7716 1.14805 0
    endloop
  endfacet
  facet normal 0 0 -1
    outer loop
      vertex 11.8478 0.765367 0
      vertex 12.7716 1.14805 0
      vertex 11.9319 0.517637 0
    endloop
  endfacet
  facet normal 0 0 -1
    outer loop
      vertex 12.9743 -0.391578 0
      vertex 11.9829 -0.261052 0
      vertex 12 0 0
    endloop
  endfacet
  facet normal 0 0 -1
    outer loop
      vertex 12.8978 -0.776457 0
      vertex 11.9319 -0.517637 0
      vertex 11.9829 -0.261052 0
    endloop
  endfacet
  facet normal 0 0 -1
    outer loop
      vertex 12.7716 -1.14805 0
      vertex 11.8478 -0.765367 0
      vertex 11.9319 -0.517637 0
    endloop
  endfacet
  facet normal 0 0 -1
    outer loop
      vertex 11.4142 -1.41421 0
      vertex 12.1213 -2.12132 0
      vertex 11.8263 -2.38006 0
    endloop
  endfacet
  facet normal 0 0 -1
    outer loop
      vertex 12.5981 -1.5 0
      vertex 11.732 -1 0
      vertex 11.8478 -0.765367 0
    endloop
  endfacet
  facet normal 0 0 -1
    outer loop
      vertex 12.3801 -1.82628 0
      vertex 11.5867 -1.21752 0
      vertex 11.732 -1 0
    endloop
  endfacet
  facet normal 0 0 -1
    outer loop
      vertex 11.2175 -1.58671 0
      vertex 11.8263 -2.38006 0
      vertex 11.5 -2.59808 0
    endloop
  endfacet
  facet normal 0 0 -1
    outer loop
      vertex 12.1213 -2.12132 0
      vertex 11.4142 -1.41421 0
      vertex 11.5867 -1.21752 0
    endloop
  endfacet
  facet normal 0 0 -1
    outer loop
      vertex 11.8263 -2.38006 0
      vertex 11.2175 -1.58671 0
      vertex 11.4142 -1.41421 0
    endloop
  endfacet
  facet normal 0 0 -1
    outer loop
      vertex 11 -1.73205 0
      vertex 11.5 -2.59808 0
      vertex 11.148 -2.77164 0
    endloop
  endfacet
  facet normal 0 0 -1
    outer loop
      vertex 11.5 -2.59808 0
      vertex 11 -1.73205 0
      vertex 11.2175 -1.58671 0
    endloop
  endfacet
  facet normal 0 0 -1
    outer loop
      vertex 10.7654 -1.84776 0
      vertex 11.148 -2.77164 0
      vertex 10.7765 -2.89778 0
    endloop
  endfacet
  facet normal 0 0 -1
    outer loop
      vertex 11.148 -2.77164 0
      vertex 10.7654 -1.84776 0
      vertex 11 -1.73205 0
    endloop
  endfacet
  facet normal 0 0 -1
    outer loop
      vertex 10.7765 -2.89778 0
      vertex 10.5176 -1.93185 0
      vertex 10.7654 -1.84776 0
    endloop
  endfacet
  facet normal 0 0 -1
    outer loop
      vertex 10.3916 -2.97433 0
      vertex 10.5176 -1.93185 0
      vertex 10.7765 -2.89778 0
    endloop
  endfacet
  facet normal 0 0 -1
    outer loop
      vertex 10.3916 -2.97433 0
      vertex 10.2611 -1.98289 0
      vertex 10.5176 -1.93185 0
    endloop
  endfacet
  facet normal 0 0 -1
    outer loop
      vertex 10.3916 -2.97433 0
      vertex 10 -2 0
      vertex 10.2611 -1.98289 0
    endloop
  endfacet
  facet normal 0 0 -1
    outer loop
      vertex 10.3916 -2.97433 0
      vertex 9.73895 -1.98289 0
      vertex 10 -2 0
    endloop
  endfacet
  facet normal 0 0 -1
    outer loop
      vertex 10.3916 -2.97433 0
      vertex 9.48236 -1.93185 0
      vertex 9.73895 -1.98289 0
    endloop
  endfacet
  facet normal 0 0 -1
    outer loop
      vertex 10.3916 -2.97433 0
      vertex 9.23463 -1.84776 0
      vertex 9.48236 -1.93185 0
    endloop
  endfacet
  facet normal 0 0 -1
    outer loop
      vertex 10.3916 -2.97433 0
      vertex 9 -1.73205 0
      vertex 9.23463 -1.84776 0
    endloop
  endfacet
  facet normal 0 0 -1
    outer loop
      vertex 2.27226 -3.29193 0
      vertex 9 -1.73205 0
      vertex 10.3916 -2.97433 0
    endloop
  endfacet
  facet normal 0 0 -1
    outer loop
      vertex 8.01711 -0.261052 0
      vertex 4 0 0
      vertex 8 0 0
    endloop
  endfacet
  facet normal 0 0 -1
    outer loop
      vertex 8.06815 -0.517637 0
      vertex 4 0 0
      vertex 8.01711 -0.261052 0
    endloop
  endfacet
  facet normal 0 0 -1
    outer loop
      vertex 8.15224 -0.765367 0
      vertex 4 0 0
      vertex 8.06815 -0.517637 0
    endloop
  endfacet
  facet normal 0 0 -1
    outer loop
      vertex 3.54182 -1.85889 0
      vertex 8.15224 -0.765367 0
      vertex 8.26795 -0.999999 0
    endloop
  endfacet
  facet normal 0 0 -1
    outer loop
      vertex 3.54182 -1.85889 0
      vertex 8.26795 -0.999999 0
      vertex 8.41329 -1.21752 0
    endloop
  endfacet
  facet normal 0 0 -1
    outer loop
      vertex 3.54182 -1.85889 0
      vertex 8.41329 -1.21752 0
      vertex 8.58579 -1.41421 0
    endloop
  endfacet
  facet normal 0 0 -1
    outer loop
      vertex 3.54182 -1.85889 0
      vertex 8.58579 -1.41421 0
      vertex 8.78248 -1.58671 0
    endloop
  endfacet
  facet normal 0 -0 -1
    outer loop
      vertex 3.54182 -1.85889 0
      vertex 9 -1.73205 0
      vertex 2.27226 -3.29193 0
    endloop
  endfacet
  facet normal -0 0 -1
    outer loop
      vertex 8.15224 -0.765367 0
      vertex 3.54182 -1.85889 0
      vertex 4 0 0
    endloop
  endfacet
  facet normal -0 0 -1
    outer loop
      vertex 9 -1.73205 0
      vertex 3.54182 -1.85889 0
      vertex 8.78248 -1.58671 0
    endloop
  endfacet
  facet normal 0 0 -1
    outer loop
      vertex 0 -5 0
      vertex 2.27226 -3.29193 0
      vertex 10.3916 -2.97433 0
    endloop
  endfacet
  facet normal 0 0 -1
    outer loop
      vertex 2.27226 -3.29193 0
      vertex 0 -5 0
      vertex 0.482146 -3.97083 0
    endloop
  endfacet
  facet normal 0 0 -1
    outer loop
      vertex 0 -5 0
      vertex -1.41842 -3.74006 0
      vertex 0.482146 -3.97083 0
    endloop
  endfacet
  facet normal 0 0 -1
    outer loop
      vertex -1.91342 -4.6194 0
      vertex -1.41842 -3.74006 0
      vertex 0 -5 0
    endloop
  endfacet
  facet normal 0 0 -1
    outer loop
      vertex -3.53553 -3.53553 0
      vertex -1.41842 -3.74006 0
      vertex -1.91342 -4.6194 0
    endloop
  endfacet
  facet normal 0 0 -1
    outer loop
      vertex -1.41842 -3.74006 0
      vertex -3.53553 -3.53553 0
      vertex -2.99404 -2.65249 0
    endloop
  endfacet
  facet normal 0 0 -1
    outer loop
      vertex -4.6194 -1.91342 0
      vertex -2.99404 -2.65249 0
      vertex -3.53553 -3.53553 0
    endloop
  endfacet
  facet normal 0 0 -1
    outer loop
      vertex -5 0 0
      vertex -3.88377 -0.957262 0
      vertex -4.6194 -1.91342 0
    endloop
  endfacet
  facet normal 0 0 -1
    outer loop
      vertex -2.99404 -2.65249 0
      vertex -4.6194 -1.91342 0
      vertex -3.88377 -0.957262 0
    endloop
  endfacet
  facet normal -0 0 -1
    outer loop
      vertex 12.7716 1.14805 0
      vertex 11.8478 0.765367 0
      vertex 12.5981 1.5 0
    endloop
  endfacet
  facet normal 0 0 -1
    outer loop
      vertex 11.732 0.999999 0
      vertex 12.5981 1.5 0
      vertex 11.8478 0.765367 0
    endloop
  endfacet
  facet normal -0 0 -1
    outer loop
      vertex 12.5981 1.5 0
      vertex 11.732 0.999999 0
      vertex 12.3801 1.82628 0
    endloop
  endfacet
  facet normal 0 0 -1
    outer loop
      vertex 11.5867 1.21752 0
      vertex 12.3801 1.82628 0
      vertex 11.732 0.999999 0
    endloop
  endfacet
  facet normal -0 0 -1
    outer loop
      vertex 12.3801 1.82628 0
      vertex 11.5867 1.21752 0
      vertex 12.1213 2.12132 0
    endloop
  endfacet
  facet normal 0 0 -1
    outer loop
      vertex 11.4142 1.41421 0
      vertex 12.1213 2.12132 0
      vertex 11.5867 1.21752 0
    endloop
  endfacet
  facet normal -0 0 -1
    outer loop
      vertex 12.1213 2.12132 0
      vertex 11.4142 1.41421 0
      vertex 11.8263 2.38006 0
    endloop
  endfacet
  facet normal 0 0 -1
    outer loop
      vertex 11.2175 1.58671 0
      vertex 11.8263 2.38006 0
      vertex 11.4142 1.41421 0
    endloop
  endfacet
  facet normal -0 0 -1
    outer loop
      vertex 11.8263 2.38006 0
      vertex 11.2175 1.58671 0
      vertex 11.5 2.59808 0
    endloop
  endfacet
  facet normal 0 0 -1
    outer loop
      vertex 11 1.73205 0
      vertex 11.5 2.59808 0
      vertex 11.2175 1.58671 0
    endloop
  endfacet
  facet normal -0 0 -1
    outer loop
      vertex 11.5 2.59808 0
      vertex 11 1.73205 0
      vertex 11.148 2.77164 0
    endloop
  endfacet
  facet normal 0 0 -1
    outer loop
      vertex 10.7654 1.84776 0
      vertex 11.148 2.77164 0
      vertex 11 1.73205 0
    endloop
  endfacet
  facet normal -0 0 -1
    outer loop
      vertex 11.148 2.77164 0
      vertex 10.7654 1.84776 0
      vertex 10.7765 2.89778 0
    endloop
  endfacet
  facet normal 0 0 -1
    outer loop
      vertex 10.5176 1.93185 0
      vertex 10.7765 2.89778 0
      vertex 10.7654 1.84776 0
    endloop
  endfacet
  facet normal 0 0 -1
    outer loop
      vertex 10.5176 1.93185 0
      vertex 10.3916 2.97433 0
      vertex 10.7765 2.89778 0
    endloop
  endfacet
  facet normal 0 0 -1
    outer loop
      vertex 10.2611 1.98289 0
      vertex 10.3916 2.97433 0
      vertex 10.5176 1.93185 0
    endloop
  endfacet
  facet normal 0 0 -1
    outer loop
      vertex 10 2 0
      vertex 10.3916 2.97433 0
      vertex 10.2611 1.98289 0
    endloop
  endfacet
  facet normal 0 0 -1
    outer loop
      vertex 9.73895 1.98289 0
      vertex 10.3916 2.97433 0
      vertex 10 2 0
    endloop
  endfacet
  facet normal 0 0 -1
    outer loop
      vertex 9.48236 1.93185 0
      vertex 10.3916 2.97433 0
      vertex 9.73895 1.98289 0
    endloop
  endfacet
  facet normal 0 0 -1
    outer loop
      vertex 9.23463 1.84776 0
      vertex 10.3916 2.97433 0
      vertex 9.48236 1.93185 0
    endloop
  endfacet
  facet normal 0 0 -1
    outer loop
      vertex 9 1.73205 0
      vertex 10.3916 2.97433 0
      vertex 9.23463 1.84776 0
    endloop
  endfacet
  facet normal 0 0 -1
    outer loop
      vertex 3.54182 1.85889 0
      vertex 9 1.73205 0
      vertex 8.78248 1.58671 0
    endloop
  endfacet
  facet normal 0 0 -1
    outer loop
      vertex 4 0 0
      vertex 8.01711 0.261052 0
      vertex 8 0 0
    endloop
  endfacet
  facet normal 0 0 -1
    outer loop
      vertex 4 0 0
      vertex 8.06815 0.517637 0
      vertex 8.01711 0.261052 0
    endloop
  endfacet
  facet normal 0 0 -1
    outer loop
      vertex 4 0 0
      vertex 8.15224 0.765367 0
      vertex 8.06815 0.517637 0
    endloop
  endfacet
  facet normal 0 0 -1
    outer loop
      vertex 3.54182 1.85889 0
      vertex 8.15224 0.765367 0
      vertex 4 0 0
    endloop
  endfacet
  facet normal 0 0 -1
    outer loop
      vertex 8.15224 0.765367 0
      vertex 3.54182 1.85889 0
      vertex 8.26795 0.999999 0
    endloop
  endfacet
  facet normal 0 0 -1
    outer loop
      vertex 8.26795 0.999999 0
      vertex 3.54182 1.85889 0
      vertex 8.41329 1.21752 0
    endloop
  endfacet
  facet normal 0 0 -1
    outer loop
      vertex 8.41329 1.21752 0
      vertex 3.54182 1.85889 0
      vertex 8.58579 1.41421 0
    endloop
  endfacet
  facet normal 0 0 -1
    outer loop
      vertex 8.58579 1.41421 0
      vertex 3.54182 1.85889 0
      vertex 8.78248 1.58671 0
    endloop
  endfacet
  facet normal 0 0 -1
    outer loop
      vertex 9 1.73205 0
      vertex 3.54182 1.85889 0
      vertex 2.27226 3.29193 0
    endloop
  endfacet
  facet normal 0 0 -1
    outer loop
      vertex 9 1.73205 0
      vertex 2.27226 3.29193 0
      vertex 10.3916 2.97433 0
    endloop
  endfacet
  facet normal 0 0 -1
    outer loop
      vertex 0 5 0
      vertex 2.27226 3.29193 0
      vertex 0.482146 3.97083 0
    endloop
  endfacet
  facet normal 0 0 -1
    outer loop
      vertex 2.27226 3.29193 0
      vertex 0 5 0
      vertex 10.3916 2.97433 0
    endloop
  endfacet
  facet normal 0 0 -1
    outer loop
      vertex -1.41842 3.74006 0
      vertex 0 5 0
      vertex 0.482146 3.97083 0
    endloop
  endfacet
  facet normal 0 0 -1
    outer loop
      vertex -1.41842 3.74006 0
      vertex -1.91342 4.6194 0
      vertex 0 5 0
    endloop
  endfacet
  facet normal 0 0 -1
    outer loop
      vertex -3.53553 3.53553 0
      vertex -1.41842 3.74006 0
      vertex -2.99404 2.65249 0
    endloop
  endfacet
  facet normal -0 0 -1
    outer loop
      vertex -1.41842 3.74006 0
      vertex -3.53553 3.53553 0
      vertex -1.91342 4.6194 0
    endloop
  endfacet
  facet normal 0 0 -1
    outer loop
      vertex -4.6194 1.91342 0
      vertex -2.99404 2.65249 0
      vertex -3.88377 0.957262 0
    endloop
  endfacet
  facet normal 0 0 -1
    outer loop
      vertex -3.88377 -0.957262 0
      vertex -5 0 0
      vertex -3.88377 0.957262 0
    endloop
  endfacet
  facet normal -0 0 -1
    outer loop
      vertex -2.99404 2.65249 0
      vertex -4.6194 1.91342 0
      vertex -3.53553 3.53553 0
    endloop
  endfacet
  facet normal -0 0 -1
    outer loop
      vertex -3.88377 0.957262 0
      vertex -5 0 0
      vertex -4.6194 1.91342 0
    endloop
  endfacet
  facet normal -0.83147 -0.55557 0
    outer loop
      vertex -3.53553 -3.53553 0
      vertex -4.6194 -1.91342 5
      vertex -4.6194 -1.91342 0
    endloop
  endfacet
  facet normal -0.83147 -0.55557 0
    outer loop
      vertex -4.6194 -1.91342 5
      vertex -3.53553 -3.53553 0
      vertex -3.53553 -3.53553 5
    endloop
  endfacet
  facet normal 0.19509 0.980785 -0
    outer loop
      vertex 10.7765 2.89778 0
      vertex 10.3916 2.97433 5
      vertex 10.7765 2.89778 5
    endloop
  endfacet
  facet normal 0.19509 0.980785 0
    outer loop
      vertex 10.3916 2.97433 5
      vertex 10.7765 2.89778 0
      vertex 10.3916 2.97433 0
    endloop
  endfacet
  facet normal 0.896873 0.442288 0
    outer loop
      vertex 12.7716 1.14805 5
      vertex 12.5981 1.5 0
      vertex 12.5981 1.5 5
    endloop
  endfacet
  facet normal 0.896873 0.442288 0
    outer loop
      vertex 12.5981 1.5 0
      vertex 12.7716 1.14805 5
      vertex 12.7716 1.14805 0
    endloop
  endfacet
  facet normal -0.55557 0.83147 0
    outer loop
      vertex -1.91342 4.6194 0
      vertex -3.53553 3.53553 5
      vertex -1.91342 4.6194 5
    endloop
  endfacet
  facet normal -0.55557 0.83147 0
    outer loop
      vertex -3.53553 3.53553 5
      vertex -1.91342 4.6194 0
      vertex -3.53553 3.53553 0
    endloop
  endfacet
  facet normal 0.75184 -0.659345 0
    outer loop
      vertex 12.1213 -2.12132 5
      vertex 12.3801 -1.82628 0
      vertex 12.3801 -1.82628 5
    endloop
  endfacet
  facet normal 0.75184 -0.659345 0
    outer loop
      vertex 12.3801 -1.82628 0
      vertex 12.1213 -2.12132 5
      vertex 12.1213 -2.12132 0
    endloop
  endfacet
  facet normal 0.191332 0.981525 -0
    outer loop
      vertex 10.3916 2.97433 0
      vertex 0 5 5
      vertex 10.3916 2.97433 5
    endloop
  endfacet
  facet normal 0.191332 0.981525 0
    outer loop
      vertex 0 5 5
      vertex 10.3916 2.97433 0
      vertex 0 5 0
    endloop
  endfacet
  facet normal 0.32144 0.94693 -0
    outer loop
      vertex 11.148 2.77164 0
      vertex 10.7765 2.89778 5
      vertex 11.148 2.77164 5
    endloop
  endfacet
  facet normal 0.32144 0.94693 0
    outer loop
      vertex 10.7765 2.89778 5
      vertex 11.148 2.77164 0
      vertex 10.7765 2.89778 0
    endloop
  endfacet
  facet normal 0.997859 0.0654054 0
    outer loop
      vertex 13 0 5
      vertex 12.9743 0.391578 0
      vertex 12.9743 0.391578 5
    endloop
  endfacet
  facet normal 0.997859 0.0654054 0
    outer loop
      vertex 12.9743 0.391578 0
      vertex 13 0 5
      vertex 13 0 0
    endloop
  endfacet
  facet normal 0.980785 -0.19509 0
    outer loop
      vertex 12.8978 -0.776457 5
      vertex 12.9743 -0.391578 0
      vertex 12.9743 -0.391578 5
    endloop
  endfacet
  facet normal 0.980785 -0.19509 0
    outer loop
      vertex 12.9743 -0.391578 0
      vertex 12.8978 -0.776457 5
      vertex 12.8978 -0.776457 0
    endloop
  endfacet
  facet normal 0.555572 -0.831468 0
    outer loop
      vertex 11.5 -2.59808 0
      vertex 11.8263 -2.38006 5
      vertex 11.5 -2.59808 5
    endloop
  endfacet
  facet normal 0.555572 -0.831468 0
    outer loop
      vertex 11.8263 -2.38006 5
      vertex 11.5 -2.59808 0
      vertex 11.8263 -2.38006 0
    endloop
  endfacet
  facet normal 0.75184 0.659345 0
    outer loop
      vertex 12.3801 1.82628 5
      vertex 12.1213 2.12132 0
      vertex 12.1213 2.12132 5
    endloop
  endfacet
  facet normal 0.75184 0.659345 0
    outer loop
      vertex 12.1213 2.12132 0
      vertex 12.3801 1.82628 5
      vertex 12.3801 1.82628 0
    endloop
  endfacet
  facet normal 0.831469 0.555571 0
    outer loop
      vertex 12.5981 1.5 5
      vertex 12.3801 1.82628 0
      vertex 12.3801 1.82628 5
    endloop
  endfacet
  facet normal 0.831469 0.555571 0
    outer loop
      vertex 12.3801 1.82628 0
      vertex 12.5981 1.5 5
      vertex 12.5981 1.5 0
    endloop
  endfacet
  facet normal 0.997859 -0.0654054 0
    outer loop
      vertex 12.9743 -0.391578 5
      vertex 13 0 0
      vertex 13 0 5
    endloop
  endfacet
  facet normal 0.997859 -0.0654054 0
    outer loop
      vertex 13 0 0
      vertex 12.9743 -0.391578 5
      vertex 12.9743 -0.391578 0
    endloop
  endfacet
  facet normal 0.659345 -0.75184 0
    outer loop
      vertex 11.8263 -2.38006 0
      vertex 12.1213 -2.12132 5
      vertex 11.8263 -2.38006 5
    endloop
  endfacet
  facet normal 0.659345 -0.75184 0
    outer loop
      vertex 12.1213 -2.12132 5
      vertex 11.8263 -2.38006 0
      vertex 12.1213 -2.12132 0
    endloop
  endfacet
  facet normal 0.94693 -0.32144 0
    outer loop
      vertex 12.7716 -1.14805 5
      vertex 12.8978 -0.776457 0
      vertex 12.8978 -0.776457 5
    endloop
  endfacet
  facet normal 0.94693 -0.32144 0
    outer loop
      vertex 12.8978 -0.776457 0
      vertex 12.7716 -1.14805 5
      vertex 12.7716 -1.14805 0
    endloop
  endfacet
  facet normal 0.896874 -0.442287 0
    outer loop
      vertex 12.5981 -1.5 5
      vertex 12.7716 -1.14805 0
      vertex 12.7716 -1.14805 5
    endloop
  endfacet
  facet normal 0.896874 -0.442287 0
    outer loop
      vertex 12.7716 -1.14805 0
      vertex 12.5981 -1.5 5
      vertex 12.5981 -1.5 0
    endloop
  endfacet
  facet normal 0.659345 0.75184 -0
    outer loop
      vertex 12.1213 2.12132 0
      vertex 11.8263 2.38006 5
      vertex 12.1213 2.12132 5
    endloop
  endfacet
  facet normal 0.659345 0.75184 0
    outer loop
      vertex 11.8263 2.38006 5
      vertex 12.1213 2.12132 0
      vertex 11.8263 2.38006 0
    endloop
  endfacet
  facet normal 0.555572 0.831468 -0
    outer loop
      vertex 11.8263 2.38006 0
      vertex 11.5 2.59808 5
      vertex 11.8263 2.38006 5
    endloop
  endfacet
  facet normal 0.555572 0.831468 0
    outer loop
      vertex 11.5 2.59808 5
      vertex 11.8263 2.38006 0
      vertex 11.5 2.59808 0
    endloop
  endfacet
  facet normal 0.980785 0.19509 0
    outer loop
      vertex 12.9743 0.391578 5
      vertex 12.8978 0.776457 0
      vertex 12.8978 0.776457 5
    endloop
  endfacet
  facet normal 0.980785 0.19509 0
    outer loop
      vertex 12.8978 0.776457 0
      vertex 12.9743 0.391578 5
      vertex 12.9743 0.391578 0
    endloop
  endfacet
  facet normal 0.94693 0.32144 0
    outer loop
      vertex 12.8978 0.776457 5
      vertex 12.7716 1.14805 0
      vertex 12.7716 1.14805 5
    endloop
  endfacet
  facet normal 0.94693 0.32144 0
    outer loop
      vertex 12.7716 1.14805 0
      vertex 12.8978 0.776457 5
      vertex 12.8978 0.776457 0
    endloop
  endfacet
  facet normal 0.442287 -0.896874 0
    outer loop
      vertex 11.148 -2.77164 0
      vertex 11.5 -2.59808 5
      vertex 11.148 -2.77164 5
    endloop
  endfacet
  facet normal 0.442287 -0.896874 0
    outer loop
      vertex 11.5 -2.59808 5
      vertex 11.148 -2.77164 0
      vertex 11.5 -2.59808 0
    endloop
  endfacet
  facet normal 0.831468 -0.555572 0
    outer loop
      vertex 12.3801 -1.82628 5
      vertex 12.5981 -1.5 0
      vertex 12.5981 -1.5 5
    endloop
  endfacet
  facet normal 0.831468 -0.555572 0
    outer loop
      vertex 12.5981 -1.5 0
      vertex 12.3801 -1.82628 5
      vertex 12.3801 -1.82628 0
    endloop
  endfacet
  facet normal -0.970942 -0.239316 0
    outer loop
      vertex 4 0 0
      vertex 3.54182 1.85889 5
      vertex 3.54182 1.85889 0
    endloop
  endfacet
  facet normal -0.970942 -0.239316 0
    outer loop
      vertex 3.54182 1.85889 5
      vertex 4 0 0
      vertex 4 0 5
    endloop
  endfacet
  facet normal 1 -0 0
    outer loop
      vertex -3.88377 -0.957262 5
      vertex -3.88377 0.957262 0
      vertex -3.88377 0.957262 5
    endloop
  endfacet
  facet normal 1 0 0
    outer loop
      vertex -3.88377 0.957262 0
      vertex -3.88377 -0.957262 5
      vertex -3.88377 -0.957262 0
    endloop
  endfacet
  facet normal 0.120537 -0.992709 0
    outer loop
      vertex -1.41842 3.74006 0
      vertex 0.482146 3.97083 5
      vertex -1.41842 3.74006 5
    endloop
  endfacet
  facet normal 0.120537 -0.992709 0
    outer loop
      vertex 0.482146 3.97083 5
      vertex -1.41842 3.74006 0
      vertex 0.482146 3.97083 0
    endloop
  endfacet
  facet normal -0.748511 -0.663123 0
    outer loop
      vertex 3.54182 1.85889 0
      vertex 2.27226 3.29193 5
      vertex 2.27226 3.29193 0
    endloop
  endfacet
  facet normal -0.748511 -0.663123 0
    outer loop
      vertex 2.27226 3.29193 5
      vertex 3.54182 1.85889 0
      vertex 3.54182 1.85889 5
    endloop
  endfacet
  facet normal 0.568065 -0.822984 0
    outer loop
      vertex -2.99404 2.65249 0
      vertex -1.41842 3.74006 5
      vertex -2.99404 2.65249 5
    endloop
  endfacet
  facet normal 0.568065 -0.822984 0
    outer loop
      vertex -1.41842 3.74006 5
      vertex -2.99404 2.65249 0
      vertex -1.41842 3.74006 0
    endloop
  endfacet
  facet normal -0.354605 0.935016 0
    outer loop
      vertex 2.27226 -3.29193 0
      vertex 0.482146 -3.97083 5
      vertex 2.27226 -3.29193 5
    endloop
  endfacet
  facet normal -0.354605 0.935016 0
    outer loop
      vertex 0.482146 -3.97083 5
      vertex 2.27226 -3.29193 0
      vertex 0.482146 -3.97083 0
    endloop
  endfacet
  facet normal -0.354605 -0.935016 0
    outer loop
      vertex 0.482146 3.97083 0
      vertex 2.27226 3.29193 5
      vertex 0.482146 3.97083 5
    endloop
  endfacet
  facet normal -0.354605 -0.935016 -0
    outer loop
      vertex 2.27226 3.29193 5
      vertex 0.482146 3.97083 0
      vertex 2.27226 3.29193 0
    endloop
  endfacet
  facet normal 0.885456 -0.464723 0
    outer loop
      vertex -3.88377 0.957262 5
      vertex -2.99404 2.65249 0
      vertex -2.99404 2.65249 5
    endloop
  endfacet
  facet normal 0.885456 -0.464723 0
    outer loop
      vertex -2.99404 2.65249 0
      vertex -3.88377 0.957262 5
      vertex -3.88377 0.957262 0
    endloop
  endfacet
  facet normal -0.970942 0.239316 0
    outer loop
      vertex 3.54182 -1.85889 0
      vertex 4 0 5
      vertex 4 0 0
    endloop
  endfacet
  facet normal -0.970942 0.239316 0
    outer loop
      vertex 4 0 5
      vertex 3.54182 -1.85889 0
      vertex 3.54182 -1.85889 5
    endloop
  endfacet
  facet normal -0.748511 0.663123 0
    outer loop
      vertex 2.27226 -3.29193 0
      vertex 3.54182 -1.85889 5
      vertex 3.54182 -1.85889 0
    endloop
  endfacet
  facet normal -0.748511 0.663123 0
    outer loop
      vertex 3.54182 -1.85889 5
      vertex 2.27226 -3.29193 0
      vertex 2.27226 -3.29193 5
    endloop
  endfacet
  facet normal 0.120537 0.992709 -0
    outer loop
      vertex 0.482146 -3.97083 0
      vertex -1.41842 -3.74006 5
      vertex 0.482146 -3.97083 5
    endloop
  endfacet
  facet normal 0.120537 0.992709 0
    outer loop
      vertex -1.41842 -3.74006 5
      vertex 0.482146 -3.97083 0
      vertex -1.41842 -3.74006 0
    endloop
  endfacet
  facet normal 0.568065 0.822984 -0
    outer loop
      vertex -1.41842 -3.74006 0
      vertex -2.99404 -2.65249 5
      vertex -1.41842 -3.74006 5
    endloop
  endfacet
  facet normal 0.568065 0.822984 0
    outer loop
      vertex -2.99404 -2.65249 5
      vertex -1.41842 -3.74006 0
      vertex -2.99404 -2.65249 0
    endloop
  endfacet
  facet normal 0.885456 0.464723 0
    outer loop
      vertex -2.99404 -2.65249 5
      vertex -3.88377 -0.957262 0
      vertex -3.88377 -0.957262 5
    endloop
  endfacet
  facet normal 0.885456 0.464723 0
    outer loop
      vertex -3.88377 -0.957262 0
      vertex -2.99404 -2.65249 5
      vertex -2.99404 -2.65249 0
    endloop
  endfacet
  facet normal -0.997859 -0.0654053 0
    outer loop
      vertex 12 0 0
      vertex 11.9829 0.261052 5
      vertex 11.9829 0.261052 0
    endloop
  endfacet
  facet normal -0.997859 -0.0654053 0
    outer loop
      vertex 11.9829 0.261052 5
      vertex 12 0 0
      vertex 12 0 5
    endloop
  endfacet
  facet normal 0.065405 -0.997859 0
    outer loop
      vertex 9.73895 1.98289 0
      vertex 10 2 5
      vertex 9.73895 1.98289 5
    endloop
  endfacet
  facet normal 0.065405 -0.997859 0
    outer loop
      vertex 10 2 5
      vertex 9.73895 1.98289 0
      vertex 10 2 0
    endloop
  endfacet
  facet normal -0.0654053 0.997859 0
    outer loop
      vertex 10.2611 -1.98289 0
      vertex 10 -2 5
      vertex 10.2611 -1.98289 5
    endloop
  endfacet
  facet normal -0.0654053 0.997859 0
    outer loop
      vertex 10 -2 5
      vertex 10.2611 -1.98289 0
      vertex 10 -2 0
    endloop
  endfacet
  facet normal -0.659346 -0.75184 0
    outer loop
      vertex 11.2175 1.58671 0
      vertex 11.4142 1.41421 5
      vertex 11.2175 1.58671 5
    endloop
  endfacet
  facet normal -0.659346 -0.75184 -0
    outer loop
      vertex 11.4142 1.41421 5
      vertex 11.2175 1.58671 0
      vertex 11.4142 1.41421 0
    endloop
  endfacet
  facet normal 0.75184 -0.659346 0
    outer loop
      vertex 8.41329 1.21752 5
      vertex 8.58579 1.41421 0
      vertex 8.58579 1.41421 5
    endloop
  endfacet
  facet normal 0.75184 -0.659346 0
    outer loop
      vertex 8.58579 1.41421 0
      vertex 8.41329 1.21752 5
      vertex 8.41329 1.21752 0
    endloop
  endfacet
  facet normal 0.44229 -0.896872 0
    outer loop
      vertex 9 1.73205 0
      vertex 9.23463 1.84776 5
      vertex 9 1.73205 5
    endloop
  endfacet
  facet normal 0.44229 -0.896872 0
    outer loop
      vertex 9.23463 1.84776 5
      vertex 9 1.73205 0
      vertex 9.23463 1.84776 0
    endloop
  endfacet
  facet normal -0.896872 -0.44229 0
    outer loop
      vertex 11.8478 0.765367 0
      vertex 11.732 0.999999 5
      vertex 11.732 0.999999 0
    endloop
  endfacet
  facet normal -0.896872 -0.44229 0
    outer loop
      vertex 11.732 0.999999 5
      vertex 11.8478 0.765367 0
      vertex 11.8478 0.765367 5
    endloop
  endfacet
  facet normal -0.980785 -0.19509 0
    outer loop
      vertex 11.9829 0.261052 0
      vertex 11.9319 0.517637 5
      vertex 11.9319 0.517637 0
    endloop
  endfacet
  facet normal -0.980785 -0.19509 0
    outer loop
      vertex 11.9319 0.517637 5
      vertex 11.9829 0.261052 0
      vertex 11.9829 0.261052 5
    endloop
  endfacet
  facet normal -0.831471 -0.555568 0
    outer loop
      vertex 11.732 0.999999 0
      vertex 11.5867 1.21752 5
      vertex 11.5867 1.21752 0
    endloop
  endfacet
  facet normal -0.831471 -0.555568 0
    outer loop
      vertex 11.5867 1.21752 5
      vertex 11.732 0.999999 0
      vertex 11.732 0.999999 5
    endloop
  endfacet
  facet normal -0.321441 -0.94693 0
    outer loop
      vertex 10.5176 1.93185 0
      vertex 10.7654 1.84776 5
      vertex 10.5176 1.93185 5
    endloop
  endfacet
  facet normal -0.321441 -0.94693 -0
    outer loop
      vertex 10.7654 1.84776 5
      vertex 10.5176 1.93185 0
      vertex 10.7654 1.84776 0
    endloop
  endfacet
  facet normal -0.55557 -0.83147 0
    outer loop
      vertex 11 1.73205 0
      vertex 11.2175 1.58671 5
      vertex 11 1.73205 5
    endloop
  endfacet
  facet normal -0.55557 -0.83147 -0
    outer loop
      vertex 11.2175 1.58671 5
      vertex 11 1.73205 0
      vertex 11.2175 1.58671 0
    endloop
  endfacet
  facet normal 0.94693 -0.321441 0
    outer loop
      vertex 8.06815 0.517637 5
      vertex 8.15224 0.765367 0
      vertex 8.15224 0.765367 5
    endloop
  endfacet
  facet normal 0.94693 -0.321441 0
    outer loop
      vertex 8.15224 0.765367 0
      vertex 8.06815 0.517637 5
      vertex 8.06815 0.517637 0
    endloop
  endfacet
  facet normal 0.896872 -0.44229 0
    outer loop
      vertex 8.15224 0.765367 5
      vertex 8.26795 0.999999 0
      vertex 8.26795 0.999999 5
    endloop
  endfacet
  facet normal 0.896872 -0.44229 0
    outer loop
      vertex 8.26795 0.999999 0
      vertex 8.15224 0.765367 5
      vertex 8.15224 0.765367 0
    endloop
  endfacet
  facet normal 0.980785 -0.19509 0
    outer loop
      vertex 8.01711 0.261052 5
      vertex 8.06815 0.517637 0
      vertex 8.06815 0.517637 5
    endloop
  endfacet
  facet normal 0.980785 -0.19509 0
    outer loop
      vertex 8.06815 0.517637 0
      vertex 8.01711 0.261052 5
      vertex 8.01711 0.261052 0
    endloop
  endfacet
  facet normal 0.555568 -0.831471 0
    outer loop
      vertex 8.78248 1.58671 0
      vertex 9 1.73205 5
      vertex 8.78248 1.58671 5
    endloop
  endfacet
  facet normal 0.555568 -0.831471 0
    outer loop
      vertex 9 1.73205 5
      vertex 8.78248 1.58671 0
      vertex 9 1.73205 0
    endloop
  endfacet
  facet normal 0.19509 -0.980785 0
    outer loop
      vertex 9.48236 1.93185 0
      vertex 9.73895 1.98289 5
      vertex 9.48236 1.93185 5
    endloop
  endfacet
  facet normal 0.19509 -0.980785 0
    outer loop
      vertex 9.73895 1.98289 5
      vertex 9.48236 1.93185 0
      vertex 9.73895 1.98289 0
    endloop
  endfacet
  facet normal -0.94693 -0.321441 0
    outer loop
      vertex 11.9319 0.517637 0
      vertex 11.8478 0.765367 5
      vertex 11.8478 0.765367 0
    endloop
  endfacet
  facet normal -0.94693 -0.321441 0
    outer loop
      vertex 11.8478 0.765367 5
      vertex 11.9319 0.517637 0
      vertex 11.9319 0.517637 5
    endloop
  endfacet
  facet normal -0.75184 -0.659346 0
    outer loop
      vertex 11.5867 1.21752 0
      vertex 11.4142 1.41421 5
      vertex 11.4142 1.41421 0
    endloop
  endfacet
  facet normal -0.75184 -0.659346 0
    outer loop
      vertex 11.4142 1.41421 5
      vertex 11.5867 1.21752 0
      vertex 11.5867 1.21752 5
    endloop
  endfacet
  facet normal -0.19509 -0.980785 0
    outer loop
      vertex 10.2611 1.98289 0
      vertex 10.5176 1.93185 5
      vertex 10.2611 1.98289 5
    endloop
  endfacet
  facet normal -0.19509 -0.980785 -0
    outer loop
      vertex 10.5176 1.93185 5
      vertex 10.2611 1.98289 0
      vertex 10.5176 1.93185 0
    endloop
  endfacet
  facet normal -0.0654053 -0.997859 0
    outer loop
      vertex 10 2 0
      vertex 10.2611 1.98289 5
      vertex 10 2 5
    endloop
  endfacet
  facet normal -0.0654053 -0.997859 -0
    outer loop
      vertex 10.2611 1.98289 5
      vertex 10 2 0
      vertex 10.2611 1.98289 0
    endloop
  endfacet
  facet normal 0.831471 -0.555568 0
    outer loop
      vertex 8.26795 0.999999 5
      vertex 8.41329 1.21752 0
      vertex 8.41329 1.21752 5
    endloop
  endfacet
  facet normal 0.831471 -0.555568 0
    outer loop
      vertex 8.41329 1.21752 0
      vertex 8.26795 0.999999 5
      vertex 8.26795 0.999999 0
    endloop
  endfacet
  facet normal 0.997859 -0.0654016 0
    outer loop
      vertex 8 0 5
      vertex 8.01711 0.261052 0
      vertex 8.01711 0.261052 5
    endloop
  endfacet
  facet normal 0.997859 -0.0654016 0
    outer loop
      vertex 8.01711 0.261052 0
      vertex 8 0 5
      vertex 8 0 0
    endloop
  endfacet
  facet normal 0.659346 -0.75184 0
    outer loop
      vertex 8.58579 1.41421 0
      vertex 8.78248 1.58671 5
      vertex 8.58579 1.41421 5
    endloop
  endfacet
  facet normal 0.659346 -0.75184 0
    outer loop
      vertex 8.78248 1.58671 5
      vertex 8.58579 1.41421 0
      vertex 8.78248 1.58671 0
    endloop
  endfacet
  facet normal -0.83147 0.55557 0
    outer loop
      vertex 11.5867 -1.21752 0
      vertex 11.732 -1 5
      vertex 11.732 -1 0
    endloop
  endfacet
  facet normal -0.83147 0.55557 0
    outer loop
      vertex 11.732 -1 5
      vertex 11.5867 -1.21752 0
      vertex 11.5867 -1.21752 5
    endloop
  endfacet
  facet normal -0.980785 0.19509 0
    outer loop
      vertex 11.9319 -0.517637 0
      vertex 11.9829 -0.261052 5
      vertex 11.9829 -0.261052 0
    endloop
  endfacet
  facet normal -0.980785 0.19509 0
    outer loop
      vertex 11.9829 -0.261052 5
      vertex 11.9319 -0.517637 0
      vertex 11.9319 -0.517637 5
    endloop
  endfacet
  facet normal 0.75184 0.659346 0
    outer loop
      vertex 8.58579 -1.41421 5
      vertex 8.41329 -1.21752 0
      vertex 8.41329 -1.21752 5
    endloop
  endfacet
  facet normal 0.75184 0.659346 0
    outer loop
      vertex 8.41329 -1.21752 0
      vertex 8.58579 -1.41421 5
      vertex 8.58579 -1.41421 0
    endloop
  endfacet
  facet normal 0.831471 0.555568 0
    outer loop
      vertex 8.41329 -1.21752 5
      vertex 8.26795 -0.999999 0
      vertex 8.26795 -0.999999 5
    endloop
  endfacet
  facet normal 0.831471 0.555568 0
    outer loop
      vertex 8.26795 -0.999999 0
      vertex 8.41329 -1.21752 5
      vertex 8.41329 -1.21752 0
    endloop
  endfacet
  facet normal -0.55557 0.83147 0
    outer loop
      vertex 11.2175 -1.58671 0
      vertex 11 -1.73205 5
      vertex 11.2175 -1.58671 5
    endloop
  endfacet
  facet normal -0.55557 0.83147 0
    outer loop
      vertex 11 -1.73205 5
      vertex 11.2175 -1.58671 0
      vertex 11 -1.73205 0
    endloop
  endfacet
  facet normal -0.442289 0.896873 0
    outer loop
      vertex 11 -1.73205 0
      vertex 10.7654 -1.84776 5
      vertex 11 -1.73205 5
    endloop
  endfacet
  facet normal -0.442289 0.896873 0
    outer loop
      vertex 10.7654 -1.84776 5
      vertex 11 -1.73205 0
      vertex 10.7654 -1.84776 0
    endloop
  endfacet
  facet normal -0.442289 -0.896873 0
    outer loop
      vertex 10.7654 1.84776 0
      vertex 11 1.73205 5
      vertex 10.7654 1.84776 5
    endloop
  endfacet
  facet normal -0.442289 -0.896873 -0
    outer loop
      vertex 11 1.73205 5
      vertex 10.7654 1.84776 0
      vertex 11 1.73205 0
    endloop
  endfacet
  facet normal 0.997859 0.0654016 0
    outer loop
      vertex 8.01711 -0.261052 5
      vertex 8 0 0
      vertex 8 0 5
    endloop
  endfacet
  facet normal 0.997859 0.0654016 0
    outer loop
      vertex 8 0 0
      vertex 8.01711 -0.261052 5
      vertex 8.01711 -0.261052 0
    endloop
  endfacet
  facet normal 0.321441 -0.94693 0
    outer loop
      vertex 9.23463 1.84776 0
      vertex 9.48236 1.93185 5
      vertex 9.23463 1.84776 5
    endloop
  endfacet
  facet normal 0.321441 -0.94693 0
    outer loop
      vertex 9.48236 1.93185 5
      vertex 9.23463 1.84776 0
      vertex 9.48236 1.93185 0
    endloop
  endfacet
  facet normal -0.94693 0.321441 0
    outer loop
      vertex 11.8478 -0.765367 0
      vertex 11.9319 -0.517637 5
      vertex 11.9319 -0.517637 0
    endloop
  endfacet
  facet normal -0.94693 0.321441 0
    outer loop
      vertex 11.9319 -0.517637 5
      vertex 11.8478 -0.765367 0
      vertex 11.8478 -0.765367 5
    endloop
  endfacet
  facet normal -0.896873 0.442289 0
    outer loop
      vertex 11.732 -1 0
      vertex 11.8478 -0.765367 5
      vertex 11.8478 -0.765367 0
    endloop
  endfacet
  facet normal -0.896873 0.442289 0
    outer loop
      vertex 11.8478 -0.765367 5
      vertex 11.732 -1 0
      vertex 11.732 -1 5
    endloop
  endfacet
  facet normal -0.997859 0.0654053 0
    outer loop
      vertex 11.9829 -0.261052 0
      vertex 12 0 5
      vertex 12 0 0
    endloop
  endfacet
  facet normal -0.997859 0.0654053 0
    outer loop
      vertex 12 0 5
      vertex 11.9829 -0.261052 0
      vertex 11.9829 -0.261052 5
    endloop
  endfacet
  facet normal 0.19509 0.980785 -0
    outer loop
      vertex 9.73895 -1.98289 0
      vertex 9.48236 -1.93185 5
      vertex 9.73895 -1.98289 5
    endloop
  endfacet
  facet normal 0.19509 0.980785 0
    outer loop
      vertex 9.48236 -1.93185 5
      vertex 9.73895 -1.98289 0
      vertex 9.48236 -1.93185 0
    endloop
  endfacet
  facet normal 0.44229 0.896872 -0
    outer loop
      vertex 9.23463 -1.84776 0
      vertex 9 -1.73205 5
      vertex 9.23463 -1.84776 5
    endloop
  endfacet
  facet normal 0.44229 0.896872 0
    outer loop
      vertex 9 -1.73205 5
      vertex 9.23463 -1.84776 0
      vertex 9 -1.73205 0
    endloop
  endfacet
  facet normal 0.980785 0.19509 0
    outer loop
      vertex 8.06815 -0.517637 5
      vertex 8.01711 -0.261052 0
      vertex 8.01711 -0.261052 5
    endloop
  endfacet
  facet normal 0.980785 0.19509 0
    outer loop
      vertex 8.01711 -0.261052 0
      vertex 8.06815 -0.517637 5
      vertex 8.06815 -0.517637 0
    endloop
  endfacet
  facet normal 0.94693 0.321441 0
    outer loop
      vertex 8.15224 -0.765367 5
      vertex 8.06815 -0.517637 0
      vertex 8.06815 -0.517637 5
    endloop
  endfacet
  facet normal 0.94693 0.321441 0
    outer loop
      vertex 8.06815 -0.517637 0
      vertex 8.15224 -0.765367 5
      vertex 8.15224 -0.765367 0
    endloop
  endfacet
  facet normal 0.896872 0.44229 0
    outer loop
      vertex 8.26795 -0.999999 5
      vertex 8.15224 -0.765367 0
      vertex 8.15224 -0.765367 5
    endloop
  endfacet
  facet normal 0.896872 0.44229 0
    outer loop
      vertex 8.15224 -0.765367 0
      vertex 8.26795 -0.999999 5
      vertex 8.26795 -0.999999 0
    endloop
  endfacet
  facet normal -0.659346 0.75184 0
    outer loop
      vertex 11.4142 -1.41421 0
      vertex 11.2175 -1.58671 5
      vertex 11.4142 -1.41421 5
    endloop
  endfacet
  facet normal -0.659346 0.75184 0
    outer loop
      vertex 11.2175 -1.58671 5
      vertex 11.4142 -1.41421 0
      vertex 11.2175 -1.58671 0
    endloop
  endfacet
  facet normal -0.321441 0.94693 0
    outer loop
      vertex 10.7654 -1.84776 0
      vertex 10.5176 -1.93185 5
      vertex 10.7654 -1.84776 5
    endloop
  endfacet
  facet normal -0.321441 0.94693 0
    outer loop
      vertex 10.5176 -1.93185 5
      vertex 10.7654 -1.84776 0
      vertex 10.5176 -1.93185 0
    endloop
  endfacet
  facet normal -0.19509 0.980785 0
    outer loop
      vertex 10.5176 -1.93185 0
      vertex 10.2611 -1.98289 5
      vertex 10.5176 -1.93185 5
    endloop
  endfacet
  facet normal -0.19509 0.980785 0
    outer loop
      vertex 10.2611 -1.98289 5
      vertex 10.5176 -1.93185 0
      vertex 10.2611 -1.98289 0
    endloop
  endfacet
  facet normal 0.065405 0.997859 -0
    outer loop
      vertex 10 -2 0
      vertex 9.73895 -1.98289 5
      vertex 10 -2 5
    endloop
  endfacet
  facet normal 0.065405 0.997859 0
    outer loop
      vertex 9.73895 -1.98289 5
      vertex 10 -2 0
      vertex 9.73895 -1.98289 0
    endloop
  endfacet
  facet normal 0.321441 0.94693 -0
    outer loop
      vertex 9.48236 -1.93185 0
      vertex 9.23463 -1.84776 5
      vertex 9.48236 -1.93185 5
    endloop
  endfacet
  facet normal 0.321441 0.94693 0
    outer loop
      vertex 9.23463 -1.84776 5
      vertex 9.48236 -1.93185 0
      vertex 9.23463 -1.84776 0
    endloop
  endfacet
  facet normal 0.555568 0.831471 -0
    outer loop
      vertex 9 -1.73205 0
      vertex 8.78248 -1.58671 5
      vertex 9 -1.73205 5
    endloop
  endfacet
  facet normal 0.555568 0.831471 0
    outer loop
      vertex 8.78248 -1.58671 5
      vertex 9 -1.73205 0
      vertex 8.78248 -1.58671 0
    endloop
  endfacet
  facet normal 0.659346 0.75184 -0
    outer loop
      vertex 8.78248 -1.58671 0
      vertex 8.58579 -1.41421 5
      vertex 8.78248 -1.58671 5
    endloop
  endfacet
  facet normal 0.659346 0.75184 0
    outer loop
      vertex 8.58579 -1.41421 5
      vertex 8.78248 -1.58671 0
      vertex 8.58579 -1.41421 0
    endloop
  endfacet
  facet normal -0.75184 0.659346 0
    outer loop
      vertex 11.4142 -1.41421 0
      vertex 11.5867 -1.21752 5
      vertex 11.5867 -1.21752 0
    endloop
  endfacet
  facet normal -0.75184 0.659346 0
    outer loop
      vertex 11.5867 -1.21752 5
      vertex 11.4142 -1.41421 0
      vertex 11.4142 -1.41421 5
    endloop
  endfacet
endsolid OpenSCAD_Model
