solid OpenSCAD_Model
  facet normal -1 0 0
    outer loop
      vertex -5.925 -5.925 0
      vertex -5.925 -5.925 3
      vertex -5.925 5.925 0
    endloop
  endfacet
  facet normal -1 0 0
    outer loop
      vertex -5.925 5.925 0
      vertex -5.925 -5.925 3
      vertex -5.925 5.925 3
    endloop
  endfacet
  facet normal 0 -1 0
    outer loop
      vertex -5.925 -5.925 3
      vertex -5.925 -5.925 0
      vertex 65.175 -5.925 0
    endloop
  endfacet
  facet normal 0 -1 0
    outer loop
      vertex 65.175 -5.925 3
      vertex -5.925 -5.925 3
      vertex 65.175 -5.925 0
    endloop
  endfacet
  facet normal 0 0 -1
    outer loop
      vertex 13.85 3.4641 0
      vertex -5.925 5.925 0
      vertex 65.175 5.925 0
    endloop
  endfacet
  facet normal 0 0 -1
    outer loop
      vertex -5.925 -5.925 0
      vertex -5.925 5.925 0
      vertex -3.95 0 0
    endloop
  endfacet
  facet normal 0 0 -1
    outer loop
      vertex 43.25 0 0
      vertex 37.6 3.5507 0
      vertex 45.325 3.594 0
    endloop
  endfacet
  facet normal 0 0 -1
    outer loop
      vertex -5.925 -5.925 0
      vertex -3.95 0 0
      vertex -1.975 -3.4208 0
    endloop
  endfacet
  facet normal 0 0 -1
    outer loop
      vertex -5.925 -5.925 0
      vertex -1.975 -3.4208 0
      vertex 65.175 -5.925 0
    endloop
  endfacet
  facet normal 0 0 -1
    outer loop
      vertex -1.975 -3.4208 0
      vertex 1.975 -3.4208 0
      vertex 65.175 -5.925 0
    endloop
  endfacet
  facet normal 0 0 -1
    outer loop
      vertex 1.975 3.4208 0
      vertex -5.925 5.925 0
      vertex 9.85 3.4641 0
    endloop
  endfacet
  facet normal 0 0 -1
    outer loop
      vertex 15.85 0 0
      vertex 21.675 -3.5074 0
      vertex 13.85 -3.4641 0
    endloop
  endfacet
  facet normal 0 0 -1
    outer loop
      vertex 7.85 0 0
      vertex 1.975 3.4208 0
      vertex 9.85 3.4641 0
    endloop
  endfacet
  facet normal 0 0 -1
    outer loop
      vertex 13.85 3.4641 0
      vertex 19.65 0 0
      vertex 15.85 0 0
    endloop
  endfacet
  facet normal 0 0 -1
    outer loop
      vertex -3.95 0 0
      vertex -5.925 5.925 0
      vertex -1.975 3.4208 0
    endloop
  endfacet
  facet normal 0 0 -1
    outer loop
      vertex 3.95 0 0
      vertex 1.975 3.4208 0
      vertex 7.85 0 0
    endloop
  endfacet
  facet normal 0 0 -1
    outer loop
      vertex 1.975 -3.4208 0
      vertex 9.85 -3.4641 0
      vertex 65.175 -5.925 0
    endloop
  endfacet
  facet normal 0 0 -1
    outer loop
      vertex 9.85 -3.4641 0
      vertex 13.85 -3.4641 0
      vertex 65.175 -5.925 0
    endloop
  endfacet
  facet normal 0 0 -1
    outer loop
      vertex 9.85 -3.4641 0
      vertex 3.95 0 0
      vertex 7.85 0 0
    endloop
  endfacet
  facet normal 0 0 -1
    outer loop
      vertex 27.75 0 0
      vertex 33.5 -3.5507 0
      vertex 25.725 -3.5074 0
    endloop
  endfacet
  facet normal 0 0 -1
    outer loop
      vertex 9.85 3.4641 0
      vertex -5.925 5.925 0
      vertex 13.85 3.4641 0
    endloop
  endfacet
  facet normal 0 0 -1
    outer loop
      vertex 21.675 3.5074 0
      vertex 13.85 3.4641 0
      vertex 65.175 5.925 0
    endloop
  endfacet
  facet normal 0 0 -1
    outer loop
      vertex 19.65 0 0
      vertex 13.85 3.4641 0
      vertex 21.675 3.5074 0
    endloop
  endfacet
  facet normal 0 0 -1
    outer loop
      vertex 21.675 -3.5074 0
      vertex 15.85 0 0
      vertex 19.65 0 0
    endloop
  endfacet
  facet normal 0 0 -1
    outer loop
      vertex 13.85 -3.4641 0
      vertex 21.675 -3.5074 0
      vertex 65.175 -5.925 0
    endloop
  endfacet
  facet normal 0 0 -1
    outer loop
      vertex 37.6 3.5507 0
      vertex 43.25 0 0
      vertex 39.65 0 0
    endloop
  endfacet
  facet normal 0 0 -1
    outer loop
      vertex 21.675 -3.5074 0
      vertex 25.725 -3.5074 0
      vertex 65.175 -5.925 0
    endloop
  endfacet
  facet normal 0 0 -1
    outer loop
      vertex 33.5 3.5507 0
      vertex 25.725 3.5074 0
      vertex 65.175 5.925 0
    endloop
  endfacet
  facet normal 0 0 -1
    outer loop
      vertex 25.725 3.5074 0
      vertex 21.675 3.5074 0
      vertex 65.175 5.925 0
    endloop
  endfacet
  facet normal 0 0 -1
    outer loop
      vertex 31.45 0 0
      vertex 25.725 3.5074 0
      vertex 33.5 3.5507 0
    endloop
  endfacet
  facet normal 0 0 -1
    outer loop
      vertex 33.5 -3.5507 0
      vertex 27.75 0 0
      vertex 31.45 0 0
    endloop
  endfacet
  facet normal 0 0 -1
    outer loop
      vertex 25.725 -3.5074 0
      vertex 33.5 -3.5507 0
      vertex 65.175 -5.925 0
    endloop
  endfacet
  facet normal 0 0 -1
    outer loop
      vertex -1.975 3.4208 0
      vertex -5.925 5.925 0
      vertex 1.975 3.4208 0
    endloop
  endfacet
  facet normal 0 0 -1
    outer loop
      vertex 55.05 0 0
      vertex 51.55 0 0
      vertex 57.15 3.63731 0
    endloop
  endfacet
  facet normal 0 0 -1
    outer loop
      vertex 45.325 3.594 0
      vertex 37.6 3.5507 0
      vertex 65.175 5.925 0
    endloop
  endfacet
  facet normal 0 0 -1
    outer loop
      vertex 37.6 3.5507 0
      vertex 33.5 3.5507 0
      vertex 65.175 5.925 0
    endloop
  endfacet
  facet normal 0 0 -1
    outer loop
      vertex 61.35 -3.63731 0
      vertex 65.175 -5.925 0
      vertex 57.15 -3.63731 0
    endloop
  endfacet
  facet normal 0 0 -1
    outer loop
      vertex 45.325 -3.594 0
      vertex 39.65 0 0
      vertex 43.25 0 0
    endloop
  endfacet
  facet normal 0 0 -1
    outer loop
      vertex 25.725 3.5074 0
      vertex 31.45 0 0
      vertex 27.75 0 0
    endloop
  endfacet
  facet normal 0 0 -1
    outer loop
      vertex 57.15 -3.63731 0
      vertex 51.55 0 0
      vertex 55.05 0 0
    endloop
  endfacet
  facet normal 0 0 -1
    outer loop
      vertex 57.15 3.63731 0
      vertex 49.475 3.594 0
      vertex 65.175 5.925 0
    endloop
  endfacet
  facet normal 0 0 -1
    outer loop
      vertex 49.475 3.594 0
      vertex 45.325 3.594 0
      vertex 65.175 5.925 0
    endloop
  endfacet
  facet normal 0 0 -1
    outer loop
      vertex 61.35 3.63731 0
      vertex 65.175 5.925 0
      vertex 63.45 0 0
    endloop
  endfacet
  facet normal 0 0 -1
    outer loop
      vertex 65.175 -5.925 0
      vertex 61.35 -3.63731 0
      vertex 63.45 0 0
    endloop
  endfacet
  facet normal 0 0 -1
    outer loop
      vertex 65.175 -5.925 0
      vertex 63.45 0 0
      vertex 65.175 5.925 0
    endloop
  endfacet
  facet normal 0 0 -1
    outer loop
      vertex 57.15 3.63731 0
      vertex 65.175 5.925 0
      vertex 61.35 3.63731 0
    endloop
  endfacet
  facet normal 0 0 -1
    outer loop
      vertex 51.55 0 0
      vertex 49.475 3.594 0
      vertex 57.15 3.63731 0
    endloop
  endfacet
  facet normal 0 0 -1
    outer loop
      vertex 37.6 -3.5507 0
      vertex 65.175 -5.925 0
      vertex 33.5 -3.5507 0
    endloop
  endfacet
  facet normal 0 0 -1
    outer loop
      vertex 49.475 -3.594 0
      vertex 65.175 -5.925 0
      vertex 45.325 -3.594 0
    endloop
  endfacet
  facet normal 0 0 -1
    outer loop
      vertex 39.65 0 0
      vertex 45.325 -3.594 0
      vertex 37.6 -3.5507 0
    endloop
  endfacet
  facet normal 0 0 -1
    outer loop
      vertex 57.15 -3.63731 0
      vertex 65.175 -5.925 0
      vertex 49.475 -3.594 0
    endloop
  endfacet
  facet normal 0 0 -1
    outer loop
      vertex 51.55 0 0
      vertex 57.15 -3.63731 0
      vertex 49.475 -3.594 0
    endloop
  endfacet
  facet normal 0 0 -1
    outer loop
      vertex 45.325 -3.594 0
      vertex 65.175 -5.925 0
      vertex 37.6 -3.5507 0
    endloop
  endfacet
  facet normal 0 0 -1
    outer loop
      vertex 3.95 0 0
      vertex 9.85 -3.4641 0
      vertex 1.975 -3.4208 0
    endloop
  endfacet
  facet normal 0 1 0
    outer loop
      vertex -5.925 5.925 0
      vertex -5.925 5.925 3
      vertex 65.175 5.925 0
    endloop
  endfacet
  facet normal 0 1 0
    outer loop
      vertex 65.175 5.925 0
      vertex -5.925 5.925 3
      vertex 65.175 5.925 3
    endloop
  endfacet
  facet normal 0 0 1
    outer loop
      vertex -1.975 -3.4208 3
      vertex -5.925 -5.925 3
      vertex 65.175 -5.925 3
    endloop
  endfacet
  facet normal 0 0 1
    outer loop
      vertex 1.975 -3.4208 3
      vertex -1.975 -3.4208 3
      vertex 65.175 -5.925 3
    endloop
  endfacet
  facet normal 0 0 1
    outer loop
      vertex -3.95 0 3
      vertex -5.925 -5.925 3
      vertex -1.975 -3.4208 3
    endloop
  endfacet
  facet normal 0 0 1
    outer loop
      vertex 27.75 0 3
      vertex 25.725 -3.5074 3
      vertex 33.5 -3.5507 3
    endloop
  endfacet
  facet normal 0 0 1
    outer loop
      vertex -5.925 5.925 3
      vertex -5.925 -5.925 3
      vertex -3.95 0 3
    endloop
  endfacet
  facet normal 0 0 1
    outer loop
      vertex 13.85 3.4641 3
      vertex 15.85 0 3
      vertex 19.65 0 3
    endloop
  endfacet
  facet normal 0 0 1
    outer loop
      vertex -5.925 5.925 3
      vertex -1.975 3.4208 3
      vertex 1.975 3.4208 3
    endloop
  endfacet
  facet normal 0 0 1
    outer loop
      vertex 9.85 -3.4641 3
      vertex 1.975 -3.4208 3
      vertex 65.175 -5.925 3
    endloop
  endfacet
  facet normal 0 0 1
    outer loop
      vertex 13.85 -3.4641 3
      vertex 9.85 -3.4641 3
      vertex 65.175 -5.925 3
    endloop
  endfacet
  facet normal 0 0 1
    outer loop
      vertex 3.95 0 3
      vertex 1.975 -3.4208 3
      vertex 9.85 -3.4641 3
    endloop
  endfacet
  facet normal 0 0 1
    outer loop
      vertex 21.675 -3.5074 3
      vertex 19.65 0 3
      vertex 15.85 0 3
    endloop
  endfacet
  facet normal 0 0 1
    outer loop
      vertex 19.65 0 3
      vertex 21.675 3.5074 3
      vertex 13.85 3.4641 3
    endloop
  endfacet
  facet normal 0 0 1
    outer loop
      vertex 65.175 5.925 3
      vertex -5.925 5.925 3
      vertex 9.85 3.4641 3
    endloop
  endfacet
  facet normal 0 0 1
    outer loop
      vertex 65.175 5.925 3
      vertex 9.85 3.4641 3
      vertex 13.85 3.4641 3
    endloop
  endfacet
  facet normal 0 0 1
    outer loop
      vertex 49.475 -3.594 3
      vertex 45.325 -3.594 3
      vertex 65.175 -5.925 3
    endloop
  endfacet
  facet normal 0 0 1
    outer loop
      vertex 45.325 -3.594 3
      vertex 43.25 0 3
      vertex 39.65 0 3
    endloop
  endfacet
  facet normal 0 0 1
    outer loop
      vertex 21.675 -3.5074 3
      vertex 13.85 -3.4641 3
      vertex 65.175 -5.925 3
    endloop
  endfacet
  facet normal 0 0 1
    outer loop
      vertex 1.975 3.4208 3
      vertex 9.85 3.4641 3
      vertex -5.925 5.925 3
    endloop
  endfacet
  facet normal 0 0 1
    outer loop
      vertex 25.725 -3.5074 3
      vertex 21.675 -3.5074 3
      vertex 65.175 -5.925 3
    endloop
  endfacet
  facet normal 0 0 1
    outer loop
      vertex 57.15 -3.63731 3
      vertex 55.05 0 3
      vertex 51.55 0 3
    endloop
  endfacet
  facet normal 0 0 1
    outer loop
      vertex 65.175 5.925 3
      vertex 13.85 3.4641 3
      vertex 21.675 3.5074 3
    endloop
  endfacet
  facet normal 0 0 1
    outer loop
      vertex 49.475 3.594 3
      vertex 51.55 0 3
      vertex 55.05 0 3
    endloop
  endfacet
  facet normal 0 0 1
    outer loop
      vertex 65.175 5.925 3
      vertex 21.675 3.5074 3
      vertex 25.725 3.5074 3
    endloop
  endfacet
  facet normal 0 0 1
    outer loop
      vertex 37.6 3.5507 3
      vertex 39.65 0 3
      vertex 43.25 0 3
    endloop
  endfacet
  facet normal 0 0 1
    outer loop
      vertex 33.5 -3.5507 3
      vertex 25.725 -3.5074 3
      vertex 65.175 -5.925 3
    endloop
  endfacet
  facet normal 0 0 1
    outer loop
      vertex 37.6 -3.5507 3
      vertex 33.5 -3.5507 3
      vertex 65.175 -5.925 3
    endloop
  endfacet
  facet normal 0 0 1
    outer loop
      vertex 45.325 -3.594 3
      vertex 37.6 -3.5507 3
      vertex 65.175 -5.925 3
    endloop
  endfacet
  facet normal 0 0 1
    outer loop
      vertex 43.25 0 3
      vertex 45.325 3.594 3
      vertex 37.6 3.5507 3
    endloop
  endfacet
  facet normal 0 0 1
    outer loop
      vertex 39.65 0 3
      vertex 37.6 -3.5507 3
      vertex 45.325 -3.594 3
    endloop
  endfacet
  facet normal 0 0 1
    outer loop
      vertex 65.175 5.925 3
      vertex 25.725 3.5074 3
      vertex 33.5 3.5507 3
    endloop
  endfacet
  facet normal 0 0 1
    outer loop
      vertex 65.175 5.925 3
      vertex 33.5 3.5507 3
      vertex 37.6 3.5507 3
    endloop
  endfacet
  facet normal 0 0 1
    outer loop
      vertex 51.55 0 3
      vertex 49.475 -3.594 3
      vertex 57.15 -3.63731 3
    endloop
  endfacet
  facet normal 0 0 1
    outer loop
      vertex 31.45 0 3
      vertex 33.5 3.5507 3
      vertex 25.725 3.5074 3
    endloop
  endfacet
  facet normal 0 0 1
    outer loop
      vertex 33.5 -3.5507 3
      vertex 31.45 0 3
      vertex 27.75 0 3
    endloop
  endfacet
  facet normal 0 0 1
    outer loop
      vertex 65.175 5.925 3
      vertex 37.6 3.5507 3
      vertex 45.325 3.594 3
    endloop
  endfacet
  facet normal 0 0 1
    outer loop
      vertex 65.175 5.925 3
      vertex 45.325 3.594 3
      vertex 49.475 3.594 3
    endloop
  endfacet
  facet normal 0 0 1
    outer loop
      vertex 25.725 3.5074 3
      vertex 27.75 0 3
      vertex 31.45 0 3
    endloop
  endfacet
  facet normal 0 0 1
    outer loop
      vertex 61.35 -3.63731 3
      vertex 57.15 -3.63731 3
      vertex 65.175 -5.925 3
    endloop
  endfacet
  facet normal 0 0 1
    outer loop
      vertex 55.05 0 3
      vertex 57.15 3.63731 3
      vertex 49.475 3.594 3
    endloop
  endfacet
  facet normal 0 0 1
    outer loop
      vertex 57.15 -3.63731 3
      vertex 49.475 -3.594 3
      vertex 65.175 -5.925 3
    endloop
  endfacet
  facet normal 0 0 1
    outer loop
      vertex 65.175 5.925 3
      vertex 49.475 3.594 3
      vertex 57.15 3.63731 3
    endloop
  endfacet
  facet normal 0 0 1
    outer loop
      vertex 65.175 5.925 3
      vertex 57.15 3.63731 3
      vertex 61.35 3.63731 3
    endloop
  endfacet
  facet normal 0 0 1
    outer loop
      vertex 65.175 5.925 3
      vertex 63.45 0 3
      vertex 65.175 -5.925 3
    endloop
  endfacet
  facet normal 0 0 1
    outer loop
      vertex 65.175 5.925 3
      vertex 61.35 3.63731 3
      vertex 63.45 0 3
    endloop
  endfacet
  facet normal 0 0 1
    outer loop
      vertex 63.45 0 3
      vertex 61.35 -3.63731 3
      vertex 65.175 -5.925 3
    endloop
  endfacet
  facet normal 0 0 1
    outer loop
      vertex -3.95 0 3
      vertex -1.975 3.4208 3
      vertex -5.925 5.925 3
    endloop
  endfacet
  facet normal 0 0 1
    outer loop
      vertex 15.85 0 3
      vertex 13.85 -3.4641 3
      vertex 21.675 -3.5074 3
    endloop
  endfacet
  facet normal 0 0 1
    outer loop
      vertex 1.975 3.4208 3
      vertex 3.95 0 3
      vertex 7.85 0 3
    endloop
  endfacet
  facet normal 0 0 1
    outer loop
      vertex 9.85 -3.4641 3
      vertex 7.85 0 3
      vertex 3.95 0 3
    endloop
  endfacet
  facet normal 0 0 1
    outer loop
      vertex 7.85 0 3
      vertex 9.85 3.4641 3
      vertex 1.975 3.4208 3
    endloop
  endfacet
  facet normal 1 0 0
    outer loop
      vertex 65.175 -5.925 3
      vertex 65.175 -5.925 0
      vertex 65.175 5.925 0
    endloop
  endfacet
  facet normal 1 0 0
    outer loop
      vertex 65.175 5.925 3
      vertex 65.175 -5.925 3
      vertex 65.175 5.925 0
    endloop
  endfacet
  facet normal 0.866025 0.5 0
    outer loop
      vertex -3.95 0 3
      vertex -1.975 -3.4208 3
      vertex -1.975 -3.4208 0
    endloop
  endfacet
  facet normal 0.866025 0.5 0
    outer loop
      vertex -3.95 0 0
      vertex -3.95 0 3
      vertex -1.975 -3.4208 0
    endloop
  endfacet
  facet normal 0.866025 -0.5 0
    outer loop
      vertex -1.975 3.4208 0
      vertex -1.975 3.4208 3
      vertex -3.95 0 3
    endloop
  endfacet
  facet normal 0.866025 -0.5 0
    outer loop
      vertex -3.95 0 0
      vertex -1.975 3.4208 0
      vertex -3.95 0 3
    endloop
  endfacet
  facet normal 0 -1 0
    outer loop
      vertex 1.975 3.4208 0
      vertex 1.975 3.4208 3
      vertex -1.975 3.4208 3
    endloop
  endfacet
  facet normal 0 -1 0
    outer loop
      vertex -1.975 3.4208 0
      vertex 1.975 3.4208 0
      vertex -1.975 3.4208 3
    endloop
  endfacet
  facet normal -0.866025 -0.5 0
    outer loop
      vertex 3.95 0 3
      vertex 1.975 3.4208 3
      vertex 3.95 0 0
    endloop
  endfacet
  facet normal -0.866025 -0.5 0
    outer loop
      vertex 3.95 0 0
      vertex 1.975 3.4208 3
      vertex 1.975 3.4208 0
    endloop
  endfacet
  facet normal -0.866025 0.5 0
    outer loop
      vertex 3.95 0 3
      vertex 3.95 0 0
      vertex 1.975 -3.4208 3
    endloop
  endfacet
  facet normal -0.866025 0.5 0
    outer loop
      vertex 1.975 -3.4208 3
      vertex 3.95 0 0
      vertex 1.975 -3.4208 0
    endloop
  endfacet
  facet normal 0 1 0
    outer loop
      vertex 1.975 -3.4208 3
      vertex 1.975 -3.4208 0
      vertex -1.975 -3.4208 3
    endloop
  endfacet
  facet normal 0 1 0
    outer loop
      vertex -1.975 -3.4208 3
      vertex 1.975 -3.4208 0
      vertex -1.975 -3.4208 0
    endloop
  endfacet
  facet normal 0.866025 0.5 0
    outer loop
      vertex 7.85 0 3
      vertex 9.85 -3.4641 3
      vertex 9.85 -3.4641 0
    endloop
  endfacet
  facet normal 0.866025 0.5 0
    outer loop
      vertex 7.85 0 0
      vertex 7.85 0 3
      vertex 9.85 -3.4641 0
    endloop
  endfacet
  facet normal 0.866025 -0.5 0
    outer loop
      vertex 9.85 3.4641 0
      vertex 9.85 3.4641 3
      vertex 7.85 0 3
    endloop
  endfacet
  facet normal 0.866025 -0.5 0
    outer loop
      vertex 7.85 0 0
      vertex 9.85 3.4641 0
      vertex 7.85 0 3
    endloop
  endfacet
  facet normal 0 -1 0
    outer loop
      vertex 13.85 3.4641 0
      vertex 13.85 3.4641 3
      vertex 9.85 3.4641 3
    endloop
  endfacet
  facet normal 0 -1 0
    outer loop
      vertex 9.85 3.4641 0
      vertex 13.85 3.4641 0
      vertex 9.85 3.4641 3
    endloop
  endfacet
  facet normal -0.866025 -0.5 0
    outer loop
      vertex 15.85 0 3
      vertex 13.85 3.4641 3
      vertex 15.85 0 0
    endloop
  endfacet
  facet normal -0.866025 -0.5 0
    outer loop
      vertex 15.85 0 0
      vertex 13.85 3.4641 3
      vertex 13.85 3.4641 0
    endloop
  endfacet
  facet normal -0.866025 0.5 0
    outer loop
      vertex 15.85 0 3
      vertex 15.85 0 0
      vertex 13.85 -3.4641 3
    endloop
  endfacet
  facet normal -0.866025 0.5 0
    outer loop
      vertex 13.85 -3.4641 3
      vertex 15.85 0 0
      vertex 13.85 -3.4641 0
    endloop
  endfacet
  facet normal 0 1 0
    outer loop
      vertex 13.85 -3.4641 3
      vertex 13.85 -3.4641 0
      vertex 9.85 -3.4641 3
    endloop
  endfacet
  facet normal 0 1 0
    outer loop
      vertex 9.85 -3.4641 3
      vertex 13.85 -3.4641 0
      vertex 9.85 -3.4641 0
    endloop
  endfacet
  facet normal 0.866025 0.5 0
    outer loop
      vertex 19.65 0 3
      vertex 21.675 -3.5074 3
      vertex 21.675 -3.5074 0
    endloop
  endfacet
  facet normal 0.866025 0.5 0
    outer loop
      vertex 19.65 0 0
      vertex 19.65 0 3
      vertex 21.675 -3.5074 0
    endloop
  endfacet
  facet normal 0.866025 -0.5 0
    outer loop
      vertex 21.675 3.5074 0
      vertex 21.675 3.5074 3
      vertex 19.65 0 3
    endloop
  endfacet
  facet normal 0.866025 -0.5 0
    outer loop
      vertex 19.65 0 0
      vertex 21.675 3.5074 0
      vertex 19.65 0 3
    endloop
  endfacet
  facet normal 0 -1 0
    outer loop
      vertex 25.725 3.5074 0
      vertex 25.725 3.5074 3
      vertex 21.675 3.5074 3
    endloop
  endfacet
  facet normal 0 -1 0
    outer loop
      vertex 21.675 3.5074 0
      vertex 25.725 3.5074 0
      vertex 21.675 3.5074 3
    endloop
  endfacet
  facet normal -0.866025 -0.5 0
    outer loop
      vertex 27.75 0 3
      vertex 25.725 3.5074 3
      vertex 27.75 0 0
    endloop
  endfacet
  facet normal -0.866025 -0.5 0
    outer loop
      vertex 27.75 0 0
      vertex 25.725 3.5074 3
      vertex 25.725 3.5074 0
    endloop
  endfacet
  facet normal -0.866025 0.5 0
    outer loop
      vertex 27.75 0 3
      vertex 27.75 0 0
      vertex 25.725 -3.5074 3
    endloop
  endfacet
  facet normal -0.866025 0.5 0
    outer loop
      vertex 25.725 -3.5074 3
      vertex 27.75 0 0
      vertex 25.725 -3.5074 0
    endloop
  endfacet
  facet normal 0 1 0
    outer loop
      vertex 25.725 -3.5074 3
      vertex 25.725 -3.5074 0
      vertex 21.675 -3.5074 3
    endloop
  endfacet
  facet normal 0 1 0
    outer loop
      vertex 21.675 -3.5074 3
      vertex 25.725 -3.5074 0
      vertex 21.675 -3.5074 0
    endloop
  endfacet
  facet normal 0.866025 0.5 0
    outer loop
      vertex 31.45 0 3
      vertex 33.5 -3.5507 3
      vertex 33.5 -3.5507 0
    endloop
  endfacet
  facet normal 0.866025 0.5 0
    outer loop
      vertex 31.45 0 0
      vertex 31.45 0 3
      vertex 33.5 -3.5507 0
    endloop
  endfacet
  facet normal 0.866025 -0.5 0
    outer loop
      vertex 33.5 3.5507 0
      vertex 33.5 3.5507 3
      vertex 31.45 0 3
    endloop
  endfacet
  facet normal 0.866025 -0.5 0
    outer loop
      vertex 31.45 0 0
      vertex 33.5 3.5507 0
      vertex 31.45 0 3
    endloop
  endfacet
  facet normal 0 -1 0
    outer loop
      vertex 37.6 3.5507 0
      vertex 37.6 3.5507 3
      vertex 33.5 3.5507 3
    endloop
  endfacet
  facet normal 0 -1 0
    outer loop
      vertex 33.5 3.5507 0
      vertex 37.6 3.5507 0
      vertex 33.5 3.5507 3
    endloop
  endfacet
  facet normal -0.866025 -0.5 0
    outer loop
      vertex 39.65 0 3
      vertex 37.6 3.5507 3
      vertex 39.65 0 0
    endloop
  endfacet
  facet normal -0.866025 -0.5 0
    outer loop
      vertex 39.65 0 0
      vertex 37.6 3.5507 3
      vertex 37.6 3.5507 0
    endloop
  endfacet
  facet normal -0.866025 0.5 0
    outer loop
      vertex 39.65 0 3
      vertex 39.65 0 0
      vertex 37.6 -3.5507 3
    endloop
  endfacet
  facet normal -0.866025 0.5 0
    outer loop
      vertex 37.6 -3.5507 3
      vertex 39.65 0 0
      vertex 37.6 -3.5507 0
    endloop
  endfacet
  facet normal 0 1 0
    outer loop
      vertex 37.6 -3.5507 3
      vertex 37.6 -3.5507 0
      vertex 33.5 -3.5507 3
    endloop
  endfacet
  facet normal 0 1 0
    outer loop
      vertex 33.5 -3.5507 3
      vertex 37.6 -3.5507 0
      vertex 33.5 -3.5507 0
    endloop
  endfacet
  facet normal 0.866025 0.5 0
    outer loop
      vertex 43.25 0 3
      vertex 45.325 -3.594 3
      vertex 45.325 -3.594 0
    endloop
  endfacet
  facet normal 0.866025 0.5 0
    outer loop
      vertex 43.25 0 0
      vertex 43.25 0 3
      vertex 45.325 -3.594 0
    endloop
  endfacet
  facet normal 0.866025 -0.5 0
    outer loop
      vertex 45.325 3.594 0
      vertex 45.325 3.594 3
      vertex 43.25 0 3
    endloop
  endfacet
  facet normal 0.866025 -0.5 0
    outer loop
      vertex 43.25 0 0
      vertex 45.325 3.594 0
      vertex 43.25 0 3
    endloop
  endfacet
  facet normal 0 -1 0
    outer loop
      vertex 49.475 3.594 0
      vertex 49.475 3.594 3
      vertex 45.325 3.594 3
    endloop
  endfacet
  facet normal 0 -1 0
    outer loop
      vertex 45.325 3.594 0
      vertex 49.475 3.594 0
      vertex 45.325 3.594 3
    endloop
  endfacet
  facet normal -0.866025 -0.5 0
    outer loop
      vertex 51.55 0 3
      vertex 49.475 3.594 3
      vertex 51.55 0 0
    endloop
  endfacet
  facet normal -0.866025 -0.5 0
    outer loop
      vertex 51.55 0 0
      vertex 49.475 3.594 3
      vertex 49.475 3.594 0
    endloop
  endfacet
  facet normal -0.866025 0.5 0
    outer loop
      vertex 51.55 0 3
      vertex 51.55 0 0
      vertex 49.475 -3.594 3
    endloop
  endfacet
  facet normal -0.866025 0.5 0
    outer loop
      vertex 49.475 -3.594 3
      vertex 51.55 0 0
      vertex 49.475 -3.594 0
    endloop
  endfacet
  facet normal 0 1 0
    outer loop
      vertex 49.475 -3.594 3
      vertex 49.475 -3.594 0
      vertex 45.325 -3.594 3
    endloop
  endfacet
  facet normal 0 1 0
    outer loop
      vertex 45.325 -3.594 3
      vertex 49.475 -3.594 0
      vertex 45.325 -3.594 0
    endloop
  endfacet
  facet normal 0.866025 0.5 0
    outer loop
      vertex 55.05 0 3
      vertex 57.15 -3.63731 3
      vertex 57.15 -3.63731 0
    endloop
  endfacet
  facet normal 0.866025 0.5 0
    outer loop
      vertex 55.05 0 0
      vertex 55.05 0 3
      vertex 57.15 -3.63731 0
    endloop
  endfacet
  facet normal 0.866025 -0.5 0
    outer loop
      vertex 57.15 3.63731 0
      vertex 57.15 3.63731 3
      vertex 55.05 0 3
    endloop
  endfacet
  facet normal 0.866025 -0.5 0
    outer loop
      vertex 55.05 0 0
      vertex 57.15 3.63731 0
      vertex 55.05 0 3
    endloop
  endfacet
  facet normal 0 -1 0
    outer loop
      vertex 61.35 3.63731 0
      vertex 61.35 3.63731 3
      vertex 57.15 3.63731 3
    endloop
  endfacet
  facet normal 0 -1 0
    outer loop
      vertex 57.15 3.63731 0
      vertex 61.35 3.63731 0
      vertex 57.15 3.63731 3
    endloop
  endfacet
  facet normal -0.866025 -0.5 0
    outer loop
      vertex 63.45 0 3
      vertex 61.35 3.63731 3
      vertex 63.45 0 0
    endloop
  endfacet
  facet normal -0.866025 -0.5 0
    outer loop
      vertex 63.45 0 0
      vertex 61.35 3.63731 3
      vertex 61.35 3.63731 0
    endloop
  endfacet
  facet normal -0.866025 0.5 0
    outer loop
      vertex 63.45 0 3
      vertex 63.45 0 0
      vertex 61.35 -3.63731 3
    endloop
  endfacet
  facet normal -0.866025 0.5 0
    outer loop
      vertex 61.35 -3.63731 3
      vertex 63.45 0 0
      vertex 61.35 -3.63731 0
    endloop
  endfacet
  facet normal 0 1 0
    outer loop
      vertex 61.35 -3.63731 3
      vertex 61.35 -3.63731 0
      vertex 57.15 -3.63731 3
    endloop
  endfacet
  facet normal 0 1 0
    outer loop
      vertex 57.15 -3.63731 3
      vertex 61.35 -3.63731 0
      vertex 57.15 -3.63731 0
    endloop
  endfacet
endsolid OpenSCAD_Model
