solid OpenSCAD_Model
  facet normal -1 0 0
    outer loop
      vertex 0 0 0
      vertex 0 10 3
      vertex 0 10 0
    endloop
  endfacet
  facet normal -1 -0 0
    outer loop
      vertex 0 10 3
      vertex 0 0 0
      vertex 0 0 3
    endloop
  endfacet
  facet normal 0 0 1
    outer loop
      vertex 6.17131 3.18914 3
      vertex 3.77994 3.17802 3
      vertex 3.8 3 3
    endloop
  endfacet
  facet normal 0 0 1
    outer loop
      vertex 6.33544 3.52997 3
      vertex 3.72077 3.34711 3
      vertex 3.77994 3.17802 3
    endloop
  endfacet
  facet normal 0 0 1
    outer loop
      vertex 6.40768 6.25726 3
      vertex 3.56114 6.29635 3
      vertex 6.33544 3.52997 3
    endloop
  endfacet
  facet normal 0 0 1
    outer loop
      vertex 6.33544 3.52997 3
      vertex 3.62546 3.49879 3
      vertex 3.72077 3.34711 3
    endloop
  endfacet
  facet normal 0 0 1
    outer loop
      vertex 6.33544 3.52997 3
      vertex 3.56114 6.29635 3
      vertex 3.62546 3.49879 3
    endloop
  endfacet
  facet normal 0 0 1
    outer loop
      vertex 3.56114 6.29635 3
      vertex 3.49879 3.62546 3
      vertex 3.62546 3.49879 3
    endloop
  endfacet
  facet normal -0 0 1
    outer loop
      vertex 3.3905 6.18913 3
      vertex 3.49879 3.62546 3
      vertex 3.56114 6.29635 3
    endloop
  endfacet
  facet normal 0 0 1
    outer loop
      vertex 3.3905 6.18913 3
      vertex 3.34711 3.72077 3
      vertex 3.49879 3.62546 3
    endloop
  endfacet
  facet normal -0 0 1
    outer loop
      vertex 3.20027 6.12256 3
      vertex 3.34711 3.72077 3
      vertex 3.3905 6.18913 3
    endloop
  endfacet
  facet normal 0 0 1
    outer loop
      vertex 3.20027 6.12256 3
      vertex 3.17802 3.77994 3
      vertex 3.34711 3.72077 3
    endloop
  endfacet
  facet normal -0 0 1
    outer loop
      vertex 3 6.1 3
      vertex 3.17802 3.77994 3
      vertex 3.20027 6.12256 3
    endloop
  endfacet
  facet normal 0 0 1
    outer loop
      vertex 3 6.1 3
      vertex 3 3.8 3
      vertex 3.17802 3.77994 3
    endloop
  endfacet
  facet normal 0 0 1
    outer loop
      vertex 3 6.1 3
      vertex 2.82198 3.77994 3
      vertex 3 3.8 3
    endloop
  endfacet
  facet normal 0 0 1
    outer loop
      vertex 2.79973 6.12256 3
      vertex 2.82198 3.77994 3
      vertex 3 6.1 3
    endloop
  endfacet
  facet normal 0 0 1
    outer loop
      vertex 2.79973 6.12256 3
      vertex 2.65289 3.72077 3
      vertex 2.82198 3.77994 3
    endloop
  endfacet
  facet normal 0 0 1
    outer loop
      vertex 2.6095 6.18913 3
      vertex 2.65289 3.72077 3
      vertex 2.79973 6.12256 3
    endloop
  endfacet
  facet normal 0 0 1
    outer loop
      vertex 2.6095 6.18913 3
      vertex 2.50121 3.62546 3
      vertex 2.65289 3.72077 3
    endloop
  endfacet
  facet normal 0 0 1
    outer loop
      vertex 2.43886 6.29635 3
      vertex 2.50121 3.62546 3
      vertex 2.6095 6.18913 3
    endloop
  endfacet
  facet normal 0 0 1
    outer loop
      vertex 2.43886 6.29635 3
      vertex 2.37453 3.49879 3
      vertex 2.50121 3.62546 3
    endloop
  endfacet
  facet normal 0 0 1
    outer loop
      vertex 2.29635 6.43886 3
      vertex 2.37453 3.49879 3
      vertex 2.43886 6.29635 3
    endloop
  endfacet
  facet normal 0 0 1
    outer loop
      vertex 2.29635 6.43886 3
      vertex 2.27922 3.34711 3
      vertex 2.37453 3.49879 3
    endloop
  endfacet
  facet normal 0 0 1
    outer loop
      vertex 2.18913 6.6095 3
      vertex 2.27922 3.34711 3
      vertex 2.29635 6.43886 3
    endloop
  endfacet
  facet normal 0 0 1
    outer loop
      vertex 2.27922 3.34711 3
      vertex 2.18913 6.6095 3
      vertex 2.22006 3.17802 3
    endloop
  endfacet
  facet normal 0 0 1
    outer loop
      vertex 2.12256 6.79973 3
      vertex 2.22006 3.17802 3
      vertex 2.18913 6.6095 3
    endloop
  endfacet
  facet normal 0 0 1
    outer loop
      vertex 10 0 3
      vertex 7.82869 3.18914 3
      vertex 7.85 3 3
    endloop
  endfacet
  facet normal 0 0 1
    outer loop
      vertex 7.85592 6.58781 3
      vertex 7.76582 3.3688 3
      vertex 7.82869 3.18914 3
    endloop
  endfacet
  facet normal -0 0 1
    outer loop
      vertex 7.74274 6.40768 3
      vertex 7.76582 3.3688 3
      vertex 7.85592 6.58781 3
    endloop
  endfacet
  facet normal 0 0 1
    outer loop
      vertex 7.74274 6.40768 3
      vertex 7.66456 3.52997 3
      vertex 7.76582 3.3688 3
    endloop
  endfacet
  facet normal -0 0 1
    outer loop
      vertex 7.59231 6.25726 3
      vertex 7.66456 3.52997 3
      vertex 7.74274 6.40768 3
    endloop
  endfacet
  facet normal 0 0 1
    outer loop
      vertex 7.59231 6.25726 3
      vertex 7.52997 3.66456 3
      vertex 7.66456 3.52997 3
    endloop
  endfacet
  facet normal -0 0 1
    outer loop
      vertex 7.41219 6.14408 3
      vertex 7.52997 3.66456 3
      vertex 7.59231 6.25726 3
    endloop
  endfacet
  facet normal 0 0 1
    outer loop
      vertex 7.41219 6.14408 3
      vertex 7.3688 3.76582 3
      vertex 7.52997 3.66456 3
    endloop
  endfacet
  facet normal -0 0 1
    outer loop
      vertex 7.21139 6.07382 3
      vertex 7.3688 3.76582 3
      vertex 7.41219 6.14408 3
    endloop
  endfacet
  facet normal 0 0 1
    outer loop
      vertex 7.21139 6.07382 3
      vertex 7.18914 3.82869 3
      vertex 7.3688 3.76582 3
    endloop
  endfacet
  facet normal -0 0 1
    outer loop
      vertex 7 6.05 3
      vertex 7.18914 3.82869 3
      vertex 7.21139 6.07382 3
    endloop
  endfacet
  facet normal 0 0 1
    outer loop
      vertex 7 6.05 3
      vertex 7 3.85 3
      vertex 7.18914 3.82869 3
    endloop
  endfacet
  facet normal 0 0 1
    outer loop
      vertex 7 6.05 3
      vertex 6.81086 3.82869 3
      vertex 7 3.85 3
    endloop
  endfacet
  facet normal 0 0 1
    outer loop
      vertex 6.7886 6.07382 3
      vertex 6.81086 3.82869 3
      vertex 7 6.05 3
    endloop
  endfacet
  facet normal 0 0 1
    outer loop
      vertex 6.7886 6.07382 3
      vertex 6.6312 3.76582 3
      vertex 6.81086 3.82869 3
    endloop
  endfacet
  facet normal 0 0 1
    outer loop
      vertex 6.58781 6.14408 3
      vertex 6.6312 3.76582 3
      vertex 6.7886 6.07382 3
    endloop
  endfacet
  facet normal 0 0 1
    outer loop
      vertex 6.58781 6.14408 3
      vertex 6.47003 3.66456 3
      vertex 6.6312 3.76582 3
    endloop
  endfacet
  facet normal 0 0 1
    outer loop
      vertex 6.40768 6.25726 3
      vertex 6.47003 3.66456 3
      vertex 6.58781 6.14408 3
    endloop
  endfacet
  facet normal 0 0 1
    outer loop
      vertex 6.40768 6.25726 3
      vertex 6.33544 3.52997 3
      vertex 6.47003 3.66456 3
    endloop
  endfacet
  facet normal 0 0 1
    outer loop
      vertex 3.56114 6.29635 3
      vertex 6.25726 6.40768 3
      vertex 3.70365 6.43886 3
    endloop
  endfacet
  facet normal 0 0 1
    outer loop
      vertex 6.14408 6.58781 3
      vertex 3.70365 6.43886 3
      vertex 6.25726 6.40768 3
    endloop
  endfacet
  facet normal 0 0 1
    outer loop
      vertex 6.25726 6.40768 3
      vertex 3.56114 6.29635 3
      vertex 6.40768 6.25726 3
    endloop
  endfacet
  facet normal 0 0 1
    outer loop
      vertex 3.77994 3.17802 3
      vertex 6.23418 3.3688 3
      vertex 6.33544 3.52997 3
    endloop
  endfacet
  facet normal 0 0 1
    outer loop
      vertex 3.70365 6.43886 3
      vertex 6.14408 6.58781 3
      vertex 3.81087 6.6095 3
    endloop
  endfacet
  facet normal 0 0 1
    outer loop
      vertex 7.92618 6.7886 3
      vertex 10 10 3
      vertex 7.95 7 3
    endloop
  endfacet
  facet normal 0 0 1
    outer loop
      vertex 10 10 3
      vertex 7.92618 7.21139 3
      vertex 7.95 7 3
    endloop
  endfacet
  facet normal 0 0 1
    outer loop
      vertex 10 10 3
      vertex 7.85592 7.41219 3
      vertex 7.92618 7.21139 3
    endloop
  endfacet
  facet normal 0 0 1
    outer loop
      vertex 10 10 3
      vertex 7.74274 7.59231 3
      vertex 7.85592 7.41219 3
    endloop
  endfacet
  facet normal 0 0 1
    outer loop
      vertex 10 10 3
      vertex 7.59231 7.74274 3
      vertex 7.74274 7.59231 3
    endloop
  endfacet
  facet normal 0 0 1
    outer loop
      vertex 10 10 3
      vertex 7.41219 7.85592 3
      vertex 7.59231 7.74274 3
    endloop
  endfacet
  facet normal 0 0 1
    outer loop
      vertex 10 10 3
      vertex 7.21139 7.92618 3
      vertex 7.41219 7.85592 3
    endloop
  endfacet
  facet normal 0 0 1
    outer loop
      vertex 10 10 3
      vertex 7 7.95 3
      vertex 7.21139 7.92618 3
    endloop
  endfacet
  facet normal 0 0 1
    outer loop
      vertex 10 10 3
      vertex 6.7886 7.92618 3
      vertex 7 7.95 3
    endloop
  endfacet
  facet normal -0 0 1
    outer loop
      vertex 0 10 3
      vertex 6.7886 7.92618 3
      vertex 10 10 3
    endloop
  endfacet
  facet normal 0 -0 1
    outer loop
      vertex 3.20027 7.87743 3
      vertex 6.7886 7.92618 3
      vertex 0 10 3
    endloop
  endfacet
  facet normal 0 0 1
    outer loop
      vertex 6.07382 7.21139 3
      vertex 3.9 7 3
      vertex 6.05 7 3
    endloop
  endfacet
  facet normal -0 0 1
    outer loop
      vertex 3.81087 7.3905 3
      vertex 6.07382 7.21139 3
      vertex 6.14408 7.41219 3
    endloop
  endfacet
  facet normal -0 0 1
    outer loop
      vertex 3.70365 7.56114 3
      vertex 6.14408 7.41219 3
      vertex 6.25726 7.59231 3
    endloop
  endfacet
  facet normal -0 0 1
    outer loop
      vertex 3.56114 7.70365 3
      vertex 6.25726 7.59231 3
      vertex 6.40768 7.74274 3
    endloop
  endfacet
  facet normal 0 -0 1
    outer loop
      vertex 3.3905 7.81087 3
      vertex 6.58781 7.85592 3
      vertex 3.20027 7.87743 3
    endloop
  endfacet
  facet normal 0 0 1
    outer loop
      vertex 6.07382 7.21139 3
      vertex 3.87743 7.20027 3
      vertex 3.9 7 3
    endloop
  endfacet
  facet normal 0 0 1
    outer loop
      vertex 6.07382 7.21139 3
      vertex 3.81087 7.3905 3
      vertex 3.87743 7.20027 3
    endloop
  endfacet
  facet normal 0 0 1
    outer loop
      vertex 6.14408 7.41219 3
      vertex 3.70365 7.56114 3
      vertex 3.81087 7.3905 3
    endloop
  endfacet
  facet normal 0 0 1
    outer loop
      vertex 6.25726 7.59231 3
      vertex 3.56114 7.70365 3
      vertex 3.70365 7.56114 3
    endloop
  endfacet
  facet normal 0 0 1
    outer loop
      vertex 6.40768 7.74274 3
      vertex 3.3905 7.81087 3
      vertex 3.56114 7.70365 3
    endloop
  endfacet
  facet normal 0 0 1
    outer loop
      vertex 6.58781 7.85592 3
      vertex 3.3905 7.81087 3
      vertex 6.40768 7.74274 3
    endloop
  endfacet
  facet normal 0 0 1
    outer loop
      vertex 6.7886 7.92618 3
      vertex 3.20027 7.87743 3
      vertex 6.58781 7.85592 3
    endloop
  endfacet
  facet normal 0 0 1
    outer loop
      vertex 3.20027 7.87743 3
      vertex 0 10 3
      vertex 3 7.9 3
    endloop
  endfacet
  facet normal 0 0 1
    outer loop
      vertex 2.12256 7.20027 3
      vertex 0 10 3
      vertex 2.1 7 3
    endloop
  endfacet
  facet normal 0 0 1
    outer loop
      vertex 2.18913 7.3905 3
      vertex 0 10 3
      vertex 2.12256 7.20027 3
    endloop
  endfacet
  facet normal 0 0 1
    outer loop
      vertex 2.29635 7.56114 3
      vertex 0 10 3
      vertex 2.18913 7.3905 3
    endloop
  endfacet
  facet normal 0 0 1
    outer loop
      vertex 2.43886 7.70365 3
      vertex 0 10 3
      vertex 2.29635 7.56114 3
    endloop
  endfacet
  facet normal 0 0 1
    outer loop
      vertex 2.6095 7.81087 3
      vertex 0 10 3
      vertex 2.43886 7.70365 3
    endloop
  endfacet
  facet normal 0 0 1
    outer loop
      vertex 2.79973 7.87743 3
      vertex 0 10 3
      vertex 2.6095 7.81087 3
    endloop
  endfacet
  facet normal 0 0 1
    outer loop
      vertex 3 7.9 3
      vertex 0 10 3
      vertex 2.79973 7.87743 3
    endloop
  endfacet
  facet normal 0 0 1
    outer loop
      vertex 10 10 3
      vertex 7.92618 6.7886 3
      vertex 10 0 3
    endloop
  endfacet
  facet normal 0 0 1
    outer loop
      vertex 7.82869 3.18914 3
      vertex 7.92618 6.7886 3
      vertex 7.85592 6.58781 3
    endloop
  endfacet
  facet normal 0 0 1
    outer loop
      vertex 7.92618 6.7886 3
      vertex 7.82869 3.18914 3
      vertex 10 0 3
    endloop
  endfacet
  facet normal -0 0 1
    outer loop
      vertex 7.82869 2.81086 3
      vertex 10 0 3
      vertex 7.85 3 3
    endloop
  endfacet
  facet normal -0 0 1
    outer loop
      vertex 7.76582 2.6312 3
      vertex 10 0 3
      vertex 7.82869 2.81086 3
    endloop
  endfacet
  facet normal -0 0 1
    outer loop
      vertex 7.66456 2.47003 3
      vertex 10 0 3
      vertex 7.76582 2.6312 3
    endloop
  endfacet
  facet normal -0 0 1
    outer loop
      vertex 7.52997 2.33544 3
      vertex 10 0 3
      vertex 7.66456 2.47003 3
    endloop
  endfacet
  facet normal -0 0 1
    outer loop
      vertex 7.3688 2.23418 3
      vertex 10 0 3
      vertex 7.52997 2.33544 3
    endloop
  endfacet
  facet normal -0 0 1
    outer loop
      vertex 7.18914 2.17131 3
      vertex 10 0 3
      vertex 7.3688 2.23418 3
    endloop
  endfacet
  facet normal -0 0 1
    outer loop
      vertex 7 2.15 3
      vertex 10 0 3
      vertex 7.18914 2.17131 3
    endloop
  endfacet
  facet normal 0 0 1
    outer loop
      vertex 6.81086 2.17131 3
      vertex 10 0 3
      vertex 7 2.15 3
    endloop
  endfacet
  facet normal -0 0 1
    outer loop
      vertex 3.17802 2.22006 3
      vertex 6.81086 2.17131 3
      vertex 6.6312 2.23418 3
    endloop
  endfacet
  facet normal -0 0 1
    outer loop
      vertex 3.34711 2.27922 3
      vertex 6.6312 2.23418 3
      vertex 6.47003 2.33544 3
    endloop
  endfacet
  facet normal -0 0 1
    outer loop
      vertex 3.81087 6.6095 3
      vertex 6.14408 6.58781 3
      vertex 6.07382 6.7886 3
    endloop
  endfacet
  facet normal -0 0 1
    outer loop
      vertex 3.87743 6.79973 3
      vertex 6.07382 6.7886 3
      vertex 6.05 7 3
    endloop
  endfacet
  facet normal 0 0 1
    outer loop
      vertex 3.87743 6.79973 3
      vertex 6.05 7 3
      vertex 3.9 7 3
    endloop
  endfacet
  facet normal 0 0 1
    outer loop
      vertex 6.07382 6.7886 3
      vertex 3.87743 6.79973 3
      vertex 3.81087 6.6095 3
    endloop
  endfacet
  facet normal 0 0 1
    outer loop
      vertex 3.77994 3.17802 3
      vertex 6.17131 3.18914 3
      vertex 6.23418 3.3688 3
    endloop
  endfacet
  facet normal 0 0 1
    outer loop
      vertex 6.17131 3.18914 3
      vertex 3.8 3 3
      vertex 6.15 3 3
    endloop
  endfacet
  facet normal 0 0 1
    outer loop
      vertex 6.15 3 3
      vertex 3.8 3 3
      vertex 6.17131 2.81086 3
    endloop
  endfacet
  facet normal -0 0 1
    outer loop
      vertex 3.77994 2.82198 3
      vertex 6.17131 2.81086 3
      vertex 3.8 3 3
    endloop
  endfacet
  facet normal 0 0 1
    outer loop
      vertex 3.72077 2.65289 3
      vertex 6.17131 2.81086 3
      vertex 3.77994 2.82198 3
    endloop
  endfacet
  facet normal 0 0 1
    outer loop
      vertex 6.17131 2.81086 3
      vertex 3.72077 2.65289 3
      vertex 6.23418 2.6312 3
    endloop
  endfacet
  facet normal 0 0 1
    outer loop
      vertex 3.62546 2.50121 3
      vertex 6.23418 2.6312 3
      vertex 3.72077 2.65289 3
    endloop
  endfacet
  facet normal 0 0 1
    outer loop
      vertex 6.23418 2.6312 3
      vertex 3.62546 2.50121 3
      vertex 6.33544 2.47003 3
    endloop
  endfacet
  facet normal 0 0 1
    outer loop
      vertex 3.49879 2.37453 3
      vertex 6.33544 2.47003 3
      vertex 3.62546 2.50121 3
    endloop
  endfacet
  facet normal 0 0 1
    outer loop
      vertex 6.33544 2.47003 3
      vertex 3.49879 2.37453 3
      vertex 6.47003 2.33544 3
    endloop
  endfacet
  facet normal 0 0 1
    outer loop
      vertex 3.34711 2.27922 3
      vertex 6.47003 2.33544 3
      vertex 3.49879 2.37453 3
    endloop
  endfacet
  facet normal 0 0 1
    outer loop
      vertex 6.6312 2.23418 3
      vertex 3.34711 2.27922 3
      vertex 3.17802 2.22006 3
    endloop
  endfacet
  facet normal 0 0 1
    outer loop
      vertex 6.81086 2.17131 3
      vertex 3.17802 2.22006 3
      vertex 0 0 3
    endloop
  endfacet
  facet normal 0 0 1
    outer loop
      vertex 0 0 3
      vertex 3.17802 2.22006 3
      vertex 3 2.2 3
    endloop
  endfacet
  facet normal 0 0 1
    outer loop
      vertex 0 0 3
      vertex 3 2.2 3
      vertex 2.82198 2.22006 3
    endloop
  endfacet
  facet normal 0 0 1
    outer loop
      vertex 0 0 3
      vertex 2.22006 3.17802 3
      vertex 2.12256 6.79973 3
    endloop
  endfacet
  facet normal 0 0 1
    outer loop
      vertex 0 10 3
      vertex 2.12256 6.79973 3
      vertex 2.1 7 3
    endloop
  endfacet
  facet normal 0 0 1
    outer loop
      vertex 2.12256 6.79973 3
      vertex 0 10 3
      vertex 0 0 3
    endloop
  endfacet
  facet normal 0 0 1
    outer loop
      vertex 2.22006 3.17802 3
      vertex 0 0 3
      vertex 2.2 3 3
    endloop
  endfacet
  facet normal 0 0 1
    outer loop
      vertex 6.81086 2.17131 3
      vertex 0 0 3
      vertex 10 0 3
    endloop
  endfacet
  facet normal 0 0 1
    outer loop
      vertex 2.65289 2.27922 3
      vertex 0 0 3
      vertex 2.82198 2.22006 3
    endloop
  endfacet
  facet normal 0 0 1
    outer loop
      vertex 2.50121 2.37453 3
      vertex 0 0 3
      vertex 2.65289 2.27922 3
    endloop
  endfacet
  facet normal 0 0 1
    outer loop
      vertex 2.37453 2.50121 3
      vertex 0 0 3
      vertex 2.50121 2.37453 3
    endloop
  endfacet
  facet normal 0 0 1
    outer loop
      vertex 2.27922 2.65289 3
      vertex 0 0 3
      vertex 2.37453 2.50121 3
    endloop
  endfacet
  facet normal 0 0 1
    outer loop
      vertex 2.22006 2.82198 3
      vertex 0 0 3
      vertex 2.27922 2.65289 3
    endloop
  endfacet
  facet normal 0 0 1
    outer loop
      vertex 2.2 3 3
      vertex 0 0 3
      vertex 2.22006 2.82198 3
    endloop
  endfacet
  facet normal 1 -0 0
    outer loop
      vertex 10 0 3
      vertex 10 10 0
      vertex 10 10 3
    endloop
  endfacet
  facet normal 1 0 0
    outer loop
      vertex 10 10 0
      vertex 10 0 3
      vertex 10 0 0
    endloop
  endfacet
  facet normal 0 1 -0
    outer loop
      vertex 10 10 0
      vertex 0 10 3
      vertex 10 10 3
    endloop
  endfacet
  facet normal 0 1 0
    outer loop
      vertex 0 10 3
      vertex 10 10 0
      vertex 0 10 0
    endloop
  endfacet
  facet normal 0 0 -1
    outer loop
      vertex 7.92618 6.7886 0
      vertex 10 10 0
      vertex 10 0 0
    endloop
  endfacet
  facet normal 0 0 -1
    outer loop
      vertex 10 10 0
      vertex 7.92618 6.7886 0
      vertex 7.95 7 0
    endloop
  endfacet
  facet normal 0 0 -1
    outer loop
      vertex 7.82869 3.18914 0
      vertex 7.92618 6.7886 0
      vertex 10 0 0
    endloop
  endfacet
  facet normal 0 0 -1
    outer loop
      vertex 7.82869 3.18914 0
      vertex 10 0 0
      vertex 7.85 3 0
    endloop
  endfacet
  facet normal 0 0 -1
    outer loop
      vertex 10 0 0
      vertex 7.82869 2.81086 0
      vertex 7.85 3 0
    endloop
  endfacet
  facet normal 0 0 -1
    outer loop
      vertex 10 0 0
      vertex 7.76582 2.6312 0
      vertex 7.82869 2.81086 0
    endloop
  endfacet
  facet normal 0 0 -1
    outer loop
      vertex 10 0 0
      vertex 7.66456 2.47003 0
      vertex 7.76582 2.6312 0
    endloop
  endfacet
  facet normal 0 0 -1
    outer loop
      vertex 10 0 0
      vertex 7.52997 2.33544 0
      vertex 7.66456 2.47003 0
    endloop
  endfacet
  facet normal 0 0 -1
    outer loop
      vertex 10 0 0
      vertex 7.3688 2.23418 0
      vertex 7.52997 2.33544 0
    endloop
  endfacet
  facet normal 0 0 -1
    outer loop
      vertex 10 0 0
      vertex 7.18914 2.17131 0
      vertex 7.3688 2.23418 0
    endloop
  endfacet
  facet normal 0 0 -1
    outer loop
      vertex 10 0 0
      vertex 7 2.15 0
      vertex 7.18914 2.17131 0
    endloop
  endfacet
  facet normal 0 0 -1
    outer loop
      vertex 10 0 0
      vertex 6.81086 2.17131 0
      vertex 7 2.15 0
    endloop
  endfacet
  facet normal 0 0 -1
    outer loop
      vertex 0 0 0
      vertex 6.81086 2.17131 0
      vertex 10 0 0
    endloop
  endfacet
  facet normal 0 -0 -1
    outer loop
      vertex 3.17802 2.22006 0
      vertex 6.81086 2.17131 0
      vertex 0 0 0
    endloop
  endfacet
  facet normal 0 0 -1
    outer loop
      vertex 6.17131 3.18914 0
      vertex 6.07382 6.7886 0
      vertex 6.14408 6.58781 0
    endloop
  endfacet
  facet normal 0 -0 -1
    outer loop
      vertex 3.70365 6.43886 0
      vertex 6.17131 3.18914 0
      vertex 3.62546 3.49879 0
    endloop
  endfacet
  facet normal 0 -0 -1
    outer loop
      vertex 3.81087 6.6095 0
      vertex 6.07382 6.7886 0
      vertex 3.70365 6.43886 0
    endloop
  endfacet
  facet normal 0 0 -1
    outer loop
      vertex 3.8 3 0
      vertex 6.15 3 0
      vertex 6.17131 2.81086 0
    endloop
  endfacet
  facet normal 0 0 -1
    outer loop
      vertex 3.72077 2.65289 0
      vertex 6.17131 2.81086 0
      vertex 6.23418 2.6312 0
    endloop
  endfacet
  facet normal -0 0 -1
    outer loop
      vertex 6.05 7 0
      vertex 3.87743 6.79973 0
      vertex 3.9 7 0
    endloop
  endfacet
  facet normal 0 0 -1
    outer loop
      vertex 6.07382 6.7886 0
      vertex 3.87743 6.79973 0
      vertex 6.05 7 0
    endloop
  endfacet
  facet normal 0 0 -1
    outer loop
      vertex 6.15 3 0
      vertex 3.8 3 0
      vertex 3.77994 3.17802 0
    endloop
  endfacet
  facet normal 0 0 -1
    outer loop
      vertex 3.62546 2.50121 0
      vertex 6.23418 2.6312 0
      vertex 6.33544 2.47003 0
    endloop
  endfacet
  facet normal 0 0 -1
    outer loop
      vertex 3.49879 2.37453 0
      vertex 6.33544 2.47003 0
      vertex 6.47003 2.33544 0
    endloop
  endfacet
  facet normal 0 -0 -1
    outer loop
      vertex 3.34711 2.27922 0
      vertex 6.6312 2.23418 0
      vertex 3.17802 2.22006 0
    endloop
  endfacet
  facet normal 0 0 -1
    outer loop
      vertex 6.17131 2.81086 0
      vertex 3.77994 2.82198 0
      vertex 3.8 3 0
    endloop
  endfacet
  facet normal -0 0 -1
    outer loop
      vertex 6.17131 2.81086 0
      vertex 3.72077 2.65289 0
      vertex 3.77994 2.82198 0
    endloop
  endfacet
  facet normal -0 0 -1
    outer loop
      vertex 6.23418 2.6312 0
      vertex 3.62546 2.50121 0
      vertex 3.72077 2.65289 0
    endloop
  endfacet
  facet normal -0 0 -1
    outer loop
      vertex 6.33544 2.47003 0
      vertex 3.49879 2.37453 0
      vertex 3.62546 2.50121 0
    endloop
  endfacet
  facet normal -0 0 -1
    outer loop
      vertex 6.47003 2.33544 0
      vertex 3.34711 2.27922 0
      vertex 3.49879 2.37453 0
    endloop
  endfacet
  facet normal 0 0 -1
    outer loop
      vertex 6.6312 2.23418 0
      vertex 3.34711 2.27922 0
      vertex 6.47003 2.33544 0
    endloop
  endfacet
  facet normal 0 0 -1
    outer loop
      vertex 6.81086 2.17131 0
      vertex 3.17802 2.22006 0
      vertex 6.6312 2.23418 0
    endloop
  endfacet
  facet normal 0 0 -1
    outer loop
      vertex 3.17802 2.22006 0
      vertex 0 0 0
      vertex 3 2.2 0
    endloop
  endfacet
  facet normal 0 0 -1
    outer loop
      vertex 2.22006 3.17802 0
      vertex 2.12256 6.79973 0
      vertex 2.18913 6.6095 0
    endloop
  endfacet
  facet normal -0 0 -1
    outer loop
      vertex 2.22006 3.17802 0
      vertex 0 0 0
      vertex 2.12256 6.79973 0
    endloop
  endfacet
  facet normal 0 0 -1
    outer loop
      vertex 0 10 0
      vertex 2.12256 6.79973 0
      vertex 0 0 0
    endloop
  endfacet
  facet normal -0 0 -1
    outer loop
      vertex 2.22006 2.82198 0
      vertex 0 0 0
      vertex 2.2 3 0
    endloop
  endfacet
  facet normal -0 0 -1
    outer loop
      vertex 2.27922 2.65289 0
      vertex 0 0 0
      vertex 2.22006 2.82198 0
    endloop
  endfacet
  facet normal -0 0 -1
    outer loop
      vertex 2.37453 2.50121 0
      vertex 0 0 0
      vertex 2.27922 2.65289 0
    endloop
  endfacet
  facet normal -0 0 -1
    outer loop
      vertex 2.50121 2.37453 0
      vertex 0 0 0
      vertex 2.37453 2.50121 0
    endloop
  endfacet
  facet normal -0 0 -1
    outer loop
      vertex 2.65289 2.27922 0
      vertex 0 0 0
      vertex 2.50121 2.37453 0
    endloop
  endfacet
  facet normal -0 0 -1
    outer loop
      vertex 2.82198 2.22006 0
      vertex 0 0 0
      vertex 2.65289 2.27922 0
    endloop
  endfacet
  facet normal -0 0 -1
    outer loop
      vertex 3 2.2 0
      vertex 0 0 0
      vertex 2.82198 2.22006 0
    endloop
  endfacet
  facet normal 0 0 -1
    outer loop
      vertex 7.92618 7.21139 0
      vertex 10 10 0
      vertex 7.95 7 0
    endloop
  endfacet
  facet normal 0 0 -1
    outer loop
      vertex 7.85592 7.41219 0
      vertex 10 10 0
      vertex 7.92618 7.21139 0
    endloop
  endfacet
  facet normal 0 0 -1
    outer loop
      vertex 7.74274 7.59231 0
      vertex 10 10 0
      vertex 7.85592 7.41219 0
    endloop
  endfacet
  facet normal 0 0 -1
    outer loop
      vertex 7.59231 7.74274 0
      vertex 10 10 0
      vertex 7.74274 7.59231 0
    endloop
  endfacet
  facet normal 0 0 -1
    outer loop
      vertex 7.41219 7.85592 0
      vertex 10 10 0
      vertex 7.59231 7.74274 0
    endloop
  endfacet
  facet normal 0 0 -1
    outer loop
      vertex 7.21139 7.92618 0
      vertex 10 10 0
      vertex 7.41219 7.85592 0
    endloop
  endfacet
  facet normal 0 0 -1
    outer loop
      vertex 7 7.95 0
      vertex 10 10 0
      vertex 7.21139 7.92618 0
    endloop
  endfacet
  facet normal 0 0 -1
    outer loop
      vertex 6.7886 7.92618 0
      vertex 10 10 0
      vertex 7 7.95 0
    endloop
  endfacet
  facet normal 0 0 -1
    outer loop
      vertex 3.20027 7.87743 0
      vertex 6.7886 7.92618 0
      vertex 6.58781 7.85592 0
    endloop
  endfacet
  facet normal 0 0 -1
    outer loop
      vertex 3.3905 7.81087 0
      vertex 6.58781 7.85592 0
      vertex 6.40768 7.74274 0
    endloop
  endfacet
  facet normal 0 0 -1
    outer loop
      vertex 3.9 7 0
      vertex 6.07382 7.21139 0
      vertex 6.05 7 0
    endloop
  endfacet
  facet normal 0 0 -1
    outer loop
      vertex 3.87743 7.20027 0
      vertex 6.07382 7.21139 0
      vertex 3.9 7 0
    endloop
  endfacet
  facet normal 0 0 -1
    outer loop
      vertex 3.81087 7.3905 0
      vertex 6.07382 7.21139 0
      vertex 3.87743 7.20027 0
    endloop
  endfacet
  facet normal 0 0 -1
    outer loop
      vertex 6.07382 7.21139 0
      vertex 3.81087 7.3905 0
      vertex 6.14408 7.41219 0
    endloop
  endfacet
  facet normal 0 0 -1
    outer loop
      vertex 3.70365 7.56114 0
      vertex 6.14408 7.41219 0
      vertex 3.81087 7.3905 0
    endloop
  endfacet
  facet normal 0 0 -1
    outer loop
      vertex 6.14408 7.41219 0
      vertex 3.70365 7.56114 0
      vertex 6.25726 7.59231 0
    endloop
  endfacet
  facet normal 0 0 -1
    outer loop
      vertex 3.56114 7.70365 0
      vertex 6.25726 7.59231 0
      vertex 3.70365 7.56114 0
    endloop
  endfacet
  facet normal 0 0 -1
    outer loop
      vertex 6.25726 7.59231 0
      vertex 3.56114 7.70365 0
      vertex 6.40768 7.74274 0
    endloop
  endfacet
  facet normal 0 0 -1
    outer loop
      vertex 3.3905 7.81087 0
      vertex 6.40768 7.74274 0
      vertex 3.56114 7.70365 0
    endloop
  endfacet
  facet normal -0 0 -1
    outer loop
      vertex 6.58781 7.85592 0
      vertex 3.3905 7.81087 0
      vertex 3.20027 7.87743 0
    endloop
  endfacet
  facet normal -0 0 -1
    outer loop
      vertex 6.7886 7.92618 0
      vertex 3.20027 7.87743 0
      vertex 0 10 0
    endloop
  endfacet
  facet normal 0 0 -1
    outer loop
      vertex 0 10 0
      vertex 3.20027 7.87743 0
      vertex 3 7.9 0
    endloop
  endfacet
  facet normal 0 0 -1
    outer loop
      vertex 0 10 0
      vertex 3 7.9 0
      vertex 2.79973 7.87743 0
    endloop
  endfacet
  facet normal 0 0 -1
    outer loop
      vertex 2.12256 6.79973 0
      vertex 0 10 0
      vertex 2.1 7 0
    endloop
  endfacet
  facet normal 0 0 -1
    outer loop
      vertex 6.7886 7.92618 0
      vertex 0 10 0
      vertex 10 10 0
    endloop
  endfacet
  facet normal 0 0 -1
    outer loop
      vertex 2.6095 7.81087 0
      vertex 0 10 0
      vertex 2.79973 7.87743 0
    endloop
  endfacet
  facet normal 0 0 -1
    outer loop
      vertex 2.43886 7.70365 0
      vertex 0 10 0
      vertex 2.6095 7.81087 0
    endloop
  endfacet
  facet normal 0 0 -1
    outer loop
      vertex 2.29635 7.56114 0
      vertex 0 10 0
      vertex 2.43886 7.70365 0
    endloop
  endfacet
  facet normal 0 0 -1
    outer loop
      vertex 2.18913 7.3905 0
      vertex 0 10 0
      vertex 2.29635 7.56114 0
    endloop
  endfacet
  facet normal 0 0 -1
    outer loop
      vertex 2.12256 7.20027 0
      vertex 0 10 0
      vertex 2.18913 7.3905 0
    endloop
  endfacet
  facet normal 0 0 -1
    outer loop
      vertex 2.1 7 0
      vertex 0 10 0
      vertex 2.12256 7.20027 0
    endloop
  endfacet
  facet normal 0 0 -1
    outer loop
      vertex 7.92618 6.7886 0
      vertex 7.82869 3.18914 0
      vertex 7.85592 6.58781 0
    endloop
  endfacet
  facet normal 0 0 -1
    outer loop
      vertex 7.76582 3.3688 0
      vertex 7.85592 6.58781 0
      vertex 7.82869 3.18914 0
    endloop
  endfacet
  facet normal 0 0 -1
    outer loop
      vertex 7.76582 3.3688 0
      vertex 7.74274 6.40768 0
      vertex 7.85592 6.58781 0
    endloop
  endfacet
  facet normal 0 0 -1
    outer loop
      vertex 7.66456 3.52997 0
      vertex 7.74274 6.40768 0
      vertex 7.76582 3.3688 0
    endloop
  endfacet
  facet normal 0 0 -1
    outer loop
      vertex 7.66456 3.52997 0
      vertex 7.59231 6.25726 0
      vertex 7.74274 6.40768 0
    endloop
  endfacet
  facet normal 0 0 -1
    outer loop
      vertex 7.52997 3.66456 0
      vertex 7.59231 6.25726 0
      vertex 7.66456 3.52997 0
    endloop
  endfacet
  facet normal 0 0 -1
    outer loop
      vertex 7.52997 3.66456 0
      vertex 7.41219 6.14408 0
      vertex 7.59231 6.25726 0
    endloop
  endfacet
  facet normal 0 0 -1
    outer loop
      vertex 7.3688 3.76582 0
      vertex 7.41219 6.14408 0
      vertex 7.52997 3.66456 0
    endloop
  endfacet
  facet normal 0 0 -1
    outer loop
      vertex 7.3688 3.76582 0
      vertex 7.21139 6.07382 0
      vertex 7.41219 6.14408 0
    endloop
  endfacet
  facet normal 0 0 -1
    outer loop
      vertex 7.18914 3.82869 0
      vertex 7.21139 6.07382 0
      vertex 7.3688 3.76582 0
    endloop
  endfacet
  facet normal 0 0 -1
    outer loop
      vertex 7 3.85 0
      vertex 7.21139 6.07382 0
      vertex 7.18914 3.82869 0
    endloop
  endfacet
  facet normal 0 0 -1
    outer loop
      vertex 7 3.85 0
      vertex 7 6.05 0
      vertex 7.21139 6.07382 0
    endloop
  endfacet
  facet normal 0 0 -1
    outer loop
      vertex 6.81086 3.82869 0
      vertex 7 6.05 0
      vertex 7 3.85 0
    endloop
  endfacet
  facet normal 0 0 -1
    outer loop
      vertex 6.81086 3.82869 0
      vertex 6.7886 6.07382 0
      vertex 7 6.05 0
    endloop
  endfacet
  facet normal 0 0 -1
    outer loop
      vertex 6.6312 3.76582 0
      vertex 6.7886 6.07382 0
      vertex 6.81086 3.82869 0
    endloop
  endfacet
  facet normal 0 0 -1
    outer loop
      vertex 6.6312 3.76582 0
      vertex 6.58781 6.14408 0
      vertex 6.7886 6.07382 0
    endloop
  endfacet
  facet normal 0 0 -1
    outer loop
      vertex 6.47003 3.66456 0
      vertex 6.58781 6.14408 0
      vertex 6.6312 3.76582 0
    endloop
  endfacet
  facet normal 0 0 -1
    outer loop
      vertex 6.47003 3.66456 0
      vertex 6.40768 6.25726 0
      vertex 6.58781 6.14408 0
    endloop
  endfacet
  facet normal 0 0 -1
    outer loop
      vertex 6.33544 3.52997 0
      vertex 6.40768 6.25726 0
      vertex 6.47003 3.66456 0
    endloop
  endfacet
  facet normal 0 0 -1
    outer loop
      vertex 6.33544 3.52997 0
      vertex 6.25726 6.40768 0
      vertex 6.40768 6.25726 0
    endloop
  endfacet
  facet normal 0 0 -1
    outer loop
      vertex 6.23418 3.3688 0
      vertex 6.25726 6.40768 0
      vertex 6.33544 3.52997 0
    endloop
  endfacet
  facet normal 0 0 -1
    outer loop
      vertex 6.14408 6.58781 0
      vertex 6.23418 3.3688 0
      vertex 6.17131 3.18914 0
    endloop
  endfacet
  facet normal 0 0 -1
    outer loop
      vertex 3.77994 3.17802 0
      vertex 6.17131 3.18914 0
      vertex 6.15 3 0
    endloop
  endfacet
  facet normal 0 0 -1
    outer loop
      vertex 6.23418 3.3688 0
      vertex 6.14408 6.58781 0
      vertex 6.25726 6.40768 0
    endloop
  endfacet
  facet normal -0 0 -1
    outer loop
      vertex 6.17131 3.18914 0
      vertex 3.77994 3.17802 0
      vertex 3.72077 3.34711 0
    endloop
  endfacet
  facet normal 0 0 -1
    outer loop
      vertex 6.17131 3.18914 0
      vertex 3.72077 3.34711 0
      vertex 3.62546 3.49879 0
    endloop
  endfacet
  facet normal 0 -0 -1
    outer loop
      vertex 3.87743 6.79973 0
      vertex 6.07382 6.7886 0
      vertex 3.81087 6.6095 0
    endloop
  endfacet
  facet normal 0 0 -1
    outer loop
      vertex 6.17131 3.18914 0
      vertex 3.70365 6.43886 0
      vertex 6.07382 6.7886 0
    endloop
  endfacet
  facet normal 0 0 -1
    outer loop
      vertex 3.62546 3.49879 0
      vertex 3.56114 6.29635 0
      vertex 3.70365 6.43886 0
    endloop
  endfacet
  facet normal 0 0 -1
    outer loop
      vertex 3.49879 3.62546 0
      vertex 3.56114 6.29635 0
      vertex 3.62546 3.49879 0
    endloop
  endfacet
  facet normal 0 0 -1
    outer loop
      vertex 3.49879 3.62546 0
      vertex 3.3905 6.18913 0
      vertex 3.56114 6.29635 0
    endloop
  endfacet
  facet normal 0 0 -1
    outer loop
      vertex 3.34711 3.72077 0
      vertex 3.3905 6.18913 0
      vertex 3.49879 3.62546 0
    endloop
  endfacet
  facet normal 0 0 -1
    outer loop
      vertex 3.34711 3.72077 0
      vertex 3.20027 6.12256 0
      vertex 3.3905 6.18913 0
    endloop
  endfacet
  facet normal 0 0 -1
    outer loop
      vertex 3.17802 3.77994 0
      vertex 3.20027 6.12256 0
      vertex 3.34711 3.72077 0
    endloop
  endfacet
  facet normal 0 0 -1
    outer loop
      vertex 3 3.8 0
      vertex 3.20027 6.12256 0
      vertex 3.17802 3.77994 0
    endloop
  endfacet
  facet normal 0 0 -1
    outer loop
      vertex 3 3.8 0
      vertex 3 6.1 0
      vertex 3.20027 6.12256 0
    endloop
  endfacet
  facet normal 0 0 -1
    outer loop
      vertex 2.82198 3.77994 0
      vertex 3 6.1 0
      vertex 3 3.8 0
    endloop
  endfacet
  facet normal 0 0 -1
    outer loop
      vertex 2.82198 3.77994 0
      vertex 2.79973 6.12256 0
      vertex 3 6.1 0
    endloop
  endfacet
  facet normal 0 0 -1
    outer loop
      vertex 2.65289 3.72077 0
      vertex 2.79973 6.12256 0
      vertex 2.82198 3.77994 0
    endloop
  endfacet
  facet normal 0 0 -1
    outer loop
      vertex 2.65289 3.72077 0
      vertex 2.6095 6.18913 0
      vertex 2.79973 6.12256 0
    endloop
  endfacet
  facet normal 0 0 -1
    outer loop
      vertex 2.50121 3.62546 0
      vertex 2.6095 6.18913 0
      vertex 2.65289 3.72077 0
    endloop
  endfacet
  facet normal 0 0 -1
    outer loop
      vertex 2.50121 3.62546 0
      vertex 2.43886 6.29635 0
      vertex 2.6095 6.18913 0
    endloop
  endfacet
  facet normal 0 0 -1
    outer loop
      vertex 2.37453 3.49879 0
      vertex 2.43886 6.29635 0
      vertex 2.50121 3.62546 0
    endloop
  endfacet
  facet normal 0 0 -1
    outer loop
      vertex 2.37453 3.49879 0
      vertex 2.29635 6.43886 0
      vertex 2.43886 6.29635 0
    endloop
  endfacet
  facet normal 0 0 -1
    outer loop
      vertex 2.27922 3.34711 0
      vertex 2.29635 6.43886 0
      vertex 2.37453 3.49879 0
    endloop
  endfacet
  facet normal 0 0 -1
    outer loop
      vertex 2.18913 6.6095 0
      vertex 2.27922 3.34711 0
      vertex 2.22006 3.17802 0
    endloop
  endfacet
  facet normal 0 0 -1
    outer loop
      vertex 0 0 0
      vertex 2.22006 3.17802 0
      vertex 2.2 3 0
    endloop
  endfacet
  facet normal 0 0 -1
    outer loop
      vertex 2.27922 3.34711 0
      vertex 2.18913 6.6095 0
      vertex 2.29635 6.43886 0
    endloop
  endfacet
  facet normal 0 -1 0
    outer loop
      vertex 0 0 0
      vertex 10 0 3
      vertex 0 0 3
    endloop
  endfacet
  facet normal 0 -1 -0
    outer loop
      vertex 10 0 3
      vertex 0 0 0
      vertex 10 0 0
    endloop
  endfacet
  facet normal -0.993712 -0.111965 0
    outer loop
      vertex 3.8 3 0
      vertex 3.77994 3.17802 3
      vertex 3.77994 3.17802 0
    endloop
  endfacet
  facet normal -0.993712 -0.111965 0
    outer loop
      vertex 3.77994 3.17802 3
      vertex 3.8 3 0
      vertex 3.8 3 3
    endloop
  endfacet
  facet normal 0.111964 -0.993712 0
    outer loop
      vertex 2.82198 3.77994 0
      vertex 3 3.8 3
      vertex 2.82198 3.77994 3
    endloop
  endfacet
  facet normal 0.111964 -0.993712 0
    outer loop
      vertex 3 3.8 3
      vertex 2.82198 3.77994 0
      vertex 3 3.8 0
    endloop
  endfacet
  facet normal -0.532034 -0.846723 0
    outer loop
      vertex 3.34711 3.72077 0
      vertex 3.49879 3.62546 3
      vertex 3.34711 3.72077 3
    endloop
  endfacet
  facet normal -0.532034 -0.846723 -0
    outer loop
      vertex 3.49879 3.62546 3
      vertex 3.34711 3.72077 0
      vertex 3.49879 3.62546 0
    endloop
  endfacet
  facet normal 0.846723 -0.532034 0
    outer loop
      vertex 2.27922 3.34711 3
      vertex 2.37453 3.49879 0
      vertex 2.37453 3.49879 3
    endloop
  endfacet
  facet normal 0.846723 -0.532034 0
    outer loop
      vertex 2.37453 3.49879 0
      vertex 2.27922 3.34711 3
      vertex 2.27922 3.34711 0
    endloop
  endfacet
  facet normal 0.532034 -0.846723 0
    outer loop
      vertex 2.50121 3.62546 0
      vertex 2.65289 3.72077 3
      vertex 2.50121 3.62546 3
    endloop
  endfacet
  facet normal 0.532034 -0.846723 0
    outer loop
      vertex 2.65289 3.72077 3
      vertex 2.50121 3.62546 0
      vertex 2.65289 3.72077 0
    endloop
  endfacet
  facet normal -0.846723 0.532034 0
    outer loop
      vertex 3.62546 2.50121 0
      vertex 3.72077 2.65289 3
      vertex 3.72077 2.65289 0
    endloop
  endfacet
  facet normal -0.846723 0.532034 0
    outer loop
      vertex 3.72077 2.65289 3
      vertex 3.62546 2.50121 0
      vertex 3.62546 2.50121 3
    endloop
  endfacet
  facet normal -0.943884 0.330277 0
    outer loop
      vertex 3.72077 2.65289 0
      vertex 3.77994 2.82198 3
      vertex 3.77994 2.82198 0
    endloop
  endfacet
  facet normal -0.943884 0.330277 0
    outer loop
      vertex 3.77994 2.82198 3
      vertex 3.72077 2.65289 0
      vertex 3.72077 2.65289 3
    endloop
  endfacet
  facet normal -0.846723 -0.532034 0
    outer loop
      vertex 3.72077 3.34711 0
      vertex 3.62546 3.49879 3
      vertex 3.62546 3.49879 0
    endloop
  endfacet
  facet normal -0.846723 -0.532034 0
    outer loop
      vertex 3.62546 3.49879 3
      vertex 3.72077 3.34711 0
      vertex 3.72077 3.34711 3
    endloop
  endfacet
  facet normal -0.943884 -0.330277 0
    outer loop
      vertex 3.77994 3.17802 0
      vertex 3.72077 3.34711 3
      vertex 3.72077 3.34711 0
    endloop
  endfacet
  facet normal -0.943884 -0.330277 0
    outer loop
      vertex 3.72077 3.34711 3
      vertex 3.77994 3.17802 0
      vertex 3.77994 3.17802 3
    endloop
  endfacet
  facet normal -0.707107 -0.707107 0
    outer loop
      vertex 3.62546 3.49879 0
      vertex 3.49879 3.62546 3
      vertex 3.49879 3.62546 0
    endloop
  endfacet
  facet normal -0.707107 -0.707107 0
    outer loop
      vertex 3.49879 3.62546 3
      vertex 3.62546 3.49879 0
      vertex 3.62546 3.49879 3
    endloop
  endfacet
  facet normal -0.111965 -0.993712 0
    outer loop
      vertex 3 3.8 0
      vertex 3.17802 3.77994 3
      vertex 3 3.8 3
    endloop
  endfacet
  facet normal -0.111965 -0.993712 -0
    outer loop
      vertex 3.17802 3.77994 3
      vertex 3 3.8 0
      vertex 3.17802 3.77994 0
    endloop
  endfacet
  facet normal -0.330277 -0.943884 0
    outer loop
      vertex 3.17802 3.77994 0
      vertex 3.34711 3.72077 3
      vertex 3.17802 3.77994 3
    endloop
  endfacet
  facet normal -0.330277 -0.943884 -0
    outer loop
      vertex 3.34711 3.72077 3
      vertex 3.17802 3.77994 0
      vertex 3.34711 3.72077 0
    endloop
  endfacet
  facet normal 0.943884 -0.330277 0
    outer loop
      vertex 2.22006 3.17802 3
      vertex 2.27922 3.34711 0
      vertex 2.27922 3.34711 3
    endloop
  endfacet
  facet normal 0.943884 -0.330277 0
    outer loop
      vertex 2.27922 3.34711 0
      vertex 2.22006 3.17802 3
      vertex 2.22006 3.17802 0
    endloop
  endfacet
  facet normal 0.993712 -0.111965 0
    outer loop
      vertex 2.2 3 3
      vertex 2.22006 3.17802 0
      vertex 2.22006 3.17802 3
    endloop
  endfacet
  facet normal 0.993712 -0.111965 0
    outer loop
      vertex 2.22006 3.17802 0
      vertex 2.2 3 3
      vertex 2.2 3 0
    endloop
  endfacet
  facet normal 0.993712 0.111964 0
    outer loop
      vertex 2.22006 2.82198 3
      vertex 2.2 3 0
      vertex 2.2 3 3
    endloop
  endfacet
  facet normal 0.993712 0.111964 0
    outer loop
      vertex 2.2 3 0
      vertex 2.22006 2.82198 3
      vertex 2.22006 2.82198 0
    endloop
  endfacet
  facet normal 0.707107 -0.707107 0
    outer loop
      vertex 2.37453 3.49879 3
      vertex 2.50121 3.62546 0
      vertex 2.50121 3.62546 3
    endloop
  endfacet
  facet normal 0.707107 -0.707107 0
    outer loop
      vertex 2.50121 3.62546 0
      vertex 2.37453 3.49879 3
      vertex 2.37453 3.49879 0
    endloop
  endfacet
  facet normal 0.330277 -0.943884 0
    outer loop
      vertex 2.65289 3.72077 0
      vertex 2.82198 3.77994 3
      vertex 2.65289 3.72077 3
    endloop
  endfacet
  facet normal 0.330277 -0.943884 0
    outer loop
      vertex 2.82198 3.77994 3
      vertex 2.65289 3.72077 0
      vertex 2.82198 3.77994 0
    endloop
  endfacet
  facet normal -0.330277 0.943884 0
    outer loop
      vertex 3.34711 2.27922 0
      vertex 3.17802 2.22006 3
      vertex 3.34711 2.27922 3
    endloop
  endfacet
  facet normal -0.330277 0.943884 0
    outer loop
      vertex 3.17802 2.22006 3
      vertex 3.34711 2.27922 0
      vertex 3.17802 2.22006 0
    endloop
  endfacet
  facet normal -0.707107 0.707107 0
    outer loop
      vertex 3.49879 2.37453 0
      vertex 3.62546 2.50121 3
      vertex 3.62546 2.50121 0
    endloop
  endfacet
  facet normal -0.707107 0.707107 0
    outer loop
      vertex 3.62546 2.50121 3
      vertex 3.49879 2.37453 0
      vertex 3.49879 2.37453 3
    endloop
  endfacet
  facet normal 0.330277 0.943884 -0
    outer loop
      vertex 2.82198 2.22006 0
      vertex 2.65289 2.27922 3
      vertex 2.82198 2.22006 3
    endloop
  endfacet
  facet normal 0.330277 0.943884 0
    outer loop
      vertex 2.65289 2.27922 3
      vertex 2.82198 2.22006 0
      vertex 2.65289 2.27922 0
    endloop
  endfacet
  facet normal -0.111965 0.993712 0
    outer loop
      vertex 3.17802 2.22006 0
      vertex 3 2.2 3
      vertex 3.17802 2.22006 3
    endloop
  endfacet
  facet normal -0.111965 0.993712 0
    outer loop
      vertex 3 2.2 3
      vertex 3.17802 2.22006 0
      vertex 3 2.2 0
    endloop
  endfacet
  facet normal 0.707107 0.707107 0
    outer loop
      vertex 2.50121 2.37453 3
      vertex 2.37453 2.50121 0
      vertex 2.37453 2.50121 3
    endloop
  endfacet
  facet normal 0.707107 0.707107 0
    outer loop
      vertex 2.37453 2.50121 0
      vertex 2.50121 2.37453 3
      vertex 2.50121 2.37453 0
    endloop
  endfacet
  facet normal 0.943884 0.330277 0
    outer loop
      vertex 2.27922 2.65289 3
      vertex 2.22006 2.82198 0
      vertex 2.22006 2.82198 3
    endloop
  endfacet
  facet normal 0.943884 0.330277 0
    outer loop
      vertex 2.22006 2.82198 0
      vertex 2.27922 2.65289 3
      vertex 2.27922 2.65289 0
    endloop
  endfacet
  facet normal -0.993712 0.111964 0
    outer loop
      vertex 3.77994 2.82198 0
      vertex 3.8 3 3
      vertex 3.8 3 0
    endloop
  endfacet
  facet normal -0.993712 0.111964 0
    outer loop
      vertex 3.8 3 3
      vertex 3.77994 2.82198 0
      vertex 3.77994 2.82198 3
    endloop
  endfacet
  facet normal -0.532034 0.846723 0
    outer loop
      vertex 3.49879 2.37453 0
      vertex 3.34711 2.27922 3
      vertex 3.49879 2.37453 3
    endloop
  endfacet
  facet normal -0.532034 0.846723 0
    outer loop
      vertex 3.34711 2.27922 3
      vertex 3.49879 2.37453 0
      vertex 3.34711 2.27922 0
    endloop
  endfacet
  facet normal 0.111964 0.993712 -0
    outer loop
      vertex 3 2.2 0
      vertex 2.82198 2.22006 3
      vertex 3 2.2 3
    endloop
  endfacet
  facet normal 0.111964 0.993712 0
    outer loop
      vertex 2.82198 2.22006 3
      vertex 3 2.2 0
      vertex 2.82198 2.22006 0
    endloop
  endfacet
  facet normal 0.532034 0.846723 -0
    outer loop
      vertex 2.65289 2.27922 0
      vertex 2.50121 2.37453 3
      vertex 2.65289 2.27922 3
    endloop
  endfacet
  facet normal 0.532034 0.846723 0
    outer loop
      vertex 2.50121 2.37453 3
      vertex 2.65289 2.27922 0
      vertex 2.50121 2.37453 0
    endloop
  endfacet
  facet normal 0.846723 0.532034 0
    outer loop
      vertex 2.37453 2.50121 3
      vertex 2.27922 2.65289 0
      vertex 2.27922 2.65289 3
    endloop
  endfacet
  facet normal 0.846723 0.532034 0
    outer loop
      vertex 2.27922 2.65289 0
      vertex 2.37453 2.50121 3
      vertex 2.37453 2.50121 0
    endloop
  endfacet
  facet normal -0.993712 -0.111962 0
    outer loop
      vertex 7.85 3 0
      vertex 7.82869 3.18914 3
      vertex 7.82869 3.18914 0
    endloop
  endfacet
  facet normal -0.993712 -0.111962 0
    outer loop
      vertex 7.82869 3.18914 3
      vertex 7.85 3 0
      vertex 7.85 3 3
    endloop
  endfacet
  facet normal 0.111962 -0.993713 0
    outer loop
      vertex 6.81086 3.82869 0
      vertex 7 3.85 3
      vertex 6.81086 3.82869 3
    endloop
  endfacet
  facet normal 0.111962 -0.993713 0
    outer loop
      vertex 7 3.85 3
      vertex 6.81086 3.82869 0
      vertex 7 3.85 0
    endloop
  endfacet
  facet normal -0.111962 0.993712 0
    outer loop
      vertex 7.18914 2.17131 0
      vertex 7 2.15 3
      vertex 7.18914 2.17131 3
    endloop
  endfacet
  facet normal -0.111962 0.993712 0
    outer loop
      vertex 7 2.15 3
      vertex 7.18914 2.17131 0
      vertex 7 2.15 0
    endloop
  endfacet
  facet normal -0.532034 -0.846723 0
    outer loop
      vertex 7.3688 3.76582 0
      vertex 7.52997 3.66456 3
      vertex 7.3688 3.76582 3
    endloop
  endfacet
  facet normal -0.532034 -0.846723 -0
    outer loop
      vertex 7.52997 3.66456 3
      vertex 7.3688 3.76582 0
      vertex 7.52997 3.66456 0
    endloop
  endfacet
  facet normal -0.330279 -0.943884 0
    outer loop
      vertex 7.18914 3.82869 0
      vertex 7.3688 3.76582 3
      vertex 7.18914 3.82869 3
    endloop
  endfacet
  facet normal -0.330279 -0.943884 -0
    outer loop
      vertex 7.3688 3.76582 3
      vertex 7.18914 3.82869 0
      vertex 7.3688 3.76582 0
    endloop
  endfacet
  facet normal 0.846723 -0.532034 0
    outer loop
      vertex 6.23418 3.3688 3
      vertex 6.33544 3.52997 0
      vertex 6.33544 3.52997 3
    endloop
  endfacet
  facet normal 0.846723 -0.532034 0
    outer loop
      vertex 6.33544 3.52997 0
      vertex 6.23418 3.3688 3
      vertex 6.23418 3.3688 0
    endloop
  endfacet
  facet normal 0.943884 -0.330279 0
    outer loop
      vertex 6.17131 3.18914 3
      vertex 6.23418 3.3688 0
      vertex 6.23418 3.3688 3
    endloop
  endfacet
  facet normal 0.943884 -0.330279 0
    outer loop
      vertex 6.23418 3.3688 0
      vertex 6.17131 3.18914 3
      vertex 6.17131 3.18914 0
    endloop
  endfacet
  facet normal 0.532034 -0.846723 0
    outer loop
      vertex 6.47003 3.66456 0
      vertex 6.6312 3.76582 3
      vertex 6.47003 3.66456 3
    endloop
  endfacet
  facet normal 0.532034 -0.846723 0
    outer loop
      vertex 6.6312 3.76582 3
      vertex 6.47003 3.66456 0
      vertex 6.6312 3.76582 0
    endloop
  endfacet
  facet normal -0.943884 0.330279 0
    outer loop
      vertex 7.76582 2.6312 0
      vertex 7.82869 2.81086 3
      vertex 7.82869 2.81086 0
    endloop
  endfacet
  facet normal -0.943884 0.330279 0
    outer loop
      vertex 7.82869 2.81086 3
      vertex 7.76582 2.6312 0
      vertex 7.76582 2.6312 3
    endloop
  endfacet
  facet normal 0.330279 0.943884 -0
    outer loop
      vertex 6.81086 2.17131 0
      vertex 6.6312 2.23418 3
      vertex 6.81086 2.17131 3
    endloop
  endfacet
  facet normal 0.330279 0.943884 0
    outer loop
      vertex 6.6312 2.23418 3
      vertex 6.81086 2.17131 0
      vertex 6.6312 2.23418 0
    endloop
  endfacet
  facet normal -0.846723 -0.532034 0
    outer loop
      vertex 7.76582 3.3688 0
      vertex 7.66456 3.52997 3
      vertex 7.66456 3.52997 0
    endloop
  endfacet
  facet normal -0.846723 -0.532034 0
    outer loop
      vertex 7.66456 3.52997 3
      vertex 7.76582 3.3688 0
      vertex 7.76582 3.3688 3
    endloop
  endfacet
  facet normal -0.943884 -0.330279 0
    outer loop
      vertex 7.82869 3.18914 0
      vertex 7.76582 3.3688 3
      vertex 7.76582 3.3688 0
    endloop
  endfacet
  facet normal -0.943884 -0.330279 0
    outer loop
      vertex 7.76582 3.3688 3
      vertex 7.82869 3.18914 0
      vertex 7.82869 3.18914 3
    endloop
  endfacet
  facet normal -0.707107 -0.707107 0
    outer loop
      vertex 7.66456 3.52997 0
      vertex 7.52997 3.66456 3
      vertex 7.52997 3.66456 0
    endloop
  endfacet
  facet normal -0.707107 -0.707107 0
    outer loop
      vertex 7.52997 3.66456 3
      vertex 7.66456 3.52997 0
      vertex 7.66456 3.52997 3
    endloop
  endfacet
  facet normal -0.111962 -0.993712 0
    outer loop
      vertex 7 3.85 0
      vertex 7.18914 3.82869 3
      vertex 7 3.85 3
    endloop
  endfacet
  facet normal -0.111962 -0.993712 -0
    outer loop
      vertex 7.18914 3.82869 3
      vertex 7 3.85 0
      vertex 7.18914 3.82869 0
    endloop
  endfacet
  facet normal 0.993712 -0.111962 0
    outer loop
      vertex 6.15 3 3
      vertex 6.17131 3.18914 0
      vertex 6.17131 3.18914 3
    endloop
  endfacet
  facet normal 0.993712 -0.111962 0
    outer loop
      vertex 6.17131 3.18914 0
      vertex 6.15 3 3
      vertex 6.15 3 0
    endloop
  endfacet
  facet normal 0.707107 -0.707107 0
    outer loop
      vertex 6.33544 3.52997 3
      vertex 6.47003 3.66456 0
      vertex 6.47003 3.66456 3
    endloop
  endfacet
  facet normal 0.707107 -0.707107 0
    outer loop
      vertex 6.47003 3.66456 0
      vertex 6.33544 3.52997 3
      vertex 6.33544 3.52997 0
    endloop
  endfacet
  facet normal 0.330279 -0.943884 0
    outer loop
      vertex 6.6312 3.76582 0
      vertex 6.81086 3.82869 3
      vertex 6.6312 3.76582 3
    endloop
  endfacet
  facet normal 0.330279 -0.943884 0
    outer loop
      vertex 6.81086 3.82869 3
      vertex 6.6312 3.76582 0
      vertex 6.81086 3.82869 0
    endloop
  endfacet
  facet normal -0.993713 0.111962 0
    outer loop
      vertex 7.82869 2.81086 0
      vertex 7.85 3 3
      vertex 7.85 3 0
    endloop
  endfacet
  facet normal -0.993713 0.111962 0
    outer loop
      vertex 7.85 3 3
      vertex 7.82869 2.81086 0
      vertex 7.82869 2.81086 3
    endloop
  endfacet
  facet normal -0.330279 0.943884 0
    outer loop
      vertex 7.3688 2.23418 0
      vertex 7.18914 2.17131 3
      vertex 7.3688 2.23418 3
    endloop
  endfacet
  facet normal -0.330279 0.943884 0
    outer loop
      vertex 7.18914 2.17131 3
      vertex 7.3688 2.23418 0
      vertex 7.18914 2.17131 0
    endloop
  endfacet
  facet normal -0.707107 0.707107 0
    outer loop
      vertex 7.52997 2.33544 0
      vertex 7.66456 2.47003 3
      vertex 7.66456 2.47003 0
    endloop
  endfacet
  facet normal -0.707107 0.707107 0
    outer loop
      vertex 7.66456 2.47003 3
      vertex 7.52997 2.33544 0
      vertex 7.52997 2.33544 3
    endloop
  endfacet
  facet normal 0.111962 0.993713 -0
    outer loop
      vertex 7 2.15 0
      vertex 6.81086 2.17131 3
      vertex 7 2.15 3
    endloop
  endfacet
  facet normal 0.111962 0.993713 0
    outer loop
      vertex 6.81086 2.17131 3
      vertex 7 2.15 0
      vertex 6.81086 2.17131 0
    endloop
  endfacet
  facet normal 0.707107 0.707107 0
    outer loop
      vertex 6.47003 2.33544 3
      vertex 6.33544 2.47003 0
      vertex 6.33544 2.47003 3
    endloop
  endfacet
  facet normal 0.707107 0.707107 0
    outer loop
      vertex 6.33544 2.47003 0
      vertex 6.47003 2.33544 3
      vertex 6.47003 2.33544 0
    endloop
  endfacet
  facet normal 0.943884 0.330279 0
    outer loop
      vertex 6.23418 2.6312 3
      vertex 6.17131 2.81086 0
      vertex 6.17131 2.81086 3
    endloop
  endfacet
  facet normal 0.943884 0.330279 0
    outer loop
      vertex 6.17131 2.81086 0
      vertex 6.23418 2.6312 3
      vertex 6.23418 2.6312 0
    endloop
  endfacet
  facet normal 0.993713 0.111962 0
    outer loop
      vertex 6.17131 2.81086 3
      vertex 6.15 3 0
      vertex 6.15 3 3
    endloop
  endfacet
  facet normal 0.993713 0.111962 0
    outer loop
      vertex 6.15 3 0
      vertex 6.17131 2.81086 3
      vertex 6.17131 2.81086 0
    endloop
  endfacet
  facet normal -0.532034 0.846723 0
    outer loop
      vertex 7.52997 2.33544 0
      vertex 7.3688 2.23418 3
      vertex 7.52997 2.33544 3
    endloop
  endfacet
  facet normal -0.532034 0.846723 0
    outer loop
      vertex 7.3688 2.23418 3
      vertex 7.52997 2.33544 0
      vertex 7.3688 2.23418 0
    endloop
  endfacet
  facet normal -0.846723 0.532034 0
    outer loop
      vertex 7.66456 2.47003 0
      vertex 7.76582 2.6312 3
      vertex 7.76582 2.6312 0
    endloop
  endfacet
  facet normal -0.846723 0.532034 0
    outer loop
      vertex 7.76582 2.6312 3
      vertex 7.66456 2.47003 0
      vertex 7.66456 2.47003 3
    endloop
  endfacet
  facet normal 0.532034 0.846723 -0
    outer loop
      vertex 6.6312 2.23418 0
      vertex 6.47003 2.33544 3
      vertex 6.6312 2.23418 3
    endloop
  endfacet
  facet normal 0.532034 0.846723 0
    outer loop
      vertex 6.47003 2.33544 3
      vertex 6.6312 2.23418 0
      vertex 6.47003 2.33544 0
    endloop
  endfacet
  facet normal 0.846723 0.532034 0
    outer loop
      vertex 6.33544 2.47003 3
      vertex 6.23418 2.6312 0
      vertex 6.23418 2.6312 3
    endloop
  endfacet
  facet normal 0.846723 0.532034 0
    outer loop
      vertex 6.23418 2.6312 0
      vertex 6.33544 2.47003 3
      vertex 6.33544 2.47003 0
    endloop
  endfacet
  facet normal -0.993712 -0.111965 0
    outer loop
      vertex 3.9 7 0
      vertex 3.87743 7.20027 3
      vertex 3.87743 7.20027 0
    endloop
  endfacet
  facet normal -0.993712 -0.111965 0
    outer loop
      vertex 3.87743 7.20027 3
      vertex 3.9 7 0
      vertex 3.9 7 3
    endloop
  endfacet
  facet normal 0.111964 -0.993712 0
    outer loop
      vertex 2.79973 7.87743 0
      vertex 3 7.9 3
      vertex 2.79973 7.87743 3
    endloop
  endfacet
  facet normal 0.111964 -0.993712 0
    outer loop
      vertex 3 7.9 3
      vertex 2.79973 7.87743 0
      vertex 3 7.9 0
    endloop
  endfacet
  facet normal -0.111965 0.993712 0
    outer loop
      vertex 3.20027 6.12256 0
      vertex 3 6.1 3
      vertex 3.20027 6.12256 3
    endloop
  endfacet
  facet normal -0.111965 0.993712 0
    outer loop
      vertex 3 6.1 3
      vertex 3.20027 6.12256 0
      vertex 3 6.1 0
    endloop
  endfacet
  facet normal -0.532033 -0.846724 0
    outer loop
      vertex 3.3905 7.81087 0
      vertex 3.56114 7.70365 3
      vertex 3.3905 7.81087 3
    endloop
  endfacet
  facet normal -0.532033 -0.846724 -0
    outer loop
      vertex 3.56114 7.70365 3
      vertex 3.3905 7.81087 0
      vertex 3.56114 7.70365 0
    endloop
  endfacet
  facet normal -0.330281 -0.943883 0
    outer loop
      vertex 3.20027 7.87743 0
      vertex 3.3905 7.81087 3
      vertex 3.20027 7.87743 3
    endloop
  endfacet
  facet normal -0.330281 -0.943883 -0
    outer loop
      vertex 3.3905 7.81087 3
      vertex 3.20027 7.87743 0
      vertex 3.3905 7.81087 0
    endloop
  endfacet
  facet normal 0.846724 -0.532033 0
    outer loop
      vertex 2.18913 7.3905 3
      vertex 2.29635 7.56114 0
      vertex 2.29635 7.56114 3
    endloop
  endfacet
  facet normal 0.846724 -0.532033 0
    outer loop
      vertex 2.29635 7.56114 0
      vertex 2.18913 7.3905 3
      vertex 2.18913 7.3905 0
    endloop
  endfacet
  facet normal 0.943883 -0.330281 0
    outer loop
      vertex 2.12256 7.20027 3
      vertex 2.18913 7.3905 0
      vertex 2.18913 7.3905 3
    endloop
  endfacet
  facet normal 0.943883 -0.330281 0
    outer loop
      vertex 2.18913 7.3905 0
      vertex 2.12256 7.20027 3
      vertex 2.12256 7.20027 0
    endloop
  endfacet
  facet normal 0.532033 -0.846724 0
    outer loop
      vertex 2.43886 7.70365 0
      vertex 2.6095 7.81087 3
      vertex 2.43886 7.70365 3
    endloop
  endfacet
  facet normal 0.532033 -0.846724 0
    outer loop
      vertex 2.6095 7.81087 3
      vertex 2.43886 7.70365 0
      vertex 2.6095 7.81087 0
    endloop
  endfacet
  facet normal -0.846724 0.532033 0
    outer loop
      vertex 3.70365 6.43886 0
      vertex 3.81087 6.6095 3
      vertex 3.81087 6.6095 0
    endloop
  endfacet
  facet normal -0.846724 0.532033 0
    outer loop
      vertex 3.81087 6.6095 3
      vertex 3.70365 6.43886 0
      vertex 3.70365 6.43886 3
    endloop
  endfacet
  facet normal -0.943883 0.330281 0
    outer loop
      vertex 3.81087 6.6095 0
      vertex 3.87743 6.79973 3
      vertex 3.87743 6.79973 0
    endloop
  endfacet
  facet normal -0.943883 0.330281 0
    outer loop
      vertex 3.87743 6.79973 3
      vertex 3.81087 6.6095 0
      vertex 3.81087 6.6095 3
    endloop
  endfacet
  facet normal 0.330281 0.943883 -0
    outer loop
      vertex 2.79973 6.12256 0
      vertex 2.6095 6.18913 3
      vertex 2.79973 6.12256 3
    endloop
  endfacet
  facet normal 0.330281 0.943883 0
    outer loop
      vertex 2.6095 6.18913 3
      vertex 2.79973 6.12256 0
      vertex 2.6095 6.18913 0
    endloop
  endfacet
  facet normal -0.846724 -0.532033 0
    outer loop
      vertex 3.81087 7.3905 0
      vertex 3.70365 7.56114 3
      vertex 3.70365 7.56114 0
    endloop
  endfacet
  facet normal -0.846724 -0.532033 0
    outer loop
      vertex 3.70365 7.56114 3
      vertex 3.81087 7.3905 0
      vertex 3.81087 7.3905 3
    endloop
  endfacet
  facet normal -0.943883 -0.330281 0
    outer loop
      vertex 3.87743 7.20027 0
      vertex 3.81087 7.3905 3
      vertex 3.81087 7.3905 0
    endloop
  endfacet
  facet normal -0.943883 -0.330281 0
    outer loop
      vertex 3.81087 7.3905 3
      vertex 3.87743 7.20027 0
      vertex 3.87743 7.20027 3
    endloop
  endfacet
  facet normal -0.707107 -0.707107 0
    outer loop
      vertex 3.70365 7.56114 0
      vertex 3.56114 7.70365 3
      vertex 3.56114 7.70365 0
    endloop
  endfacet
  facet normal -0.707107 -0.707107 0
    outer loop
      vertex 3.56114 7.70365 3
      vertex 3.70365 7.56114 0
      vertex 3.70365 7.56114 3
    endloop
  endfacet
  facet normal -0.111965 -0.993712 0
    outer loop
      vertex 3 7.9 0
      vertex 3.20027 7.87743 3
      vertex 3 7.9 3
    endloop
  endfacet
  facet normal -0.111965 -0.993712 -0
    outer loop
      vertex 3.20027 7.87743 3
      vertex 3 7.9 0
      vertex 3.20027 7.87743 0
    endloop
  endfacet
  facet normal 0.993712 -0.111965 0
    outer loop
      vertex 2.1 7 3
      vertex 2.12256 7.20027 0
      vertex 2.12256 7.20027 3
    endloop
  endfacet
  facet normal 0.993712 -0.111965 0
    outer loop
      vertex 2.12256 7.20027 0
      vertex 2.1 7 3
      vertex 2.1 7 0
    endloop
  endfacet
  facet normal 0.707107 -0.707107 0
    outer loop
      vertex 2.29635 7.56114 3
      vertex 2.43886 7.70365 0
      vertex 2.43886 7.70365 3
    endloop
  endfacet
  facet normal 0.707107 -0.707107 0
    outer loop
      vertex 2.43886 7.70365 0
      vertex 2.29635 7.56114 3
      vertex 2.29635 7.56114 0
    endloop
  endfacet
  facet normal 0.330281 -0.943883 0
    outer loop
      vertex 2.6095 7.81087 0
      vertex 2.79973 7.87743 3
      vertex 2.6095 7.81087 3
    endloop
  endfacet
  facet normal 0.330281 -0.943883 0
    outer loop
      vertex 2.79973 7.87743 3
      vertex 2.6095 7.81087 0
      vertex 2.79973 7.87743 0
    endloop
  endfacet
  facet normal -0.993712 0.111964 0
    outer loop
      vertex 3.87743 6.79973 0
      vertex 3.9 7 3
      vertex 3.9 7 0
    endloop
  endfacet
  facet normal -0.993712 0.111964 0
    outer loop
      vertex 3.9 7 3
      vertex 3.87743 6.79973 0
      vertex 3.87743 6.79973 3
    endloop
  endfacet
  facet normal -0.330281 0.943883 0
    outer loop
      vertex 3.3905 6.18913 0
      vertex 3.20027 6.12256 3
      vertex 3.3905 6.18913 3
    endloop
  endfacet
  facet normal -0.330281 0.943883 0
    outer loop
      vertex 3.20027 6.12256 3
      vertex 3.3905 6.18913 0
      vertex 3.20027 6.12256 0
    endloop
  endfacet
  facet normal -0.707107 0.707107 0
    outer loop
      vertex 3.56114 6.29635 0
      vertex 3.70365 6.43886 3
      vertex 3.70365 6.43886 0
    endloop
  endfacet
  facet normal -0.707107 0.707107 0
    outer loop
      vertex 3.70365 6.43886 3
      vertex 3.56114 6.29635 0
      vertex 3.56114 6.29635 3
    endloop
  endfacet
  facet normal 0.111964 0.993712 -0
    outer loop
      vertex 3 6.1 0
      vertex 2.79973 6.12256 3
      vertex 3 6.1 3
    endloop
  endfacet
  facet normal 0.111964 0.993712 0
    outer loop
      vertex 2.79973 6.12256 3
      vertex 3 6.1 0
      vertex 2.79973 6.12256 0
    endloop
  endfacet
  facet normal 0.707107 0.707107 0
    outer loop
      vertex 2.43886 6.29635 3
      vertex 2.29635 6.43886 0
      vertex 2.29635 6.43886 3
    endloop
  endfacet
  facet normal 0.707107 0.707107 0
    outer loop
      vertex 2.29635 6.43886 0
      vertex 2.43886 6.29635 3
      vertex 2.43886 6.29635 0
    endloop
  endfacet
  facet normal 0.943883 0.330281 0
    outer loop
      vertex 2.18913 6.6095 3
      vertex 2.12256 6.79973 0
      vertex 2.12256 6.79973 3
    endloop
  endfacet
  facet normal 0.943883 0.330281 0
    outer loop
      vertex 2.12256 6.79973 0
      vertex 2.18913 6.6095 3
      vertex 2.18913 6.6095 0
    endloop
  endfacet
  facet normal 0.993712 0.111964 0
    outer loop
      vertex 2.12256 6.79973 3
      vertex 2.1 7 0
      vertex 2.1 7 3
    endloop
  endfacet
  facet normal 0.993712 0.111964 0
    outer loop
      vertex 2.1 7 0
      vertex 2.12256 6.79973 3
      vertex 2.12256 6.79973 0
    endloop
  endfacet
  facet normal -0.532033 0.846724 0
    outer loop
      vertex 3.56114 6.29635 0
      vertex 3.3905 6.18913 3
      vertex 3.56114 6.29635 3
    endloop
  endfacet
  facet normal -0.532033 0.846724 0
    outer loop
      vertex 3.3905 6.18913 3
      vertex 3.56114 6.29635 0
      vertex 3.3905 6.18913 0
    endloop
  endfacet
  facet normal 0.532033 0.846724 -0
    outer loop
      vertex 2.6095 6.18913 0
      vertex 2.43886 6.29635 3
      vertex 2.6095 6.18913 3
    endloop
  endfacet
  facet normal 0.532033 0.846724 0
    outer loop
      vertex 2.43886 6.29635 3
      vertex 2.6095 6.18913 0
      vertex 2.43886 6.29635 0
    endloop
  endfacet
  facet normal 0.846724 0.532033 0
    outer loop
      vertex 2.29635 6.43886 3
      vertex 2.18913 6.6095 0
      vertex 2.18913 6.6095 3
    endloop
  endfacet
  facet normal 0.846724 0.532033 0
    outer loop
      vertex 2.18913 6.6095 0
      vertex 2.29635 6.43886 3
      vertex 2.29635 6.43886 0
    endloop
  endfacet
  facet normal -0.993712 -0.111967 0
    outer loop
      vertex 7.95 7 0
      vertex 7.92618 7.21139 3
      vertex 7.92618 7.21139 0
    endloop
  endfacet
  facet normal -0.993712 -0.111967 0
    outer loop
      vertex 7.92618 7.21139 3
      vertex 7.95 7 0
      vertex 7.95 7 3
    endloop
  endfacet
  facet normal 0.111967 -0.993712 0
    outer loop
      vertex 6.7886 7.92618 0
      vertex 7 7.95 3
      vertex 6.7886 7.92618 3
    endloop
  endfacet
  facet normal 0.111967 -0.993712 0
    outer loop
      vertex 7 7.95 3
      vertex 6.7886 7.92618 0
      vertex 7 7.95 0
    endloop
  endfacet
  facet normal -0.111967 0.993712 0
    outer loop
      vertex 7.21139 6.07382 0
      vertex 7 6.05 3
      vertex 7.21139 6.07382 3
    endloop
  endfacet
  facet normal -0.111967 0.993712 0
    outer loop
      vertex 7 6.05 3
      vertex 7.21139 6.07382 0
      vertex 7 6.05 0
    endloop
  endfacet
  facet normal -0.330278 0.943884 0
    outer loop
      vertex 7.41219 6.14408 0
      vertex 7.21139 6.07382 3
      vertex 7.41219 6.14408 3
    endloop
  endfacet
  facet normal -0.330278 0.943884 0
    outer loop
      vertex 7.21139 6.07382 3
      vertex 7.41219 6.14408 0
      vertex 7.21139 6.07382 0
    endloop
  endfacet
  facet normal -0.707107 -0.707107 0
    outer loop
      vertex 7.74274 7.59231 0
      vertex 7.59231 7.74274 3
      vertex 7.59231 7.74274 0
    endloop
  endfacet
  facet normal -0.707107 -0.707107 0
    outer loop
      vertex 7.59231 7.74274 3
      vertex 7.74274 7.59231 0
      vertex 7.74274 7.59231 3
    endloop
  endfacet
  facet normal -0.943884 -0.330278 0
    outer loop
      vertex 7.92618 7.21139 0
      vertex 7.85592 7.41219 3
      vertex 7.85592 7.41219 0
    endloop
  endfacet
  facet normal -0.943884 -0.330278 0
    outer loop
      vertex 7.85592 7.41219 3
      vertex 7.92618 7.21139 0
      vertex 7.92618 7.21139 3
    endloop
  endfacet
  facet normal 0.707107 -0.707107 0
    outer loop
      vertex 6.25726 7.59231 3
      vertex 6.40768 7.74274 0
      vertex 6.40768 7.74274 3
    endloop
  endfacet
  facet normal 0.707107 -0.707107 0
    outer loop
      vertex 6.40768 7.74274 0
      vertex 6.25726 7.59231 3
      vertex 6.25726 7.59231 0
    endloop
  endfacet
  facet normal 0.330278 -0.943884 0
    outer loop
      vertex 6.58781 7.85592 0
      vertex 6.7886 7.92618 3
      vertex 6.58781 7.85592 3
    endloop
  endfacet
  facet normal 0.330278 -0.943884 0
    outer loop
      vertex 6.7886 7.92618 3
      vertex 6.58781 7.85592 0
      vertex 6.7886 7.92618 0
    endloop
  endfacet
  facet normal -0.943884 0.330278 0
    outer loop
      vertex 7.85592 6.58781 0
      vertex 7.92618 6.7886 3
      vertex 7.92618 6.7886 0
    endloop
  endfacet
  facet normal -0.943884 0.330278 0
    outer loop
      vertex 7.92618 6.7886 3
      vertex 7.85592 6.58781 0
      vertex 7.85592 6.58781 3
    endloop
  endfacet
  facet normal -0.846724 -0.532032 0
    outer loop
      vertex 7.85592 7.41219 0
      vertex 7.74274 7.59231 3
      vertex 7.74274 7.59231 0
    endloop
  endfacet
  facet normal -0.846724 -0.532032 0
    outer loop
      vertex 7.74274 7.59231 3
      vertex 7.85592 7.41219 0
      vertex 7.85592 7.41219 3
    endloop
  endfacet
  facet normal -0.330278 -0.943884 0
    outer loop
      vertex 7.21139 7.92618 0
      vertex 7.41219 7.85592 3
      vertex 7.21139 7.92618 3
    endloop
  endfacet
  facet normal -0.330278 -0.943884 -0
    outer loop
      vertex 7.41219 7.85592 3
      vertex 7.21139 7.92618 0
      vertex 7.41219 7.85592 0
    endloop
  endfacet
  facet normal -0.111967 -0.993712 0
    outer loop
      vertex 7 7.95 0
      vertex 7.21139 7.92618 3
      vertex 7 7.95 3
    endloop
  endfacet
  facet normal -0.111967 -0.993712 -0
    outer loop
      vertex 7.21139 7.92618 3
      vertex 7 7.95 0
      vertex 7.21139 7.92618 0
    endloop
  endfacet
  facet normal -0.532032 -0.846724 0
    outer loop
      vertex 7.41219 7.85592 0
      vertex 7.59231 7.74274 3
      vertex 7.41219 7.85592 3
    endloop
  endfacet
  facet normal -0.532032 -0.846724 -0
    outer loop
      vertex 7.59231 7.74274 3
      vertex 7.41219 7.85592 0
      vertex 7.59231 7.74274 0
    endloop
  endfacet
  facet normal 0.943884 -0.330278 0
    outer loop
      vertex 6.07382 7.21139 3
      vertex 6.14408 7.41219 0
      vertex 6.14408 7.41219 3
    endloop
  endfacet
  facet normal 0.943884 -0.330278 0
    outer loop
      vertex 6.14408 7.41219 0
      vertex 6.07382 7.21139 3
      vertex 6.07382 7.21139 0
    endloop
  endfacet
  facet normal 0.846724 -0.532032 0
    outer loop
      vertex 6.14408 7.41219 3
      vertex 6.25726 7.59231 0
      vertex 6.25726 7.59231 3
    endloop
  endfacet
  facet normal 0.846724 -0.532032 0
    outer loop
      vertex 6.25726 7.59231 0
      vertex 6.14408 7.41219 3
      vertex 6.14408 7.41219 0
    endloop
  endfacet
  facet normal 0.993712 -0.111967 0
    outer loop
      vertex 6.05 7 3
      vertex 6.07382 7.21139 0
      vertex 6.07382 7.21139 3
    endloop
  endfacet
  facet normal 0.993712 -0.111967 0
    outer loop
      vertex 6.07382 7.21139 0
      vertex 6.05 7 3
      vertex 6.05 7 0
    endloop
  endfacet
  facet normal 0.532032 -0.846724 0
    outer loop
      vertex 6.40768 7.74274 0
      vertex 6.58781 7.85592 3
      vertex 6.40768 7.74274 3
    endloop
  endfacet
  facet normal 0.532032 -0.846724 0
    outer loop
      vertex 6.58781 7.85592 3
      vertex 6.40768 7.74274 0
      vertex 6.58781 7.85592 0
    endloop
  endfacet
  facet normal -0.993712 0.111967 0
    outer loop
      vertex 7.92618 6.7886 0
      vertex 7.95 7 3
      vertex 7.95 7 0
    endloop
  endfacet
  facet normal -0.993712 0.111967 0
    outer loop
      vertex 7.95 7 3
      vertex 7.92618 6.7886 0
      vertex 7.92618 6.7886 3
    endloop
  endfacet
  facet normal 0.993712 0.111967 0
    outer loop
      vertex 6.07382 6.7886 3
      vertex 6.05 7 0
      vertex 6.05 7 3
    endloop
  endfacet
  facet normal 0.993712 0.111967 0
    outer loop
      vertex 6.05 7 0
      vertex 6.07382 6.7886 3
      vertex 6.07382 6.7886 0
    endloop
  endfacet
  facet normal -0.846724 0.532032 0
    outer loop
      vertex 7.74274 6.40768 0
      vertex 7.85592 6.58781 3
      vertex 7.85592 6.58781 0
    endloop
  endfacet
  facet normal -0.846724 0.532032 0
    outer loop
      vertex 7.85592 6.58781 3
      vertex 7.74274 6.40768 0
      vertex 7.74274 6.40768 3
    endloop
  endfacet
  facet normal 0.532032 0.846724 -0
    outer loop
      vertex 6.58781 6.14408 0
      vertex 6.40768 6.25726 3
      vertex 6.58781 6.14408 3
    endloop
  endfacet
  facet normal 0.532032 0.846724 0
    outer loop
      vertex 6.40768 6.25726 3
      vertex 6.58781 6.14408 0
      vertex 6.40768 6.25726 0
    endloop
  endfacet
  facet normal 0.846724 0.532032 0
    outer loop
      vertex 6.25726 6.40768 3
      vertex 6.14408 6.58781 0
      vertex 6.14408 6.58781 3
    endloop
  endfacet
  facet normal 0.846724 0.532032 0
    outer loop
      vertex 6.14408 6.58781 0
      vertex 6.25726 6.40768 3
      vertex 6.25726 6.40768 0
    endloop
  endfacet
  facet normal 0.943884 0.330278 0
    outer loop
      vertex 6.14408 6.58781 3
      vertex 6.07382 6.7886 0
      vertex 6.07382 6.7886 3
    endloop
  endfacet
  facet normal 0.943884 0.330278 0
    outer loop
      vertex 6.07382 6.7886 0
      vertex 6.14408 6.58781 3
      vertex 6.14408 6.58781 0
    endloop
  endfacet
  facet normal 0.707107 0.707107 0
    outer loop
      vertex 6.40768 6.25726 3
      vertex 6.25726 6.40768 0
      vertex 6.25726 6.40768 3
    endloop
  endfacet
  facet normal 0.707107 0.707107 0
    outer loop
      vertex 6.25726 6.40768 0
      vertex 6.40768 6.25726 3
      vertex 6.40768 6.25726 0
    endloop
  endfacet
  facet normal -0.532032 0.846724 0
    outer loop
      vertex 7.59231 6.25726 0
      vertex 7.41219 6.14408 3
      vertex 7.59231 6.25726 3
    endloop
  endfacet
  facet normal -0.532032 0.846724 0
    outer loop
      vertex 7.41219 6.14408 3
      vertex 7.59231 6.25726 0
      vertex 7.41219 6.14408 0
    endloop
  endfacet
  facet normal 0.111967 0.993712 -0
    outer loop
      vertex 7 6.05 0
      vertex 6.7886 6.07382 3
      vertex 7 6.05 3
    endloop
  endfacet
  facet normal 0.111967 0.993712 0
    outer loop
      vertex 6.7886 6.07382 3
      vertex 7 6.05 0
      vertex 6.7886 6.07382 0
    endloop
  endfacet
  facet normal -0.707107 0.707107 0
    outer loop
      vertex 7.59231 6.25726 0
      vertex 7.74274 6.40768 3
      vertex 7.74274 6.40768 0
    endloop
  endfacet
  facet normal -0.707107 0.707107 0
    outer loop
      vertex 7.74274 6.40768 3
      vertex 7.59231 6.25726 0
      vertex 7.59231 6.25726 3
    endloop
  endfacet
  facet normal 0.330278 0.943884 -0
    outer loop
      vertex 6.7886 6.07382 0
      vertex 6.58781 6.14408 3
      vertex 6.7886 6.07382 3
    endloop
  endfacet
  facet normal 0.330278 0.943884 0
    outer loop
      vertex 6.58781 6.14408 3
      vertex 6.7886 6.07382 0
      vertex 6.58781 6.14408 0
    endloop
  endfacet
endsolid OpenSCAD_Model
