solid OpenSCAD_Model
  facet normal -1 0 0
    outer loop
      vertex 0 5 0
      vertex 0 -19.1021 4.87179
      vertex 0 5 10
    endloop
  endfacet
  facet normal -1 0 0
    outer loop
      vertex 0 5 0
      vertex 0 -19.1513 4.3616
      vertex 0 -19.1021 4.87179
    endloop
  endfacet
  facet normal -1 0 0
    outer loop
      vertex 0 5 0
      vertex 0 -19.2653 3.86189
      vertex 0 -19.1513 4.3616
    endloop
  endfacet
  facet normal -1 0 0
    outer loop
      vertex 0 5 0
      vertex 0 -19.4423 3.38087
      vertex 0 -19.2653 3.86189
    endloop
  endfacet
  facet normal -1 0 0
    outer loop
      vertex 0 5 0
      vertex 0 -19.6794 2.92643
      vertex 0 -19.4423 3.38087
    endloop
  endfacet
  facet normal -1 0 0
    outer loop
      vertex 0 5 0
      vertex 0 -19.9727 2.50604
      vertex 0 -19.6794 2.92643
    endloop
  endfacet
  facet normal -1 0 0
    outer loop
      vertex 0 -21.6 0
      vertex 0 -19.9727 2.50604
      vertex 0 5 0
    endloop
  endfacet
  facet normal -1 0 0
    outer loop
      vertex 0 -19.9727 2.50604
      vertex 0 -21.6 0
      vertex 0 -20.3173 2.1266
    endloop
  endfacet
  facet normal -1 0 0
    outer loop
      vertex 0 -20.3173 2.1266
      vertex 0 -21.6 0
      vertex 0 -20.7076 1.79434
    endloop
  endfacet
  facet normal -1 0 0
    outer loop
      vertex 0 -20.7076 1.79434
      vertex 0 -21.6 0
      vertex 0 -21.1371 1.51472
    endloop
  endfacet
  facet normal -1 0 0
    outer loop
      vertex 0 -21.1371 1.51472
      vertex 0 -21.6 0
      vertex 0 -21.5989 1.29233
    endloop
  endfacet
  facet normal -1 0 0
    outer loop
      vertex 0 -21.5989 1.29233
      vertex 0 -21.6 0
      vertex 0 -21.6 1.29198
    endloop
  endfacet
  facet normal -1 0 0
    outer loop
      vertex 0 -19.1185 5.38409
      vertex 0 5 10
      vertex 0 -19.1021 4.87179
    endloop
  endfacet
  facet normal -1 0 0
    outer loop
      vertex 0 -19.2003 5.89008
      vertex 0 5 10
      vertex 0 -19.1185 5.38409
    endloop
  endfacet
  facet normal -1 0 0
    outer loop
      vertex 0 -19.3461 6.38146
      vertex 0 5 10
      vertex 0 -19.2003 5.89008
    endloop
  endfacet
  facet normal -1 0 0
    outer loop
      vertex 0 -19.5536 6.85015
      vertex 0 5 10
      vertex 0 -19.3461 6.38146
    endloop
  endfacet
  facet normal -1 0 0
    outer loop
      vertex 0 -19.8193 7.28847
      vertex 0 5 10
      vertex 0 -19.5536 6.85015
    endloop
  endfacet
  facet normal -1 0 0
    outer loop
      vertex 0 -20.1389 7.6892
      vertex 0 5 10
      vertex 0 -19.8193 7.28847
    endloop
  endfacet
  facet normal -1 0 0
    outer loop
      vertex 0 -21.6 10
      vertex 0 -20.1389 7.6892
      vertex 0 -20.5071 8.04578
    endloop
  endfacet
  facet normal -1 0 0
    outer loop
      vertex 0 -21.6 10
      vertex 0 -20.5071 8.04578
      vertex 0 -20.9179 8.35235
    endloop
  endfacet
  facet normal -1 0 0
    outer loop
      vertex 0 -21.6 10
      vertex 0 -20.9179 8.35235
      vertex 0 -21.3645 8.60388
    endloop
  endfacet
  facet normal -1 0 0
    outer loop
      vertex 0 -21.6 10
      vertex 0 -21.3645 8.60388
      vertex 0 -21.6 8.69923
    endloop
  endfacet
  facet normal -1 0 0
    outer loop
      vertex 0 -20.1389 7.6892
      vertex 0 -21.6 10
      vertex 0 5 10
    endloop
  endfacet
  facet normal 0 0 1
    outer loop
      vertex 10.3 -10.3 10
      vertex 11.6 5 10
      vertex 10.3 -1.3 10
    endloop
  endfacet
  facet normal 0 0 1
    outer loop
      vertex 11.6 5 10
      vertex 1.3 -1.3 10
      vertex 10.3 -1.3 10
    endloop
  endfacet
  facet normal 0 0 1
    outer loop
      vertex 1.3 -1.3 10
      vertex 0 5 10
      vertex 1.3 -10.3 10
    endloop
  endfacet
  facet normal -0 0 1
    outer loop
      vertex 0 5 10
      vertex 1.3 -1.3 10
      vertex 11.6 5 10
    endloop
  endfacet
  facet normal 0 0 1
    outer loop
      vertex 11.6 5 10
      vertex 10.3 -10.3 10
      vertex 11.6 -21.6 10
    endloop
  endfacet
  facet normal -0 0 1
    outer loop
      vertex 1.3 -10.3 10
      vertex 11.6 -21.6 10
      vertex 10.3 -10.3 10
    endloop
  endfacet
  facet normal 0 0 1
    outer loop
      vertex 1.3 -10.3 10
      vertex 0 -21.6 10
      vertex 11.6 -21.6 10
    endloop
  endfacet
  facet normal 0 0 1
    outer loop
      vertex 0 -21.6 10
      vertex 1.3 -10.3 10
      vertex 0 5 10
    endloop
  endfacet
  facet normal 1 0 0
    outer loop
      vertex 11.6 5 10
      vertex 11.6 -19.1021 4.87179
      vertex 11.6 5 0
    endloop
  endfacet
  facet normal 1 0 0
    outer loop
      vertex 11.6 5 10
      vertex 11.6 -19.1185 5.38409
      vertex 11.6 -19.1021 4.87179
    endloop
  endfacet
  facet normal 1 0 0
    outer loop
      vertex 11.6 5 10
      vertex 11.6 -19.2003 5.89008
      vertex 11.6 -19.1185 5.38409
    endloop
  endfacet
  facet normal 1 0 0
    outer loop
      vertex 11.6 5 10
      vertex 11.6 -19.3461 6.38146
      vertex 11.6 -19.2003 5.89008
    endloop
  endfacet
  facet normal 1 0 0
    outer loop
      vertex 11.6 5 10
      vertex 11.6 -19.5536 6.85015
      vertex 11.6 -19.3461 6.38146
    endloop
  endfacet
  facet normal 1 0 0
    outer loop
      vertex 11.6 5 10
      vertex 11.6 -19.8193 7.28847
      vertex 11.6 -19.5536 6.85015
    endloop
  endfacet
  facet normal 1 0 0
    outer loop
      vertex 11.6 5 10
      vertex 11.6 -20.1389 7.6892
      vertex 11.6 -19.8193 7.28847
    endloop
  endfacet
  facet normal 1 -0 0
    outer loop
      vertex 11.6 -21.6 10
      vertex 11.6 -20.1389 7.6892
      vertex 11.6 5 10
    endloop
  endfacet
  facet normal 1 0 0
    outer loop
      vertex 11.6 -20.1389 7.6892
      vertex 11.6 -21.6 10
      vertex 11.6 -20.5071 8.04578
    endloop
  endfacet
  facet normal 1 0 0
    outer loop
      vertex 11.6 -20.5071 8.04578
      vertex 11.6 -21.6 10
      vertex 11.6 -20.9179 8.35235
    endloop
  endfacet
  facet normal 1 0 0
    outer loop
      vertex 11.6 -20.9179 8.35235
      vertex 11.6 -21.6 10
      vertex 11.6 -21.3645 8.60388
    endloop
  endfacet
  facet normal 1 0 0
    outer loop
      vertex 11.6 -21.3645 8.60388
      vertex 11.6 -21.6 10
      vertex 11.6 -21.6 8.69923
    endloop
  endfacet
  facet normal 1 -0 0
    outer loop
      vertex 11.6 -19.1513 4.3616
      vertex 11.6 5 0
      vertex 11.6 -19.1021 4.87179
    endloop
  endfacet
  facet normal 1 -0 0
    outer loop
      vertex 11.6 -19.2653 3.86189
      vertex 11.6 5 0
      vertex 11.6 -19.1513 4.3616
    endloop
  endfacet
  facet normal 1 -0 0
    outer loop
      vertex 11.6 -19.4423 3.38087
      vertex 11.6 5 0
      vertex 11.6 -19.2653 3.86189
    endloop
  endfacet
  facet normal 1 -0 0
    outer loop
      vertex 11.6 -19.6794 2.92643
      vertex 11.6 5 0
      vertex 11.6 -19.4423 3.38087
    endloop
  endfacet
  facet normal 1 -0 0
    outer loop
      vertex 11.6 -19.9727 2.50604
      vertex 11.6 5 0
      vertex 11.6 -19.6794 2.92643
    endloop
  endfacet
  facet normal 1 0 0
    outer loop
      vertex 11.6 -21.6 0
      vertex 11.6 -19.9727 2.50604
      vertex 11.6 -20.3173 2.1266
    endloop
  endfacet
  facet normal 1 0 0
    outer loop
      vertex 11.6 -21.6 0
      vertex 11.6 -20.3173 2.1266
      vertex 11.6 -20.7076 1.79434
    endloop
  endfacet
  facet normal 1 0 0
    outer loop
      vertex 11.6 -21.6 0
      vertex 11.6 -20.7076 1.79434
      vertex 11.6 -21.1371 1.51472
    endloop
  endfacet
  facet normal 1 0 0
    outer loop
      vertex 11.6 -21.6 0
      vertex 11.6 -21.1371 1.51472
      vertex 11.6 -21.5989 1.29233
    endloop
  endfacet
  facet normal 1 0 0
    outer loop
      vertex 11.6 -21.6 0
      vertex 11.6 -21.5989 1.29233
      vertex 11.6 -21.6 1.29198
    endloop
  endfacet
  facet normal 1 0 0
    outer loop
      vertex 11.6 -19.9727 2.50604
      vertex 11.6 -21.6 0
      vertex 11.6 5 0
    endloop
  endfacet
  facet normal 0 1 0
    outer loop
      vertex 11.6 5 10
      vertex 6.05609 5 6.7491
      vertex 0 5 10
    endloop
  endfacet
  facet normal 0 1 0
    outer loop
      vertex 11.6 5 10
      vertex 6.2793 5 6.72757
      vertex 6.05609 5 6.7491
    endloop
  endfacet
  facet normal 0 1 0
    outer loop
      vertex 11.6 5 10
      vertex 6.49792 5 6.67767
      vertex 6.2793 5 6.72757
    endloop
  endfacet
  facet normal 0 1 0
    outer loop
      vertex 11.6 5 10
      vertex 6.70837 5 6.60022
      vertex 6.49792 5 6.67767
    endloop
  endfacet
  facet normal 0 1 0
    outer loop
      vertex 11.6 5 10
      vertex 6.90719 5 6.4965
      vertex 6.70837 5 6.60022
    endloop
  endfacet
  facet normal 0 1 0
    outer loop
      vertex 11.6 5 10
      vertex 7.09111 5 6.36821
      vertex 6.90719 5 6.4965
    endloop
  endfacet
  facet normal 0 1 0
    outer loop
      vertex 11.6 5 10
      vertex 7.25711 5 6.21744
      vertex 7.09111 5 6.36821
    endloop
  endfacet
  facet normal 0 1 0
    outer loop
      vertex 11.6 5 10
      vertex 7.40247 5 6.04669
      vertex 7.25711 5 6.21744
    endloop
  endfacet
  facet normal 0 1 0
    outer loop
      vertex 11.6 5 10
      vertex 7.52481 5 5.85876
      vertex 7.40247 5 6.04669
    endloop
  endfacet
  facet normal 0 1 0
    outer loop
      vertex 11.6 5 10
      vertex 7.6221 5 5.65672
      vertex 7.52481 5 5.85876
    endloop
  endfacet
  facet normal 0 1 0
    outer loop
      vertex 11.6 5 10
      vertex 7.69277 5 5.4439
      vertex 7.6221 5 5.65672
    endloop
  endfacet
  facet normal 0 1 0
    outer loop
      vertex 11.6 5 10
      vertex 7.73563 5 5.22378
      vertex 7.69277 5 5.4439
    endloop
  endfacet
  facet normal 0 1 0
    outer loop
      vertex 11.6 5 10
      vertex 7.75 5 5
      vertex 7.73563 5 5.22378
    endloop
  endfacet
  facet normal 0 1 -0
    outer loop
      vertex 11.6 5 0
      vertex 7.75 5 5
      vertex 11.6 5 10
    endloop
  endfacet
  facet normal 0 1 0
    outer loop
      vertex 7.75 5 5
      vertex 11.6 5 0
      vertex 7.73563 5 4.77621
    endloop
  endfacet
  facet normal 0 1 0
    outer loop
      vertex 7.73563 5 4.77621
      vertex 11.6 5 0
      vertex 7.69277 5 4.5561
    endloop
  endfacet
  facet normal 0 1 0
    outer loop
      vertex 7.69277 5 4.5561
      vertex 11.6 5 0
      vertex 7.6221 5 4.34328
    endloop
  endfacet
  facet normal 0 1 0
    outer loop
      vertex 7.6221 5 4.34328
      vertex 11.6 5 0
      vertex 7.52481 5 4.14124
    endloop
  endfacet
  facet normal 0 1 0
    outer loop
      vertex 6.2793 5 3.27243
      vertex 11.6 5 0
      vertex 6.05609 5 3.2509
    endloop
  endfacet
  facet normal 0 1 0
    outer loop
      vertex 6.49792 5 3.32233
      vertex 11.6 5 0
      vertex 6.2793 5 3.27243
    endloop
  endfacet
  facet normal 0 1 0
    outer loop
      vertex 6.70837 5 3.39978
      vertex 11.6 5 0
      vertex 6.49792 5 3.32233
    endloop
  endfacet
  facet normal 0 1 0
    outer loop
      vertex 6.90719 5 3.5035
      vertex 11.6 5 0
      vertex 6.70837 5 3.39978
    endloop
  endfacet
  facet normal 0 1 0
    outer loop
      vertex 7.09111 5 3.63179
      vertex 11.6 5 0
      vertex 6.90719 5 3.5035
    endloop
  endfacet
  facet normal 0 1 0
    outer loop
      vertex 7.25711 5 3.78255
      vertex 11.6 5 0
      vertex 7.09111 5 3.63179
    endloop
  endfacet
  facet normal 0 1 0
    outer loop
      vertex 7.40247 5 3.95331
      vertex 11.6 5 0
      vertex 7.25711 5 3.78255
    endloop
  endfacet
  facet normal 0 1 0
    outer loop
      vertex 7.52481 5 4.14124
      vertex 11.6 5 0
      vertex 7.40247 5 3.95331
    endloop
  endfacet
  facet normal 0 1 -0
    outer loop
      vertex 5.83196 5 6.74191
      vertex 0 5 10
      vertex 6.05609 5 6.7491
    endloop
  endfacet
  facet normal 0 1 -0
    outer loop
      vertex 5.61059 5 6.70612
      vertex 0 5 10
      vertex 5.83196 5 6.74191
    endloop
  endfacet
  facet normal 0 1 -0
    outer loop
      vertex 5.39561 5 6.64232
      vertex 0 5 10
      vertex 5.61059 5 6.70612
    endloop
  endfacet
  facet normal 0 1 -0
    outer loop
      vertex 5.19056 5 6.55155
      vertex 0 5 10
      vertex 5.39561 5 6.64232
    endloop
  endfacet
  facet normal 0 1 -0
    outer loop
      vertex 4.9988 5 6.4353
      vertex 0 5 10
      vertex 5.19056 5 6.55155
    endloop
  endfacet
  facet normal 0 1 -0
    outer loop
      vertex 4.82347 5 6.29549
      vertex 0 5 10
      vertex 4.9988 5 6.4353
    endloop
  endfacet
  facet normal 0 1 -0
    outer loop
      vertex 4.66747 5 6.1344
      vertex 0 5 10
      vertex 4.82347 5 6.29549
    endloop
  endfacet
  facet normal 0 1 -0
    outer loop
      vertex 4.53335 5 5.95469
      vertex 0 5 10
      vertex 4.66747 5 6.1344
    endloop
  endfacet
  facet normal 0 1 -0
    outer loop
      vertex 4.4233 5 5.7593
      vertex 0 5 10
      vertex 4.53335 5 5.95469
    endloop
  endfacet
  facet normal 0 1 -0
    outer loop
      vertex 4.33915 5 5.55144
      vertex 0 5 10
      vertex 4.4233 5 5.7593
    endloop
  endfacet
  facet normal 0 1 -0
    outer loop
      vertex 4.28227 5 5.33453
      vertex 0 5 10
      vertex 4.33915 5 5.55144
    endloop
  endfacet
  facet normal 0 1 -0
    outer loop
      vertex 4.2536 5 5.11212
      vertex 0 5 10
      vertex 4.28227 5 5.33453
    endloop
  endfacet
  facet normal 0 1 -0
    outer loop
      vertex 4.2536 5 4.88788
      vertex 0 5 10
      vertex 4.2536 5 5.11212
    endloop
  endfacet
  facet normal 0 1 0
    outer loop
      vertex 0 5 0
      vertex 4.2536 5 4.88788
      vertex 4.28227 5 4.66547
    endloop
  endfacet
  facet normal 0 1 0
    outer loop
      vertex 0 5 0
      vertex 4.28227 5 4.66547
      vertex 4.33915 5 4.44856
    endloop
  endfacet
  facet normal 0 1 0
    outer loop
      vertex 0 5 0
      vertex 4.33915 5 4.44856
      vertex 4.4233 5 4.2407
    endloop
  endfacet
  facet normal 0 1 0
    outer loop
      vertex 0 5 0
      vertex 4.4233 5 4.2407
      vertex 4.53335 5 4.04531
    endloop
  endfacet
  facet normal 0 1 0
    outer loop
      vertex 0 5 0
      vertex 4.53335 5 4.04531
      vertex 4.66747 5 3.8656
    endloop
  endfacet
  facet normal 0 1 0
    outer loop
      vertex 0 5 0
      vertex 6.05609 5 3.2509
      vertex 11.6 5 0
    endloop
  endfacet
  facet normal 0 1 0
    outer loop
      vertex 6.05609 5 3.2509
      vertex 0 5 0
      vertex 5.83196 5 3.25809
    endloop
  endfacet
  facet normal 0 1 0
    outer loop
      vertex 5.83196 5 3.25809
      vertex 0 5 0
      vertex 5.61059 5 3.29388
    endloop
  endfacet
  facet normal 0 1 0
    outer loop
      vertex 5.61059 5 3.29388
      vertex 0 5 0
      vertex 5.39561 5 3.35768
    endloop
  endfacet
  facet normal 0 1 0
    outer loop
      vertex 4.2536 5 4.88788
      vertex 0 5 0
      vertex 0 5 10
    endloop
  endfacet
  facet normal 0 1 0
    outer loop
      vertex 4.82347 5 3.70451
      vertex 0 5 0
      vertex 4.66747 5 3.8656
    endloop
  endfacet
  facet normal 0 1 0
    outer loop
      vertex 4.9988 5 3.5647
      vertex 0 5 0
      vertex 4.82347 5 3.70451
    endloop
  endfacet
  facet normal 0 1 0
    outer loop
      vertex 5.19056 5 3.44845
      vertex 0 5 0
      vertex 4.9988 5 3.5647
    endloop
  endfacet
  facet normal 0 1 0
    outer loop
      vertex 5.39561 5 3.35768
      vertex 0 5 0
      vertex 5.19056 5 3.44845
    endloop
  endfacet
  facet normal 0 0 -1
    outer loop
      vertex 11.6 -21.6 0
      vertex 10.3 -10.3 0
      vertex 11.6 5 0
    endloop
  endfacet
  facet normal 0 0 -1
    outer loop
      vertex 11.6 -21.6 0
      vertex 1.3 -10.3 0
      vertex 10.3 -10.3 0
    endloop
  endfacet
  facet normal 0 0 -1
    outer loop
      vertex 0 5 0
      vertex 1.3 -10.3 0
      vertex 0 -21.6 0
    endloop
  endfacet
  facet normal 0 0 -1
    outer loop
      vertex 0 -21.6 0
      vertex 1.3 -10.3 0
      vertex 11.6 -21.6 0
    endloop
  endfacet
  facet normal 0 0 -1
    outer loop
      vertex 10.3 -1.3 0
      vertex 11.6 5 0
      vertex 10.3 -10.3 0
    endloop
  endfacet
  facet normal 0 0 -1
    outer loop
      vertex 1.3 -1.3 0
      vertex 11.6 5 0
      vertex 10.3 -1.3 0
    endloop
  endfacet
  facet normal 0 0 -1
    outer loop
      vertex 1.3 -1.3 0
      vertex 0 5 0
      vertex 11.6 5 0
    endloop
  endfacet
  facet normal 0 0 -1
    outer loop
      vertex 1.3 -10.3 0
      vertex 0 5 0
      vertex 1.3 -1.3 0
    endloop
  endfacet
  facet normal -0.997945 0 -0.064073
    outer loop
      vertex 7.75 -1.3 5
      vertex 7.73563 5 5.22378
      vertex 7.75 5 5
    endloop
  endfacet
  facet normal -0.997945 -0 -0.064073
    outer loop
      vertex 7.73563 5 5.22378
      vertex 7.75 -1.3 5
      vertex 7.73563 -1.3 5.22378
    endloop
  endfacet
  facet normal -0.981559 0 0.191159
    outer loop
      vertex 7.69277 -1.3 4.5561
      vertex 7.73563 5 4.77621
      vertex 7.69277 5 4.5561
    endloop
  endfacet
  facet normal -0.981559 0 0.191159
    outer loop
      vertex 7.73563 5 4.77621
      vertex 7.69277 -1.3 4.5561
      vertex 7.73563 -1.3 4.77621
    endloop
  endfacet
  facet normal -0.572115 0 -0.820173
    outer loop
      vertex 6.90719 -1.3 6.4965
      vertex 7.09111 5 6.36821
      vertex 7.09111 -1.3 6.36821
    endloop
  endfacet
  facet normal -0.572115 0 -0.820173
    outer loop
      vertex 7.09111 5 6.36821
      vertex 6.90719 -1.3 6.4965
      vertex 6.90719 5 6.4965
    endloop
  endfacet
  facet normal 0.404786 0 -0.914412
    outer loop
      vertex 5.19056 -1.3 6.55155
      vertex 5.39561 5 6.64232
      vertex 5.39561 -1.3 6.64232
    endloop
  endfacet
  facet normal 0.404786 0 -0.914412
    outer loop
      vertex 5.39561 5 6.64232
      vertex 5.19056 -1.3 6.55155
      vertex 5.19056 5 6.55155
    endloop
  endfacet
  facet normal 0.926918 0 -0.375264
    outer loop
      vertex 4.4233 -1.3 5.7593
      vertex 4.33915 5 5.55144
      vertex 4.4233 5 5.7593
    endloop
  endfacet
  facet normal 0.926918 0 -0.375264
    outer loop
      vertex 4.33915 5 5.55144
      vertex 4.4233 -1.3 5.7593
      vertex 4.33915 -1.3 5.55144
    endloop
  endfacet
  facet normal -0.345367 0 -0.938468
    outer loop
      vertex 6.49792 -1.3 6.67767
      vertex 6.70837 5 6.60022
      vertex 6.70837 -1.3 6.60022
    endloop
  endfacet
  facet normal -0.345367 0 -0.938468
    outer loop
      vertex 6.70837 5 6.60022
      vertex 6.49792 -1.3 6.67767
      vertex 6.49792 5 6.67767
    endloop
  endfacet
  facet normal 0.0320534 0 -0.999486
    outer loop
      vertex 5.83196 -1.3 6.74191
      vertex 6.05609 5 6.7491
      vertex 6.05609 -1.3 6.7491
    endloop
  endfacet
  facet normal 0.0320534 0 -0.999486
    outer loop
      vertex 6.05609 5 6.7491
      vertex 5.83196 -1.3 6.74191
      vertex 5.83196 5 6.74191
    endloop
  endfacet
  facet normal 1 -0 0
    outer loop
      vertex 4.2536 -1.3 5.11212
      vertex 4.2536 5 4.88788
      vertex 4.2536 5 5.11212
    endloop
  endfacet
  facet normal 1 0 0
    outer loop
      vertex 4.2536 5 4.88788
      vertex 4.2536 -1.3 5.11212
      vertex 4.2536 -1.3 4.88788
    endloop
  endfacet
  facet normal 0.71835 0 -0.695682
    outer loop
      vertex 4.82347 -1.3 6.29549
      vertex 4.66747 5 6.1344
      vertex 4.82347 5 6.29549
    endloop
  endfacet
  facet normal 0.71835 0 -0.695682
    outer loop
      vertex 4.66747 5 6.1344
      vertex 4.82347 -1.3 6.29549
      vertex 4.66747 -1.3 6.1344
    endloop
  endfacet
  facet normal -0.345367 0 0.938468
    outer loop
      vertex 6.49792 5 3.32233
      vertex 6.70837 -1.3 3.39978
      vertex 6.70837 5 3.39978
    endloop
  endfacet
  facet normal -0.345367 0 0.938468
    outer loop
      vertex 6.70837 -1.3 3.39978
      vertex 6.49792 5 3.32233
      vertex 6.49792 -1.3 3.32233
    endloop
  endfacet
  facet normal 0.0320534 0 0.999486
    outer loop
      vertex 5.83196 5 3.25809
      vertex 6.05609 -1.3 3.2509
      vertex 6.05609 5 3.2509
    endloop
  endfacet
  facet normal 0.0320534 0 0.999486
    outer loop
      vertex 6.05609 -1.3 3.2509
      vertex 5.83196 5 3.25809
      vertex 5.83196 -1.3 3.25809
    endloop
  endfacet
  facet normal 0.623488 0 0.781833
    outer loop
      vertex 4.82347 5 3.70451
      vertex 4.9988 -1.3 3.5647
      vertex 4.9988 5 3.5647
    endloop
  endfacet
  facet normal 0.623488 0 0.781833
    outer loop
      vertex 4.9988 -1.3 3.5647
      vertex 4.82347 5 3.70451
      vertex 4.82347 -1.3 3.70451
    endloop
  endfacet
  facet normal -0.981559 0 -0.191159
    outer loop
      vertex 7.73563 -1.3 5.22378
      vertex 7.69277 5 5.4439
      vertex 7.73563 5 5.22378
    endloop
  endfacet
  facet normal -0.981559 -0 -0.191159
    outer loop
      vertex 7.69277 5 5.4439
      vertex 7.73563 -1.3 5.22378
      vertex 7.69277 -1.3 5.4439
    endloop
  endfacet
  facet normal -0.838089 0 -0.545534
    outer loop
      vertex 7.52481 -1.3 5.85876
      vertex 7.40247 5 6.04669
      vertex 7.52481 5 5.85876
    endloop
  endfacet
  facet normal -0.838089 -0 -0.545534
    outer loop
      vertex 7.40247 5 6.04669
      vertex 7.52481 -1.3 5.85876
      vertex 7.40247 -1.3 6.04669
    endloop
  endfacet
  facet normal -0.672301 0 -0.740278
    outer loop
      vertex 7.09111 -1.3 6.36821
      vertex 7.25711 5 6.21744
      vertex 7.25711 -1.3 6.21744
    endloop
  endfacet
  facet normal -0.672301 0 -0.740278
    outer loop
      vertex 7.25711 5 6.21744
      vertex 7.09111 -1.3 6.36821
      vertex 7.09111 5 6.36821
    endloop
  endfacet
  facet normal -0.462539 0 -0.886599
    outer loop
      vertex 6.70837 -1.3 6.60022
      vertex 6.90719 5 6.4965
      vertex 6.90719 -1.3 6.4965
    endloop
  endfacet
  facet normal -0.462539 0 -0.886599
    outer loop
      vertex 6.90719 5 6.4965
      vertex 6.70837 -1.3 6.60022
      vertex 6.70837 5 6.60022
    endloop
  endfacet
  facet normal -0.22252 0 -0.974928
    outer loop
      vertex 6.2793 -1.3 6.72757
      vertex 6.49792 5 6.67767
      vertex 6.49792 -1.3 6.67767
    endloop
  endfacet
  facet normal -0.22252 0 -0.974928
    outer loop
      vertex 6.49792 5 6.67767
      vertex 6.2793 -1.3 6.72757
      vertex 6.2793 5 6.72757
    endloop
  endfacet
  facet normal -0.0960238 0 -0.995379
    outer loop
      vertex 6.05609 -1.3 6.7491
      vertex 6.2793 5 6.72757
      vertex 6.2793 -1.3 6.72757
    endloop
  endfacet
  facet normal -0.0960238 0 -0.995379
    outer loop
      vertex 6.2793 5 6.72757
      vertex 6.05609 -1.3 6.7491
      vertex 6.05609 5 6.7491
    endloop
  endfacet
  facet normal 0.967295 0 -0.253654
    outer loop
      vertex 4.33915 -1.3 5.55144
      vertex 4.28227 5 5.33453
      vertex 4.33915 5 5.55144
    endloop
  endfacet
  facet normal 0.967295 0 -0.253654
    outer loop
      vertex 4.28227 5 5.33453
      vertex 4.33915 -1.3 5.55144
      vertex 4.28227 -1.3 5.33453
    endloop
  endfacet
  facet normal 0.99179 0 -0.127878
    outer loop
      vertex 4.28227 -1.3 5.33453
      vertex 4.2536 5 5.11212
      vertex 4.28227 5 5.33453
    endloop
  endfacet
  facet normal 0.99179 0 -0.127878
    outer loop
      vertex 4.2536 5 5.11212
      vertex 4.28227 -1.3 5.33453
      vertex 4.2536 -1.3 5.11212
    endloop
  endfacet
  facet normal 0.871317 0 -0.49072
    outer loop
      vertex 4.53335 -1.3 5.95469
      vertex 4.4233 5 5.7593
      vertex 4.53335 5 5.95469
    endloop
  endfacet
  facet normal 0.871317 0 -0.49072
    outer loop
      vertex 4.4233 5 5.7593
      vertex 4.53335 -1.3 5.95469
      vertex 4.4233 -1.3 5.7593
    endloop
  endfacet
  facet normal 0.801414 0 -0.598109
    outer loop
      vertex 4.66747 -1.3 6.1344
      vertex 4.53335 5 5.95469
      vertex 4.66747 5 6.1344
    endloop
  endfacet
  facet normal 0.801414 0 -0.598109
    outer loop
      vertex 4.53335 5 5.95469
      vertex 4.66747 -1.3 6.1344
      vertex 4.53335 -1.3 5.95469
    endloop
  endfacet
  facet normal 0.623488 0 -0.781833
    outer loop
      vertex 4.82347 -1.3 6.29549
      vertex 4.9988 5 6.4353
      vertex 4.9988 -1.3 6.4353
    endloop
  endfacet
  facet normal 0.623488 0 -0.781833
    outer loop
      vertex 4.9988 5 6.4353
      vertex 4.82347 -1.3 6.29549
      vertex 4.82347 5 6.29549
    endloop
  endfacet
  facet normal 0.518392 0 -0.855143
    outer loop
      vertex 4.9988 -1.3 6.4353
      vertex 5.19056 5 6.55155
      vertex 5.19056 -1.3 6.55155
    endloop
  endfacet
  facet normal 0.518392 0 -0.855143
    outer loop
      vertex 5.19056 5 6.55155
      vertex 4.9988 -1.3 6.4353
      vertex 4.9988 5 6.4353
    endloop
  endfacet
  facet normal -0.997945 0 0.0640727
    outer loop
      vertex 7.73563 -1.3 4.77621
      vertex 7.75 5 5
      vertex 7.73563 5 4.77621
    endloop
  endfacet
  facet normal -0.997945 0 0.0640727
    outer loop
      vertex 7.75 5 5
      vertex 7.73563 -1.3 4.77621
      vertex 7.75 -1.3 5
    endloop
  endfacet
  facet normal -0.949056 0 0.315109
    outer loop
      vertex 7.6221 -1.3 4.34328
      vertex 7.69277 5 4.5561
      vertex 7.6221 5 4.34328
    endloop
  endfacet
  facet normal -0.949056 0 0.315109
    outer loop
      vertex 7.69277 5 4.5561
      vertex 7.6221 -1.3 4.34328
      vertex 7.69277 -1.3 4.5561
    endloop
  endfacet
  facet normal -0.761446 0 0.648228
    outer loop
      vertex 7.25711 -1.3 3.78255
      vertex 7.40247 5 3.95331
      vertex 7.25711 5 3.78255
    endloop
  endfacet
  facet normal -0.761446 0 0.648228
    outer loop
      vertex 7.40247 5 3.95331
      vertex 7.25711 -1.3 3.78255
      vertex 7.40247 -1.3 3.95331
    endloop
  endfacet
  facet normal -0.22252 0 0.974928
    outer loop
      vertex 6.2793 5 3.27243
      vertex 6.49792 -1.3 3.32233
      vertex 6.49792 5 3.32233
    endloop
  endfacet
  facet normal -0.22252 0 0.974928
    outer loop
      vertex 6.49792 -1.3 3.32233
      vertex 6.2793 5 3.27243
      vertex 6.2793 -1.3 3.27243
    endloop
  endfacet
  facet normal -0.672301 0 0.740278
    outer loop
      vertex 7.09111 5 3.63179
      vertex 7.25711 -1.3 3.78255
      vertex 7.25711 5 3.78255
    endloop
  endfacet
  facet normal -0.672301 0 0.740278
    outer loop
      vertex 7.25711 -1.3 3.78255
      vertex 7.09111 5 3.63179
      vertex 7.09111 -1.3 3.63179
    endloop
  endfacet
  facet normal -0.462539 0 0.886599
    outer loop
      vertex 6.70837 5 3.39978
      vertex 6.90719 -1.3 3.5035
      vertex 6.90719 5 3.5035
    endloop
  endfacet
  facet normal -0.462539 0 0.886599
    outer loop
      vertex 6.90719 -1.3 3.5035
      vertex 6.70837 5 3.39978
      vertex 6.70837 -1.3 3.39978
    endloop
  endfacet
  facet normal 0.284526 0 0.958668
    outer loop
      vertex 5.39561 5 3.35768
      vertex 5.61059 -1.3 3.29388
      vertex 5.61059 5 3.29388
    endloop
  endfacet
  facet normal 0.284526 0 0.958668
    outer loop
      vertex 5.61059 -1.3 3.29388
      vertex 5.39561 5 3.35768
      vertex 5.39561 -1.3 3.35768
    endloop
  endfacet
  facet normal 0.99179 -0 0.127878
    outer loop
      vertex 4.2536 -1.3 4.88788
      vertex 4.28227 5 4.66547
      vertex 4.2536 5 4.88788
    endloop
  endfacet
  facet normal 0.99179 0 0.127878
    outer loop
      vertex 4.28227 5 4.66547
      vertex 4.2536 -1.3 4.88788
      vertex 4.28227 -1.3 4.66547
    endloop
  endfacet
  facet normal 0.71835 -0 0.695682
    outer loop
      vertex 4.66747 -1.3 3.8656
      vertex 4.82347 5 3.70451
      vertex 4.66747 5 3.8656
    endloop
  endfacet
  facet normal 0.71835 0 0.695682
    outer loop
      vertex 4.82347 5 3.70451
      vertex 4.66747 -1.3 3.8656
      vertex 4.82347 -1.3 3.70451
    endloop
  endfacet
  facet normal 0.871317 -0 0.49072
    outer loop
      vertex 4.4233 -1.3 4.2407
      vertex 4.53335 5 4.04531
      vertex 4.4233 5 4.2407
    endloop
  endfacet
  facet normal 0.871317 0 0.49072
    outer loop
      vertex 4.53335 5 4.04531
      vertex 4.4233 -1.3 4.2407
      vertex 4.53335 -1.3 4.04531
    endloop
  endfacet
  facet normal -0.949056 0 -0.315109
    outer loop
      vertex 7.69277 -1.3 5.4439
      vertex 7.6221 5 5.65672
      vertex 7.69277 5 5.4439
    endloop
  endfacet
  facet normal -0.949056 -0 -0.315109
    outer loop
      vertex 7.6221 5 5.65672
      vertex 7.69277 -1.3 5.4439
      vertex 7.6221 -1.3 5.65672
    endloop
  endfacet
  facet normal -0.900969 0 -0.433884
    outer loop
      vertex 7.6221 -1.3 5.65672
      vertex 7.52481 5 5.85876
      vertex 7.6221 5 5.65672
    endloop
  endfacet
  facet normal -0.900969 -0 -0.433884
    outer loop
      vertex 7.52481 5 5.85876
      vertex 7.6221 -1.3 5.65672
      vertex 7.52481 -1.3 5.85876
    endloop
  endfacet
  facet normal -0.761446 0 -0.648228
    outer loop
      vertex 7.40247 -1.3 6.04669
      vertex 7.25711 5 6.21744
      vertex 7.40247 5 6.04669
    endloop
  endfacet
  facet normal -0.761446 -0 -0.648228
    outer loop
      vertex 7.25711 5 6.21744
      vertex 7.40247 -1.3 6.04669
      vertex 7.25711 -1.3 6.21744
    endloop
  endfacet
  facet normal 0.1596 0 -0.987182
    outer loop
      vertex 5.61059 -1.3 6.70612
      vertex 5.83196 5 6.74191
      vertex 5.83196 -1.3 6.74191
    endloop
  endfacet
  facet normal 0.1596 0 -0.987182
    outer loop
      vertex 5.83196 5 6.74191
      vertex 5.61059 -1.3 6.70612
      vertex 5.61059 5 6.70612
    endloop
  endfacet
  facet normal 0.284526 0 -0.958668
    outer loop
      vertex 5.39561 -1.3 6.64232
      vertex 5.61059 5 6.70612
      vertex 5.61059 -1.3 6.70612
    endloop
  endfacet
  facet normal 0.284526 0 -0.958668
    outer loop
      vertex 5.61059 5 6.70612
      vertex 5.39561 -1.3 6.64232
      vertex 5.39561 5 6.64232
    endloop
  endfacet
  facet normal -0.0960238 0 0.995379
    outer loop
      vertex 6.05609 5 3.2509
      vertex 6.2793 -1.3 3.27243
      vertex 6.2793 5 3.27243
    endloop
  endfacet
  facet normal -0.0960238 0 0.995379
    outer loop
      vertex 6.2793 -1.3 3.27243
      vertex 6.05609 5 3.2509
      vertex 6.05609 -1.3 3.2509
    endloop
  endfacet
  facet normal -0.572115 0 0.820173
    outer loop
      vertex 6.90719 5 3.5035
      vertex 7.09111 -1.3 3.63179
      vertex 7.09111 5 3.63179
    endloop
  endfacet
  facet normal -0.572115 0 0.820173
    outer loop
      vertex 7.09111 -1.3 3.63179
      vertex 6.90719 5 3.5035
      vertex 6.90719 -1.3 3.5035
    endloop
  endfacet
  facet normal 0.1596 0 0.987182
    outer loop
      vertex 5.61059 5 3.29388
      vertex 5.83196 -1.3 3.25809
      vertex 5.83196 5 3.25809
    endloop
  endfacet
  facet normal 0.1596 0 0.987182
    outer loop
      vertex 5.83196 -1.3 3.25809
      vertex 5.61059 5 3.29388
      vertex 5.61059 -1.3 3.29388
    endloop
  endfacet
  facet normal 0.518392 0 0.855143
    outer loop
      vertex 4.9988 5 3.5647
      vertex 5.19056 -1.3 3.44845
      vertex 5.19056 5 3.44845
    endloop
  endfacet
  facet normal 0.518392 0 0.855143
    outer loop
      vertex 5.19056 -1.3 3.44845
      vertex 4.9988 5 3.5647
      vertex 4.9988 -1.3 3.5647
    endloop
  endfacet
  facet normal 0.404786 0 0.914412
    outer loop
      vertex 5.19056 5 3.44845
      vertex 5.39561 -1.3 3.35768
      vertex 5.39561 5 3.35768
    endloop
  endfacet
  facet normal 0.404786 0 0.914412
    outer loop
      vertex 5.39561 -1.3 3.35768
      vertex 5.19056 5 3.44845
      vertex 5.19056 -1.3 3.44845
    endloop
  endfacet
  facet normal 0.967295 -0 0.253654
    outer loop
      vertex 4.28227 -1.3 4.66547
      vertex 4.33915 5 4.44856
      vertex 4.28227 5 4.66547
    endloop
  endfacet
  facet normal 0.967295 0 0.253654
    outer loop
      vertex 4.33915 5 4.44856
      vertex 4.28227 -1.3 4.66547
      vertex 4.33915 -1.3 4.44856
    endloop
  endfacet
  facet normal 0.926918 -0 0.375264
    outer loop
      vertex 4.33915 -1.3 4.44856
      vertex 4.4233 5 4.2407
      vertex 4.33915 5 4.44856
    endloop
  endfacet
  facet normal 0.926918 0 0.375264
    outer loop
      vertex 4.4233 5 4.2407
      vertex 4.33915 -1.3 4.44856
      vertex 4.4233 -1.3 4.2407
    endloop
  endfacet
  facet normal 0.801414 -0 0.598109
    outer loop
      vertex 4.53335 -1.3 4.04531
      vertex 4.66747 5 3.8656
      vertex 4.53335 5 4.04531
    endloop
  endfacet
  facet normal 0.801414 0 0.598109
    outer loop
      vertex 4.66747 5 3.8656
      vertex 4.53335 -1.3 4.04531
      vertex 4.66747 -1.3 3.8656
    endloop
  endfacet
  facet normal -0.900969 0 0.433884
    outer loop
      vertex 7.52481 -1.3 4.14124
      vertex 7.6221 5 4.34328
      vertex 7.52481 5 4.14124
    endloop
  endfacet
  facet normal -0.900969 0 0.433884
    outer loop
      vertex 7.6221 5 4.34328
      vertex 7.52481 -1.3 4.14124
      vertex 7.6221 -1.3 4.34328
    endloop
  endfacet
  facet normal -0.838089 0 0.545534
    outer loop
      vertex 7.40247 -1.3 3.95331
      vertex 7.52481 5 4.14124
      vertex 7.40247 5 3.95331
    endloop
  endfacet
  facet normal -0.838089 0 0.545534
    outer loop
      vertex 7.52481 5 4.14124
      vertex 7.40247 -1.3 3.95331
      vertex 7.52481 -1.3 4.14124
    endloop
  endfacet
  facet normal 0 -1 0
    outer loop
      vertex 0 -21.6 8.69923
      vertex 11.6 -21.6 10
      vertex 0 -21.6 10
    endloop
  endfacet
  facet normal 0 -1 -0
    outer loop
      vertex 11.6 -21.6 10
      vertex 0 -21.6 8.69923
      vertex 11.6 -21.6 8.69923
    endloop
  endfacet
  facet normal 0 -1 0
    outer loop
      vertex 0 -21.6 0
      vertex 11.6 -21.6 1.29198
      vertex 0 -21.6 1.29198
    endloop
  endfacet
  facet normal 0 -1 -0
    outer loop
      vertex 11.6 -21.6 1.29198
      vertex 0 -21.6 0
      vertex 11.6 -21.6 0
    endloop
  endfacet
  facet normal 1 -0 0
    outer loop
      vertex 1.3 -10.3 10
      vertex 1.3 -1.3 0
      vertex 1.3 -1.3 10
    endloop
  endfacet
  facet normal 1 0 0
    outer loop
      vertex 1.3 -1.3 0
      vertex 1.3 -10.3 10
      vertex 1.3 -10.3 0
    endloop
  endfacet
  facet normal -1 0 0
    outer loop
      vertex 10.3 -10.3 0
      vertex 10.3 -1.3 10
      vertex 10.3 -1.3 0
    endloop
  endfacet
  facet normal -1 -0 0
    outer loop
      vertex 10.3 -1.3 10
      vertex 10.3 -10.3 0
      vertex 10.3 -10.3 10
    endloop
  endfacet
  facet normal 0 -1 0
    outer loop
      vertex 1.3 -1.3 10
      vertex 6.05609 -1.3 6.7491
      vertex 10.3 -1.3 10
    endloop
  endfacet
  facet normal 0 -1 0
    outer loop
      vertex 1.3 -1.3 10
      vertex 5.83196 -1.3 6.74191
      vertex 6.05609 -1.3 6.7491
    endloop
  endfacet
  facet normal 0 -1 0
    outer loop
      vertex 1.3 -1.3 10
      vertex 5.61059 -1.3 6.70612
      vertex 5.83196 -1.3 6.74191
    endloop
  endfacet
  facet normal 0 -1 0
    outer loop
      vertex 1.3 -1.3 10
      vertex 5.39561 -1.3 6.64232
      vertex 5.61059 -1.3 6.70612
    endloop
  endfacet
  facet normal 0 -1 0
    outer loop
      vertex 1.3 -1.3 10
      vertex 5.19056 -1.3 6.55155
      vertex 5.39561 -1.3 6.64232
    endloop
  endfacet
  facet normal 0 -1 0
    outer loop
      vertex 1.3 -1.3 10
      vertex 4.9988 -1.3 6.4353
      vertex 5.19056 -1.3 6.55155
    endloop
  endfacet
  facet normal 0 -1 0
    outer loop
      vertex 1.3 -1.3 10
      vertex 4.82347 -1.3 6.29549
      vertex 4.9988 -1.3 6.4353
    endloop
  endfacet
  facet normal 0 -1 0
    outer loop
      vertex 1.3 -1.3 10
      vertex 4.66747 -1.3 6.1344
      vertex 4.82347 -1.3 6.29549
    endloop
  endfacet
  facet normal 0 -1 0
    outer loop
      vertex 1.3 -1.3 10
      vertex 4.53335 -1.3 5.95469
      vertex 4.66747 -1.3 6.1344
    endloop
  endfacet
  facet normal 0 -1 0
    outer loop
      vertex 1.3 -1.3 10
      vertex 4.4233 -1.3 5.7593
      vertex 4.53335 -1.3 5.95469
    endloop
  endfacet
  facet normal 0 -1 0
    outer loop
      vertex 1.3 -1.3 10
      vertex 4.33915 -1.3 5.55144
      vertex 4.4233 -1.3 5.7593
    endloop
  endfacet
  facet normal 0 -1 0
    outer loop
      vertex 1.3 -1.3 10
      vertex 4.28227 -1.3 5.33453
      vertex 4.33915 -1.3 5.55144
    endloop
  endfacet
  facet normal 0 -1 0
    outer loop
      vertex 1.3 -1.3 10
      vertex 4.2536 -1.3 5.11212
      vertex 4.28227 -1.3 5.33453
    endloop
  endfacet
  facet normal 0 -1 0
    outer loop
      vertex 1.3 -1.3 10
      vertex 4.2536 -1.3 4.88788
      vertex 4.2536 -1.3 5.11212
    endloop
  endfacet
  facet normal 0 -1 0
    outer loop
      vertex 1.3 -1.3 0
      vertex 4.2536 -1.3 4.88788
      vertex 1.3 -1.3 10
    endloop
  endfacet
  facet normal 0 -1 -0
    outer loop
      vertex 4.2536 -1.3 4.88788
      vertex 1.3 -1.3 0
      vertex 4.28227 -1.3 4.66547
    endloop
  endfacet
  facet normal 0 -1 -0
    outer loop
      vertex 4.28227 -1.3 4.66547
      vertex 1.3 -1.3 0
      vertex 4.33915 -1.3 4.44856
    endloop
  endfacet
  facet normal 0 -1 -0
    outer loop
      vertex 5.83196 -1.3 3.25809
      vertex 1.3 -1.3 0
      vertex 6.05609 -1.3 3.2509
    endloop
  endfacet
  facet normal 0 -1 -0
    outer loop
      vertex 5.61059 -1.3 3.29388
      vertex 1.3 -1.3 0
      vertex 5.83196 -1.3 3.25809
    endloop
  endfacet
  facet normal 0 -1 -0
    outer loop
      vertex 5.39561 -1.3 3.35768
      vertex 1.3 -1.3 0
      vertex 5.61059 -1.3 3.29388
    endloop
  endfacet
  facet normal 0 -1 -0
    outer loop
      vertex 5.19056 -1.3 3.44845
      vertex 1.3 -1.3 0
      vertex 5.39561 -1.3 3.35768
    endloop
  endfacet
  facet normal 0 -1 -0
    outer loop
      vertex 4.9988 -1.3 3.5647
      vertex 1.3 -1.3 0
      vertex 5.19056 -1.3 3.44845
    endloop
  endfacet
  facet normal 0 -1 -0
    outer loop
      vertex 4.82347 -1.3 3.70451
      vertex 1.3 -1.3 0
      vertex 4.9988 -1.3 3.5647
    endloop
  endfacet
  facet normal 0 -1 -0
    outer loop
      vertex 4.66747 -1.3 3.8656
      vertex 1.3 -1.3 0
      vertex 4.82347 -1.3 3.70451
    endloop
  endfacet
  facet normal 0 -1 -0
    outer loop
      vertex 4.53335 -1.3 4.04531
      vertex 1.3 -1.3 0
      vertex 4.66747 -1.3 3.8656
    endloop
  endfacet
  facet normal 0 -1 -0
    outer loop
      vertex 4.4233 -1.3 4.2407
      vertex 1.3 -1.3 0
      vertex 4.53335 -1.3 4.04531
    endloop
  endfacet
  facet normal 0 -1 -0
    outer loop
      vertex 4.33915 -1.3 4.44856
      vertex 1.3 -1.3 0
      vertex 4.4233 -1.3 4.2407
    endloop
  endfacet
  facet normal 0 -1 0
    outer loop
      vertex 6.2793 -1.3 6.72757
      vertex 10.3 -1.3 10
      vertex 6.05609 -1.3 6.7491
    endloop
  endfacet
  facet normal 0 -1 0
    outer loop
      vertex 6.49792 -1.3 6.67767
      vertex 10.3 -1.3 10
      vertex 6.2793 -1.3 6.72757
    endloop
  endfacet
  facet normal 0 -1 0
    outer loop
      vertex 6.70837 -1.3 6.60022
      vertex 10.3 -1.3 10
      vertex 6.49792 -1.3 6.67767
    endloop
  endfacet
  facet normal 0 -1 0
    outer loop
      vertex 6.90719 -1.3 6.4965
      vertex 10.3 -1.3 10
      vertex 6.70837 -1.3 6.60022
    endloop
  endfacet
  facet normal 0 -1 0
    outer loop
      vertex 7.09111 -1.3 6.36821
      vertex 10.3 -1.3 10
      vertex 6.90719 -1.3 6.4965
    endloop
  endfacet
  facet normal 0 -1 0
    outer loop
      vertex 7.25711 -1.3 6.21744
      vertex 10.3 -1.3 10
      vertex 7.09111 -1.3 6.36821
    endloop
  endfacet
  facet normal 0 -1 0
    outer loop
      vertex 7.40247 -1.3 6.04669
      vertex 10.3 -1.3 10
      vertex 7.25711 -1.3 6.21744
    endloop
  endfacet
  facet normal 0 -1 0
    outer loop
      vertex 7.52481 -1.3 5.85876
      vertex 10.3 -1.3 10
      vertex 7.40247 -1.3 6.04669
    endloop
  endfacet
  facet normal 0 -1 0
    outer loop
      vertex 7.6221 -1.3 5.65672
      vertex 10.3 -1.3 10
      vertex 7.52481 -1.3 5.85876
    endloop
  endfacet
  facet normal 0 -1 0
    outer loop
      vertex 7.69277 -1.3 5.4439
      vertex 10.3 -1.3 10
      vertex 7.6221 -1.3 5.65672
    endloop
  endfacet
  facet normal 0 -1 0
    outer loop
      vertex 7.73563 -1.3 5.22378
      vertex 10.3 -1.3 10
      vertex 7.69277 -1.3 5.4439
    endloop
  endfacet
  facet normal 0 -1 0
    outer loop
      vertex 7.75 -1.3 5
      vertex 10.3 -1.3 10
      vertex 7.73563 -1.3 5.22378
    endloop
  endfacet
  facet normal 0 -1 0
    outer loop
      vertex 10.3 -1.3 0
      vertex 7.75 -1.3 5
      vertex 7.73563 -1.3 4.77621
    endloop
  endfacet
  facet normal 0 -1 0
    outer loop
      vertex 10.3 -1.3 0
      vertex 7.73563 -1.3 4.77621
      vertex 7.69277 -1.3 4.5561
    endloop
  endfacet
  facet normal 0 -1 0
    outer loop
      vertex 10.3 -1.3 0
      vertex 7.69277 -1.3 4.5561
      vertex 7.6221 -1.3 4.34328
    endloop
  endfacet
  facet normal 0 -1 0
    outer loop
      vertex 10.3 -1.3 0
      vertex 6.05609 -1.3 3.2509
      vertex 1.3 -1.3 0
    endloop
  endfacet
  facet normal 0 -1 0
    outer loop
      vertex 6.05609 -1.3 3.2509
      vertex 10.3 -1.3 0
      vertex 6.2793 -1.3 3.27243
    endloop
  endfacet
  facet normal 0 -1 0
    outer loop
      vertex 6.2793 -1.3 3.27243
      vertex 10.3 -1.3 0
      vertex 6.49792 -1.3 3.32233
    endloop
  endfacet
  facet normal 0 -1 0
    outer loop
      vertex 6.49792 -1.3 3.32233
      vertex 10.3 -1.3 0
      vertex 6.70837 -1.3 3.39978
    endloop
  endfacet
  facet normal 0 -1 0
    outer loop
      vertex 7.75 -1.3 5
      vertex 10.3 -1.3 0
      vertex 10.3 -1.3 10
    endloop
  endfacet
  facet normal 0 -1 0
    outer loop
      vertex 7.52481 -1.3 4.14124
      vertex 10.3 -1.3 0
      vertex 7.6221 -1.3 4.34328
    endloop
  endfacet
  facet normal 0 -1 0
    outer loop
      vertex 7.40247 -1.3 3.95331
      vertex 10.3 -1.3 0
      vertex 7.52481 -1.3 4.14124
    endloop
  endfacet
  facet normal 0 -1 0
    outer loop
      vertex 7.25711 -1.3 3.78255
      vertex 10.3 -1.3 0
      vertex 7.40247 -1.3 3.95331
    endloop
  endfacet
  facet normal 0 -1 0
    outer loop
      vertex 7.09111 -1.3 3.63179
      vertex 10.3 -1.3 0
      vertex 7.25711 -1.3 3.78255
    endloop
  endfacet
  facet normal 0 -1 0
    outer loop
      vertex 6.90719 -1.3 3.5035
      vertex 10.3 -1.3 0
      vertex 7.09111 -1.3 3.63179
    endloop
  endfacet
  facet normal 0 -1 0
    outer loop
      vertex 6.70837 -1.3 3.39978
      vertex 10.3 -1.3 0
      vertex 6.90719 -1.3 3.5035
    endloop
  endfacet
  facet normal 0 1 -0
    outer loop
      vertex 10.3 -10.3 0
      vertex 1.3 -10.3 10
      vertex 10.3 -10.3 10
    endloop
  endfacet
  facet normal 0 1 0
    outer loop
      vertex 1.3 -10.3 10
      vertex 10.3 -10.3 0
      vertex 1.3 -10.3 0
    endloop
  endfacet
  facet normal 0 -0.545534 0.838089
    outer loop
      vertex 0 -20.7076 1.79434
      vertex 11.6 -21.1371 1.51472
      vertex 11.6 -20.7076 1.79434
    endloop
  endfacet
  facet normal 0 -0.545534 0.838089
    outer loop
      vertex 11.6 -21.1371 1.51472
      vertex 0 -20.7076 1.79434
      vertex 0 -21.1371 1.51472
    endloop
  endfacet
  facet normal 0 -0.938468 0.345365
    outer loop
      vertex 0 -19.4423 3.38087
      vertex 11.6 -19.2653 3.86189
      vertex 0 -19.2653 3.86189
    endloop
  endfacet
  facet normal 0 -0.938468 0.345365
    outer loop
      vertex 11.6 -19.2653 3.86189
      vertex 0 -19.4423 3.38087
      vertex 11.6 -19.4423 3.38087
    endloop
  endfacet
  facet normal 0 -0.914413 -0.404782
    outer loop
      vertex 0 -19.3461 6.38146
      vertex 11.6 -19.5536 6.85015
      vertex 0 -19.5536 6.85015
    endloop
  endfacet
  facet normal 0 -0.914413 -0.404782
    outer loop
      vertex 11.6 -19.5536 6.85015
      vertex 0 -19.3461 6.38146
      vertex 11.6 -19.3461 6.38146
    endloop
  endfacet
  facet normal 0 -0.375269 -0.926916
    outer loop
      vertex 0 -21.6 8.69923
      vertex 11.6 -21.3645 8.60388
      vertex 11.6 -21.6 8.69923
    endloop
  endfacet
  facet normal -0 -0.375269 -0.926916
    outer loop
      vertex 11.6 -21.3645 8.60388
      vertex 0 -21.6 8.69923
      vertex 0 -21.3645 8.60388
    endloop
  endfacet
  facet normal 0 -0.433885 0.900968
    outer loop
      vertex 0 -21.1371 1.51472
      vertex 11.6 -21.5989 1.29233
      vertex 11.6 -21.1371 1.51472
    endloop
  endfacet
  facet normal 0 -0.433885 0.900968
    outer loop
      vertex 11.6 -21.5989 1.29233
      vertex 0 -21.1371 1.51472
      vertex 0 -21.5989 1.29233
    endloop
  endfacet
  facet normal 0 -0.999486 -0.0320545
    outer loop
      vertex 0 -19.1021 4.87179
      vertex 11.6 -19.1185 5.38409
      vertex 0 -19.1185 5.38409
    endloop
  endfacet
  facet normal 0 -0.999486 -0.0320545
    outer loop
      vertex 11.6 -19.1185 5.38409
      vertex 0 -19.1021 4.87179
      vertex 11.6 -19.1021 4.87179
    endloop
  endfacet
  facet normal 0 -0.820172 0.572118
    outer loop
      vertex 0 -19.9727 2.50604
      vertex 11.6 -19.6794 2.92643
      vertex 0 -19.6794 2.92643
    endloop
  endfacet
  facet normal 0 -0.820172 0.572118
    outer loop
      vertex 11.6 -19.6794 2.92643
      vertex 0 -19.9727 2.50604
      vertex 11.6 -19.9727 2.50604
    endloop
  endfacet
  facet normal 0 -0.598111 -0.801413
    outer loop
      vertex 0 -20.9179 8.35235
      vertex 11.6 -20.5071 8.04578
      vertex 11.6 -20.9179 8.35235
    endloop
  endfacet
  facet normal -0 -0.598111 -0.801413
    outer loop
      vertex 11.6 -20.5071 8.04578
      vertex 0 -20.9179 8.35235
      vertex 0 -20.5071 8.04578
    endloop
  endfacet
  facet normal 0 -0.855144 -0.518391
    outer loop
      vertex 0 -19.5536 6.85015
      vertex 11.6 -19.8193 7.28847
      vertex 0 -19.8193 7.28847
    endloop
  endfacet
  facet normal 0 -0.855144 -0.518391
    outer loop
      vertex 11.6 -19.8193 7.28847
      vertex 0 -19.5536 6.85015
      vertex 11.6 -19.5536 6.85015
    endloop
  endfacet
  facet normal 0 -0.958667 -0.28453
    outer loop
      vertex 0 -19.2003 5.89008
      vertex 11.6 -19.3461 6.38146
      vertex 0 -19.3461 6.38146
    endloop
  endfacet
  facet normal 0 -0.958667 -0.28453
    outer loop
      vertex 11.6 -19.3461 6.38146
      vertex 0 -19.2003 5.89008
      vertex 11.6 -19.2003 5.89008
    endloop
  endfacet
  facet normal 0 -0.315115 0.949053
    outer loop
      vertex 0 -21.5989 1.29233
      vertex 11.6 -21.6 1.29198
      vertex 11.6 -21.5989 1.29233
    endloop
  endfacet
  facet normal 0 -0.315115 0.949053
    outer loop
      vertex 11.6 -21.6 1.29198
      vertex 0 -21.5989 1.29233
      vertex 0 -21.6 1.29198
    endloop
  endfacet
  facet normal 0 -0.648227 0.761447
    outer loop
      vertex 0 -20.3173 2.1266
      vertex 11.6 -20.7076 1.79434
      vertex 11.6 -20.3173 2.1266
    endloop
  endfacet
  facet normal 0 -0.648227 0.761447
    outer loop
      vertex 11.6 -20.7076 1.79434
      vertex 0 -20.3173 2.1266
      vertex 0 -20.7076 1.79434
    endloop
  endfacet
  facet normal 0 -0.740279 0.6723
    outer loop
      vertex 0 -20.3173 2.1266
      vertex 11.6 -19.9727 2.50604
      vertex 0 -19.9727 2.50604
    endloop
  endfacet
  facet normal 0 -0.740279 0.6723
    outer loop
      vertex 11.6 -19.9727 2.50604
      vertex 0 -20.3173 2.1266
      vertex 11.6 -20.3173 2.1266
    endloop
  endfacet
  facet normal 0 -0.974928 0.222521
    outer loop
      vertex 0 -19.2653 3.86189
      vertex 11.6 -19.1513 4.3616
      vertex 0 -19.1513 4.3616
    endloop
  endfacet
  facet normal 0 -0.974928 0.222521
    outer loop
      vertex 11.6 -19.1513 4.3616
      vertex 0 -19.2653 3.86189
      vertex 11.6 -19.2653 3.86189
    endloop
  endfacet
  facet normal 0 -0.886599 0.462538
    outer loop
      vertex 0 -19.6794 2.92643
      vertex 11.6 -19.4423 3.38087
      vertex 0 -19.4423 3.38087
    endloop
  endfacet
  facet normal 0 -0.886599 0.462538
    outer loop
      vertex 11.6 -19.4423 3.38087
      vertex 0 -19.6794 2.92643
      vertex 11.6 -19.6794 2.92643
    endloop
  endfacet
  facet normal 0 -0.490718 -0.871318
    outer loop
      vertex 0 -21.3645 8.60388
      vertex 11.6 -20.9179 8.35235
      vertex 11.6 -21.3645 8.60388
    endloop
  endfacet
  facet normal -0 -0.490718 -0.871318
    outer loop
      vertex 11.6 -20.9179 8.35235
      vertex 0 -21.3645 8.60388
      vertex 0 -20.9179 8.35235
    endloop
  endfacet
  facet normal 0 -0.987183 -0.159595
    outer loop
      vertex 0 -19.1185 5.38409
      vertex 11.6 -19.2003 5.89008
      vertex 0 -19.2003 5.89008
    endloop
  endfacet
  facet normal 0 -0.987183 -0.159595
    outer loop
      vertex 11.6 -19.2003 5.89008
      vertex 0 -19.1185 5.38409
      vertex 11.6 -19.1185 5.38409
    endloop
  endfacet
  facet normal 0 -0.78183 -0.623491
    outer loop
      vertex 0 -19.8193 7.28847
      vertex 11.6 -20.1389 7.6892
      vertex 0 -20.1389 7.6892
    endloop
  endfacet
  facet normal 0 -0.78183 -0.623491
    outer loop
      vertex 11.6 -20.1389 7.6892
      vertex 0 -19.8193 7.28847
      vertex 11.6 -19.8193 7.28847
    endloop
  endfacet
  facet normal 0 -0.695682 -0.71835
    outer loop
      vertex 0 -20.5071 8.04578
      vertex 11.6 -20.1389 7.6892
      vertex 11.6 -20.5071 8.04578
    endloop
  endfacet
  facet normal -0 -0.695682 -0.71835
    outer loop
      vertex 11.6 -20.1389 7.6892
      vertex 0 -20.5071 8.04578
      vertex 0 -20.1389 7.6892
    endloop
  endfacet
  facet normal 0 -0.995379 0.0960221
    outer loop
      vertex 0 -19.1513 4.3616
      vertex 11.6 -19.1021 4.87179
      vertex 0 -19.1021 4.87179
    endloop
  endfacet
  facet normal 0 -0.995379 0.0960221
    outer loop
      vertex 11.6 -19.1021 4.87179
      vertex 0 -19.1513 4.3616
      vertex 11.6 -19.1513 4.3616
    endloop
  endfacet
endsolid OpenSCAD_Model
