solid OpenSCAD_Model
  facet normal -1 0 0
    outer loop
      vertex -4.2 0 0
      vertex -4.2 100 5
      vertex -4.2 100 0
    endloop
  endfacet
  facet normal -1 -0 0
    outer loop
      vertex -4.2 100 5
      vertex -4.2 0 0
      vertex -4.2 0 5
    endloop
  endfacet
  facet normal 0 0 1
    outer loop
      vertex 4.2 100 5
      vertex 2.1 3.63731 5
      vertex 4.2 0 5
    endloop
  endfacet
  facet normal 0 0 1
    outer loop
      vertex 4.2 100 5
      vertex -2.1 3.63731 5
      vertex 2.1 3.63731 5
    endloop
  endfacet
  facet normal -0 0 1
    outer loop
      vertex -4.2 100 5
      vertex -2.1 3.63731 5
      vertex 4.2 100 5
    endloop
  endfacet
  facet normal 0 0 1
    outer loop
      vertex -2.1 3.63731 5
      vertex -4.2 100 5
      vertex -4.2 0 5
    endloop
  endfacet
  facet normal 1 -0 0
    outer loop
      vertex 4.2 0 5
      vertex 4.2 100 0
      vertex 4.2 100 5
    endloop
  endfacet
  facet normal 1 0 0
    outer loop
      vertex 4.2 100 0
      vertex 4.2 0 5
      vertex 4.2 0 0
    endloop
  endfacet
  facet normal 0 0 -1
    outer loop
      vertex -4.2 0 0
      vertex 4.2 0 0
      vertex 2.1 -3.63731 0
    endloop
  endfacet
  facet normal 0 0 -1
    outer loop
      vertex -4.2 0 0
      vertex 2.1 -3.63731 0
      vertex -2.1 -3.63731 0
    endloop
  endfacet
  facet normal 0 0 -1
    outer loop
      vertex 4.2 0 0
      vertex -4.2 0 0
      vertex 4.2 100 0
    endloop
  endfacet
  facet normal -0 0 -1
    outer loop
      vertex 4.2 100 0
      vertex -4.2 0 0
      vertex -4.2 100 0
    endloop
  endfacet
  facet normal 0 1 -0
    outer loop
      vertex 4.2 100 0
      vertex -4.2 100 5
      vertex 4.2 100 5
    endloop
  endfacet
  facet normal 0 1 0
    outer loop
      vertex -4.2 100 5
      vertex 4.2 100 0
      vertex -4.2 100 0
    endloop
  endfacet
  facet normal 0.866025 0.5 0
    outer loop
      vertex 4.2 0 40
      vertex 2.1 3.63731 5
      vertex 2.1 3.63731 40
    endloop
  endfacet
  facet normal 0.866025 0.5 0
    outer loop
      vertex 2.1 3.63731 5
      vertex 4.2 0 40
      vertex 4.2 0 5
    endloop
  endfacet
  facet normal -0.866025 0.5 0
    outer loop
      vertex -4.2 0 5
      vertex -2.1 3.63731 40
      vertex -2.1 3.63731 5
    endloop
  endfacet
  facet normal -0.866025 0.5 0
    outer loop
      vertex -2.1 3.63731 40
      vertex -4.2 0 5
      vertex -4.2 0 40
    endloop
  endfacet
  facet normal 0 1 -0
    outer loop
      vertex 2.1 3.63731 5
      vertex -2.1 3.63731 40
      vertex 2.1 3.63731 40
    endloop
  endfacet
  facet normal 0 1 0
    outer loop
      vertex -2.1 3.63731 40
      vertex 2.1 3.63731 5
      vertex -2.1 3.63731 5
    endloop
  endfacet
  facet normal 0 0 1
    outer loop
      vertex 2.1 3.63731 40
      vertex 3.2 0 40
      vertex 4.2 0 40
    endloop
  endfacet
  facet normal 0 0 1
    outer loop
      vertex 2.1 3.63731 40
      vertex 1.6 2.77128 40
      vertex 3.2 0 40
    endloop
  endfacet
  facet normal 0 0 1
    outer loop
      vertex 2.1 3.63731 40
      vertex -1.6 2.77128 40
      vertex 1.6 2.77128 40
    endloop
  endfacet
  facet normal -0 0 1
    outer loop
      vertex -2.1 3.63731 40
      vertex -1.6 2.77128 40
      vertex 2.1 3.63731 40
    endloop
  endfacet
  facet normal 0 0 1
    outer loop
      vertex -2.1 3.63731 40
      vertex -3.2 0 40
      vertex -1.6 2.77128 40
    endloop
  endfacet
  facet normal 0 -0 1
    outer loop
      vertex -3.2 0 40
      vertex -2.1 3.63731 40
      vertex -4.2 0 40
    endloop
  endfacet
  facet normal -0 0 1
    outer loop
      vertex 3.2 0 40
      vertex 2.1 -3.63731 40
      vertex 4.2 0 40
    endloop
  endfacet
  facet normal -0 0 1
    outer loop
      vertex 1.6 -2.77128 40
      vertex 2.1 -3.63731 40
      vertex 3.2 0 40
    endloop
  endfacet
  facet normal -0 0 1
    outer loop
      vertex -1.6 -2.77128 40
      vertex 2.1 -3.63731 40
      vertex 1.6 -2.77128 40
    endloop
  endfacet
  facet normal 0 0 1
    outer loop
      vertex -1.6 -2.77128 40
      vertex -2.1 -3.63731 40
      vertex 2.1 -3.63731 40
    endloop
  endfacet
  facet normal 0 0 1
    outer loop
      vertex -3.2 0 40
      vertex -2.1 -3.63731 40
      vertex -1.6 -2.77128 40
    endloop
  endfacet
  facet normal 0 0 1
    outer loop
      vertex -2.1 -3.63731 40
      vertex -3.2 0 40
      vertex -4.2 0 40
    endloop
  endfacet
  facet normal 0.866025 -0.5 0
    outer loop
      vertex 2.1 -3.63731 40
      vertex 4.2 0 5
      vertex 4.2 0 40
    endloop
  endfacet
  facet normal 0.866025 -0.5 0
    outer loop
      vertex 2.1 -3.63731 0
      vertex 4.2 0 5
      vertex 2.1 -3.63731 40
    endloop
  endfacet
  facet normal 0.866025 -0.5 0
    outer loop
      vertex 4.2 0 5
      vertex 2.1 -3.63731 0
      vertex 4.2 0 0
    endloop
  endfacet
  facet normal 0 -1 0
    outer loop
      vertex -2.1 -3.63731 0
      vertex 2.1 -3.63731 40
      vertex -2.1 -3.63731 40
    endloop
  endfacet
  facet normal 0 -1 -0
    outer loop
      vertex 2.1 -3.63731 40
      vertex -2.1 -3.63731 0
      vertex 2.1 -3.63731 0
    endloop
  endfacet
  facet normal -0.866025 -0.5 0
    outer loop
      vertex -2.1 -3.63731 0
      vertex -4.2 0 5
      vertex -4.2 0 0
    endloop
  endfacet
  facet normal -0.866025 -0.5 -0
    outer loop
      vertex -2.1 -3.63731 40
      vertex -4.2 0 5
      vertex -2.1 -3.63731 0
    endloop
  endfacet
  facet normal -0.866025 -0.5 0
    outer loop
      vertex -4.2 0 5
      vertex -2.1 -3.63731 40
      vertex -4.2 0 40
    endloop
  endfacet
  facet normal -0.866025 -0.5 0
    outer loop
      vertex 3.2 0 38
      vertex 1.6 2.77128 40
      vertex 1.6 2.77128 38
    endloop
  endfacet
  facet normal -0.866025 -0.5 0
    outer loop
      vertex 1.6 2.77128 40
      vertex 3.2 0 38
      vertex 3.2 0 40
    endloop
  endfacet
  facet normal 0.866025 -0.5 0
    outer loop
      vertex -3.2 0 40
      vertex -1.6 2.77128 38
      vertex -1.6 2.77128 40
    endloop
  endfacet
  facet normal 0.866025 -0.5 0
    outer loop
      vertex -1.6 2.77128 38
      vertex -3.2 0 40
      vertex -3.2 0 38
    endloop
  endfacet
  facet normal 0 -1 0
    outer loop
      vertex -1.6 2.77128 38
      vertex 1.6 2.77128 40
      vertex -1.6 2.77128 40
    endloop
  endfacet
  facet normal 0 -1 -0
    outer loop
      vertex 1.6 2.77128 40
      vertex -1.6 2.77128 38
      vertex 1.6 2.77128 38
    endloop
  endfacet
  facet normal -0.866025 0.5 0
    outer loop
      vertex 1.6 -2.77128 38
      vertex 3.2 0 40
      vertex 3.2 0 38
    endloop
  endfacet
  facet normal -0.866025 0.5 0
    outer loop
      vertex 3.2 0 40
      vertex 1.6 -2.77128 38
      vertex 1.6 -2.77128 40
    endloop
  endfacet
  facet normal 0 0 1
    outer loop
      vertex 1.6 2.77128 38
      vertex 1.6 -2.77128 38
      vertex 3.2 0 38
    endloop
  endfacet
  facet normal -0 0 1
    outer loop
      vertex -1.6 2.77128 38
      vertex 1.6 -2.77128 38
      vertex 1.6 2.77128 38
    endloop
  endfacet
  facet normal 0 0 1
    outer loop
      vertex -1.6 2.77128 38
      vertex -1.6 -2.77128 38
      vertex 1.6 -2.77128 38
    endloop
  endfacet
  facet normal 0 -0 1
    outer loop
      vertex -1.6 -2.77128 38
      vertex -1.6 2.77128 38
      vertex -3.2 0 38
    endloop
  endfacet
  facet normal 0 1 -0
    outer loop
      vertex 1.6 -2.77128 38
      vertex -1.6 -2.77128 40
      vertex 1.6 -2.77128 40
    endloop
  endfacet
  facet normal 0 1 0
    outer loop
      vertex -1.6 -2.77128 40
      vertex 1.6 -2.77128 38
      vertex -1.6 -2.77128 38
    endloop
  endfacet
  facet normal 0.866025 0.5 0
    outer loop
      vertex -1.6 -2.77128 40
      vertex -3.2 0 38
      vertex -3.2 0 40
    endloop
  endfacet
  facet normal 0.866025 0.5 0
    outer loop
      vertex -3.2 0 38
      vertex -1.6 -2.77128 40
      vertex -1.6 -2.77128 38
    endloop
  endfacet
endsolid OpenSCAD_Model
